<mxfile host="Electron" agent="Mozilla/5.0 (Windows NT 10.0; Win64; x64) AppleWebKit/537.36 (KHTML, like Gecko) draw.io/24.7.17 Chrome/128.0.6613.36 Electron/32.0.1 Safari/537.36" version="24.7.17">
  <diagram name="Page-1" id="MqKqHG0chiWsK1VbdBcf">
    <mxGraphModel dx="1506" dy="1398" grid="1" gridSize="10" guides="1" tooltips="1" connect="1" arrows="1" fold="1" page="1" pageScale="1" pageWidth="827" pageHeight="1169" math="1" shadow="0">
      <root>
        <mxCell id="0" />
        <mxCell id="1" parent="0" />
        <mxCell id="0VXw5R4QeLgqOWBGoTQH-323" value="" style="rounded=0;whiteSpace=wrap;html=1;fillColor=none;dashed=1;strokeWidth=2;strokeColor=#FF9933;" parent="1" vertex="1">
          <mxGeometry x="2228" y="1400" width="220" height="230" as="geometry" />
        </mxCell>
        <mxCell id="0VXw5R4QeLgqOWBGoTQH-1" style="edgeStyle=orthogonalEdgeStyle;rounded=0;orthogonalLoop=1;jettySize=auto;html=1;exitX=0.5;exitY=1;exitDx=0;exitDy=0;exitPerimeter=0;endArrow=none;endFill=0;strokeWidth=2;" parent="1" source="0VXw5R4QeLgqOWBGoTQH-2" edge="1">
          <mxGeometry relative="1" as="geometry">
            <mxPoint x="1150" y="1650" as="targetPoint" />
          </mxGeometry>
        </mxCell>
        <mxCell id="0VXw5R4QeLgqOWBGoTQH-2" value="" style="pointerEvents=1;verticalLabelPosition=bottom;shadow=0;dashed=0;align=center;html=1;verticalAlign=top;shape=mxgraph.electrical.signal_sources.source;aspect=fixed;points=[[0.5,0,0],[1,0.5,0],[0.5,1,0],[0,0.5,0]];elSignalType=ac;strokeWidth=2;" parent="1" vertex="1">
          <mxGeometry x="1130" y="1530" width="40" height="40" as="geometry" />
        </mxCell>
        <mxCell id="0VXw5R4QeLgqOWBGoTQH-4" value="" style="endArrow=none;html=1;rounded=0;strokeWidth=2;" parent="1" edge="1">
          <mxGeometry width="50" height="50" relative="1" as="geometry">
            <mxPoint x="1140" y="1650.15" as="sourcePoint" />
            <mxPoint x="1160" y="1650" as="targetPoint" />
          </mxGeometry>
        </mxCell>
        <mxCell id="0VXw5R4QeLgqOWBGoTQH-6" value="" style="verticalLabelPosition=bottom;shadow=0;dashed=0;align=center;html=1;verticalAlign=top;shape=mxgraph.electrical.transistors.npn_transistor_5;strokeWidth=2;" parent="1" vertex="1">
          <mxGeometry x="1416" y="1415" width="64" height="100" as="geometry" />
        </mxCell>
        <mxCell id="0VXw5R4QeLgqOWBGoTQH-7" style="edgeStyle=orthogonalEdgeStyle;rounded=0;orthogonalLoop=1;jettySize=auto;html=1;exitX=1;exitY=0.5;exitDx=0;exitDy=0;exitPerimeter=0;endArrow=none;endFill=0;strokeWidth=2;" parent="1" source="0VXw5R4QeLgqOWBGoTQH-8" edge="1">
          <mxGeometry relative="1" as="geometry">
            <mxPoint x="1660" y="1650" as="targetPoint" />
          </mxGeometry>
        </mxCell>
        <mxCell id="0VXw5R4QeLgqOWBGoTQH-8" value="" style="pointerEvents=1;verticalLabelPosition=bottom;shadow=0;dashed=0;align=center;html=1;verticalAlign=top;shape=mxgraph.electrical.resistors.resistor_2;rotation=90;strokeWidth=2;" parent="1" vertex="1">
          <mxGeometry x="1610" y="1500" width="100" height="20" as="geometry" />
        </mxCell>
        <mxCell id="0VXw5R4QeLgqOWBGoTQH-10" value="" style="endArrow=none;html=1;rounded=0;strokeWidth=2;" parent="1" edge="1">
          <mxGeometry width="50" height="50" relative="1" as="geometry">
            <mxPoint x="1470" y="1650.15" as="sourcePoint" />
            <mxPoint x="1490" y="1650.15" as="targetPoint" />
          </mxGeometry>
        </mxCell>
        <mxCell id="0VXw5R4QeLgqOWBGoTQH-11" value="" style="endArrow=none;html=1;rounded=0;strokeWidth=2;" parent="1" edge="1">
          <mxGeometry width="50" height="50" relative="1" as="geometry">
            <mxPoint x="1650" y="1650.15" as="sourcePoint" />
            <mxPoint x="1670" y="1650.15" as="targetPoint" />
          </mxGeometry>
        </mxCell>
        <mxCell id="0VXw5R4QeLgqOWBGoTQH-12" value="" style="endArrow=none;html=1;rounded=0;strokeWidth=2;" parent="1" edge="1">
          <mxGeometry width="50" height="50" relative="1" as="geometry">
            <mxPoint x="1145" y="1654.89" as="sourcePoint" />
            <mxPoint x="1155" y="1654.89" as="targetPoint" />
          </mxGeometry>
        </mxCell>
        <mxCell id="0VXw5R4QeLgqOWBGoTQH-13" value="" style="endArrow=none;html=1;rounded=0;strokeWidth=2;" parent="1" edge="1">
          <mxGeometry width="50" height="50" relative="1" as="geometry">
            <mxPoint x="1475" y="1654.89" as="sourcePoint" />
            <mxPoint x="1485" y="1654.89" as="targetPoint" />
          </mxGeometry>
        </mxCell>
        <mxCell id="0VXw5R4QeLgqOWBGoTQH-14" value="" style="endArrow=none;html=1;rounded=0;strokeWidth=2;" parent="1" edge="1">
          <mxGeometry width="50" height="50" relative="1" as="geometry">
            <mxPoint x="1655" y="1654.89" as="sourcePoint" />
            <mxPoint x="1665" y="1654.89" as="targetPoint" />
          </mxGeometry>
        </mxCell>
        <mxCell id="0VXw5R4QeLgqOWBGoTQH-17" value="$$R_L=8\Omega$$" style="text;html=1;align=center;verticalAlign=middle;whiteSpace=wrap;rounded=0;fontSize=16;" parent="1" vertex="1">
          <mxGeometry x="1690" y="1495" width="60" height="30" as="geometry" />
        </mxCell>
        <mxCell id="0VXw5R4QeLgqOWBGoTQH-18" value="$$v_i$$" style="text;html=1;align=center;verticalAlign=middle;whiteSpace=wrap;rounded=0;fontSize=16;" parent="1" vertex="1">
          <mxGeometry x="1160" y="1535" width="60" height="30" as="geometry" />
        </mxCell>
        <mxCell id="0VXw5R4QeLgqOWBGoTQH-19" value="+" style="text;html=1;align=center;verticalAlign=middle;whiteSpace=wrap;rounded=0;fontSize=16;" parent="1" vertex="1">
          <mxGeometry x="1160" y="1500" width="60" height="30" as="geometry" />
        </mxCell>
        <mxCell id="0VXw5R4QeLgqOWBGoTQH-20" value="-" style="text;html=1;align=center;verticalAlign=middle;whiteSpace=wrap;rounded=0;fontSize=16;" parent="1" vertex="1">
          <mxGeometry x="1160" y="1575" width="60" height="30" as="geometry" />
        </mxCell>
        <mxCell id="0VXw5R4QeLgqOWBGoTQH-21" value="$$v_o$$" style="text;html=1;align=center;verticalAlign=middle;whiteSpace=wrap;rounded=0;fontSize=16;" parent="1" vertex="1">
          <mxGeometry x="1593" y="1492.5" width="60" height="30" as="geometry" />
        </mxCell>
        <mxCell id="0VXw5R4QeLgqOWBGoTQH-22" value="+" style="text;html=1;align=center;verticalAlign=middle;whiteSpace=wrap;rounded=0;fontSize=16;" parent="1" vertex="1">
          <mxGeometry x="1593" y="1457.5" width="60" height="30" as="geometry" />
        </mxCell>
        <mxCell id="0VXw5R4QeLgqOWBGoTQH-23" value="-" style="text;html=1;align=center;verticalAlign=middle;whiteSpace=wrap;rounded=0;fontSize=16;" parent="1" vertex="1">
          <mxGeometry x="1593" y="1532.5" width="60" height="30" as="geometry" />
        </mxCell>
        <mxCell id="0VXw5R4QeLgqOWBGoTQH-32" value="" style="pointerEvents=1;verticalLabelPosition=bottom;shadow=0;dashed=0;align=center;html=1;verticalAlign=top;shape=mxgraph.electrical.capacitors.capacitor_1;strokeWidth=2;rotation=-180;" parent="1" vertex="1">
          <mxGeometry x="1190" y="1450" width="100" height="30" as="geometry" />
        </mxCell>
        <mxCell id="KkJVHoqy8BTquRj1_7dG-328" style="edgeStyle=orthogonalEdgeStyle;rounded=0;orthogonalLoop=1;jettySize=auto;html=1;exitX=0;exitY=0.5;exitDx=0;exitDy=0;exitPerimeter=0;entryX=0.5;entryY=0;entryDx=0;entryDy=0;strokeWidth=2;endArrow=none;endFill=0;" parent="1" source="0VXw5R4QeLgqOWBGoTQH-80" target="KkJVHoqy8BTquRj1_7dG-327" edge="1">
          <mxGeometry relative="1" as="geometry">
            <Array as="points">
              <mxPoint x="1834" y="2630" />
              <mxPoint x="1834" y="2630" />
            </Array>
          </mxGeometry>
        </mxCell>
        <mxCell id="0VXw5R4QeLgqOWBGoTQH-102" style="edgeStyle=orthogonalEdgeStyle;rounded=0;orthogonalLoop=1;jettySize=auto;html=1;exitX=1;exitY=0.5;exitDx=0;exitDy=0;exitPerimeter=0;strokeWidth=2;endArrow=none;endFill=0;" parent="1" source="0VXw5R4QeLgqOWBGoTQH-81" edge="1">
          <mxGeometry relative="1" as="geometry">
            <mxPoint x="1480.2413793103449" y="1650" as="targetPoint" />
          </mxGeometry>
        </mxCell>
        <mxCell id="0VXw5R4QeLgqOWBGoTQH-81" value="" style="pointerEvents=1;verticalLabelPosition=bottom;shadow=0;dashed=0;align=center;html=1;verticalAlign=top;shape=mxgraph.electrical.resistors.resistor_2;rotation=90;strokeWidth=2;" parent="1" vertex="1">
          <mxGeometry x="1430" y="1562.5" width="100" height="20" as="geometry" />
        </mxCell>
        <mxCell id="0VXw5R4QeLgqOWBGoTQH-83" style="edgeStyle=orthogonalEdgeStyle;rounded=0;orthogonalLoop=1;jettySize=auto;html=1;exitX=1;exitY=1;exitDx=0;exitDy=0;exitPerimeter=0;entryX=0;entryY=0.5;entryDx=0;entryDy=0;entryPerimeter=0;strokeWidth=2;endArrow=none;endFill=0;" parent="1" source="0VXw5R4QeLgqOWBGoTQH-6" target="0VXw5R4QeLgqOWBGoTQH-81" edge="1">
          <mxGeometry relative="1" as="geometry" />
        </mxCell>
        <mxCell id="0VXw5R4QeLgqOWBGoTQH-93" style="edgeStyle=orthogonalEdgeStyle;rounded=0;orthogonalLoop=1;jettySize=auto;html=1;exitX=0;exitY=0.5;exitDx=0;exitDy=0;exitPerimeter=0;strokeWidth=2;endArrow=none;endFill=0;" parent="1" source="0VXw5R4QeLgqOWBGoTQH-84" edge="1">
          <mxGeometry relative="1" as="geometry">
            <mxPoint x="1480" y="1210" as="targetPoint" />
          </mxGeometry>
        </mxCell>
        <mxCell id="0VXw5R4QeLgqOWBGoTQH-116" style="edgeStyle=orthogonalEdgeStyle;rounded=0;orthogonalLoop=1;jettySize=auto;html=1;exitX=1;exitY=0.5;exitDx=0;exitDy=0;exitPerimeter=0;strokeWidth=2;endArrow=none;endFill=0;" parent="1" source="0VXw5R4QeLgqOWBGoTQH-84" edge="1">
          <mxGeometry relative="1" as="geometry">
            <mxPoint x="1480" y="1390" as="targetPoint" />
          </mxGeometry>
        </mxCell>
        <mxCell id="0VXw5R4QeLgqOWBGoTQH-84" value="" style="pointerEvents=1;verticalLabelPosition=bottom;shadow=0;dashed=0;align=center;html=1;verticalAlign=top;shape=mxgraph.electrical.resistors.resistor_2;rotation=90;strokeWidth=2;" parent="1" vertex="1">
          <mxGeometry x="1430" y="1320" width="100" height="20" as="geometry" />
        </mxCell>
        <mxCell id="0VXw5R4QeLgqOWBGoTQH-85" style="edgeStyle=orthogonalEdgeStyle;rounded=0;orthogonalLoop=1;jettySize=auto;html=1;exitX=1;exitY=0.5;exitDx=0;exitDy=0;exitPerimeter=0;entryX=1;entryY=0;entryDx=0;entryDy=0;entryPerimeter=0;strokeWidth=2;endArrow=none;endFill=0;" parent="1" target="0VXw5R4QeLgqOWBGoTQH-6" edge="1">
          <mxGeometry relative="1" as="geometry">
            <mxPoint x="1480" y="1410" as="sourcePoint" />
          </mxGeometry>
        </mxCell>
        <mxCell id="0VXw5R4QeLgqOWBGoTQH-114" style="edgeStyle=orthogonalEdgeStyle;rounded=0;orthogonalLoop=1;jettySize=auto;html=1;exitX=1;exitY=0.5;exitDx=0;exitDy=0;exitPerimeter=0;strokeWidth=2;endArrow=none;endFill=0;" parent="1" source="0VXw5R4QeLgqOWBGoTQH-86" edge="1">
          <mxGeometry relative="1" as="geometry">
            <mxPoint x="1349.8571428571427" y="1430" as="targetPoint" />
          </mxGeometry>
        </mxCell>
        <mxCell id="0VXw5R4QeLgqOWBGoTQH-86" value="" style="pointerEvents=1;verticalLabelPosition=bottom;shadow=0;dashed=0;align=center;html=1;verticalAlign=top;shape=mxgraph.electrical.resistors.resistor_2;rotation=90;strokeWidth=2;" parent="1" vertex="1">
          <mxGeometry x="1300" y="1340" width="100" height="20" as="geometry" />
        </mxCell>
        <mxCell id="0VXw5R4QeLgqOWBGoTQH-101" style="edgeStyle=orthogonalEdgeStyle;rounded=0;orthogonalLoop=1;jettySize=auto;html=1;exitX=1;exitY=0.5;exitDx=0;exitDy=0;exitPerimeter=0;strokeWidth=2;endArrow=none;endFill=0;" parent="1" source="0VXw5R4QeLgqOWBGoTQH-87" edge="1">
          <mxGeometry relative="1" as="geometry">
            <mxPoint x="1349.896551724138" y="1650" as="targetPoint" />
          </mxGeometry>
        </mxCell>
        <mxCell id="0VXw5R4QeLgqOWBGoTQH-87" value="" style="pointerEvents=1;verticalLabelPosition=bottom;shadow=0;dashed=0;align=center;html=1;verticalAlign=top;shape=mxgraph.electrical.resistors.resistor_2;rotation=90;strokeWidth=2;" parent="1" vertex="1">
          <mxGeometry x="1300" y="1537.5" width="100" height="20" as="geometry" />
        </mxCell>
        <mxCell id="0VXw5R4QeLgqOWBGoTQH-88" style="edgeStyle=orthogonalEdgeStyle;rounded=0;orthogonalLoop=1;jettySize=auto;html=1;exitX=0.5;exitY=0;exitDx=0;exitDy=0;exitPerimeter=0;entryX=1;entryY=0.5;entryDx=0;entryDy=0;entryPerimeter=0;strokeWidth=2;endArrow=none;endFill=0;" parent="1" source="0VXw5R4QeLgqOWBGoTQH-2" target="0VXw5R4QeLgqOWBGoTQH-32" edge="1">
          <mxGeometry relative="1" as="geometry" />
        </mxCell>
        <mxCell id="0VXw5R4QeLgqOWBGoTQH-89" style="edgeStyle=orthogonalEdgeStyle;rounded=0;orthogonalLoop=1;jettySize=auto;html=1;exitX=0;exitY=0.5;exitDx=0;exitDy=0;exitPerimeter=0;entryX=0;entryY=0.5;entryDx=0;entryDy=0;entryPerimeter=0;strokeWidth=2;endArrow=none;endFill=0;" parent="1" source="0VXw5R4QeLgqOWBGoTQH-32" target="0VXw5R4QeLgqOWBGoTQH-6" edge="1">
          <mxGeometry relative="1" as="geometry" />
        </mxCell>
        <mxCell id="0VXw5R4QeLgqOWBGoTQH-91" style="edgeStyle=orthogonalEdgeStyle;rounded=0;orthogonalLoop=1;jettySize=auto;html=1;exitX=0;exitY=0.5;exitDx=0;exitDy=0;exitPerimeter=0;entryX=1;entryY=0.5;entryDx=0;entryDy=0;entryPerimeter=0;strokeWidth=2;endArrow=none;endFill=0;" parent="1" source="0VXw5R4QeLgqOWBGoTQH-87" edge="1">
          <mxGeometry relative="1" as="geometry">
            <mxPoint x="1350" y="1430" as="targetPoint" />
          </mxGeometry>
        </mxCell>
        <mxCell id="0VXw5R4QeLgqOWBGoTQH-92" value="" style="endArrow=none;html=1;rounded=0;strokeWidth=2;" parent="1" edge="1">
          <mxGeometry width="50" height="50" relative="1" as="geometry">
            <mxPoint x="1470" y="1210" as="sourcePoint" />
            <mxPoint x="1490" y="1210" as="targetPoint" />
          </mxGeometry>
        </mxCell>
        <mxCell id="0VXw5R4QeLgqOWBGoTQH-95" style="edgeStyle=orthogonalEdgeStyle;rounded=0;orthogonalLoop=1;jettySize=auto;html=1;exitX=0;exitY=0.5;exitDx=0;exitDy=0;exitPerimeter=0;entryX=0;entryY=0.5;entryDx=0;entryDy=0;entryPerimeter=0;strokeWidth=2;endArrow=none;endFill=0;" parent="1" source="0VXw5R4QeLgqOWBGoTQH-86" target="0VXw5R4QeLgqOWBGoTQH-84" edge="1">
          <mxGeometry relative="1" as="geometry">
            <Array as="points">
              <mxPoint x="1350" y="1250" />
              <mxPoint x="1480" y="1250" />
            </Array>
          </mxGeometry>
        </mxCell>
        <mxCell id="0VXw5R4QeLgqOWBGoTQH-96" value="" style="pointerEvents=1;verticalLabelPosition=bottom;shadow=0;dashed=0;align=center;html=1;verticalAlign=top;shape=mxgraph.electrical.capacitors.capacitor_1;strokeWidth=2;rotation=-180;" parent="1" vertex="1">
          <mxGeometry x="1520" y="1370" width="100" height="30" as="geometry" />
        </mxCell>
        <mxCell id="0VXw5R4QeLgqOWBGoTQH-97" style="edgeStyle=orthogonalEdgeStyle;rounded=0;orthogonalLoop=1;jettySize=auto;html=1;exitX=1;exitY=0.5;exitDx=0;exitDy=0;exitPerimeter=0;entryX=1;entryY=0;entryDx=0;entryDy=0;entryPerimeter=0;strokeWidth=2;endArrow=none;endFill=0;" parent="1" source="0VXw5R4QeLgqOWBGoTQH-96" target="0VXw5R4QeLgqOWBGoTQH-6" edge="1">
          <mxGeometry relative="1" as="geometry">
            <Array as="points">
              <mxPoint x="1480" y="1385" />
            </Array>
          </mxGeometry>
        </mxCell>
        <mxCell id="0VXw5R4QeLgqOWBGoTQH-98" style="edgeStyle=orthogonalEdgeStyle;rounded=0;orthogonalLoop=1;jettySize=auto;html=1;exitX=0;exitY=0.5;exitDx=0;exitDy=0;exitPerimeter=0;entryX=0;entryY=0.5;entryDx=0;entryDy=0;entryPerimeter=0;endArrow=none;endFill=0;strokeWidth=2;" parent="1" source="0VXw5R4QeLgqOWBGoTQH-96" target="0VXw5R4QeLgqOWBGoTQH-8" edge="1">
          <mxGeometry relative="1" as="geometry" />
        </mxCell>
        <mxCell id="0VXw5R4QeLgqOWBGoTQH-99" value="" style="endArrow=none;html=1;rounded=0;strokeWidth=2;" parent="1" edge="1">
          <mxGeometry width="50" height="50" relative="1" as="geometry">
            <mxPoint x="1340" y="1650.3000000000002" as="sourcePoint" />
            <mxPoint x="1360" y="1650.15" as="targetPoint" />
          </mxGeometry>
        </mxCell>
        <mxCell id="0VXw5R4QeLgqOWBGoTQH-100" value="" style="endArrow=none;html=1;rounded=0;strokeWidth=2;" parent="1" edge="1">
          <mxGeometry width="50" height="50" relative="1" as="geometry">
            <mxPoint x="1345" y="1655.0400000000002" as="sourcePoint" />
            <mxPoint x="1355" y="1655.0400000000002" as="targetPoint" />
          </mxGeometry>
        </mxCell>
        <mxCell id="0VXw5R4QeLgqOWBGoTQH-103" value="$$V_{CC}=20V$$" style="text;html=1;align=center;verticalAlign=middle;whiteSpace=wrap;rounded=0;fontSize=16;" parent="1" vertex="1">
          <mxGeometry x="1450" y="1180" width="60" height="30" as="geometry" />
        </mxCell>
        <mxCell id="0VXw5R4QeLgqOWBGoTQH-104" value="$$R_1$$" style="text;html=1;align=center;verticalAlign=middle;whiteSpace=wrap;rounded=0;fontSize=16;" parent="1" vertex="1">
          <mxGeometry x="1285" y="1335" width="60" height="30" as="geometry" />
        </mxCell>
        <mxCell id="0VXw5R4QeLgqOWBGoTQH-105" value="$$R_2$$" style="text;html=1;align=center;verticalAlign=middle;whiteSpace=wrap;rounded=0;fontSize=16;" parent="1" vertex="1">
          <mxGeometry x="1285" y="1535" width="60" height="30" as="geometry" />
        </mxCell>
        <mxCell id="0VXw5R4QeLgqOWBGoTQH-106" value="$$R_E=10\Omega$$" style="text;html=1;align=center;verticalAlign=middle;whiteSpace=wrap;rounded=0;fontSize=16;" parent="1" vertex="1">
          <mxGeometry x="1513" y="1557.5" width="60" height="30" as="geometry" />
        </mxCell>
        <mxCell id="0VXw5R4QeLgqOWBGoTQH-107" value="$$R_C=100\Omega$$" style="text;html=1;align=center;verticalAlign=middle;whiteSpace=wrap;rounded=0;fontSize=16;" parent="1" vertex="1">
          <mxGeometry x="1513" y="1315" width="60" height="30" as="geometry" />
        </mxCell>
        <mxCell id="0VXw5R4QeLgqOWBGoTQH-108" value="" style="ellipse;whiteSpace=wrap;html=1;aspect=fixed;fillColor=#000000;" parent="1" vertex="1">
          <mxGeometry x="1345" y="1459.5" width="10" height="10" as="geometry" />
        </mxCell>
        <mxCell id="0VXw5R4QeLgqOWBGoTQH-109" value="" style="ellipse;whiteSpace=wrap;html=1;aspect=fixed;fillColor=#000000;" parent="1" vertex="1">
          <mxGeometry x="1475" y="1244" width="10" height="10" as="geometry" />
        </mxCell>
        <mxCell id="0VXw5R4QeLgqOWBGoTQH-110" value="" style="ellipse;whiteSpace=wrap;html=1;aspect=fixed;fillColor=#000000;" parent="1" vertex="1">
          <mxGeometry x="1475" y="1380" width="10" height="10" as="geometry" />
        </mxCell>
        <mxCell id="0VXw5R4QeLgqOWBGoTQH-123" style="edgeStyle=orthogonalEdgeStyle;rounded=0;orthogonalLoop=1;jettySize=auto;html=1;exitX=0;exitY=0.5;exitDx=0;exitDy=0;exitPerimeter=0;strokeWidth=2;endArrow=none;endFill=0;" parent="1" source="0VXw5R4QeLgqOWBGoTQH-121" edge="1">
          <mxGeometry relative="1" as="geometry">
            <mxPoint x="1480" y="1640" as="targetPoint" />
            <Array as="points">
              <mxPoint x="1425" y="1630" />
              <mxPoint x="1480" y="1630" />
            </Array>
          </mxGeometry>
        </mxCell>
        <mxCell id="0VXw5R4QeLgqOWBGoTQH-121" value="" style="pointerEvents=1;verticalLabelPosition=bottom;shadow=0;dashed=0;align=center;html=1;verticalAlign=top;shape=mxgraph.electrical.capacitors.capacitor_1;strokeWidth=2;rotation=-90;" parent="1" vertex="1">
          <mxGeometry x="1375" y="1557.5" width="100" height="30" as="geometry" />
        </mxCell>
        <mxCell id="0VXw5R4QeLgqOWBGoTQH-122" style="edgeStyle=orthogonalEdgeStyle;rounded=0;orthogonalLoop=1;jettySize=auto;html=1;exitX=1;exitY=0.5;exitDx=0;exitDy=0;exitPerimeter=0;entryX=0;entryY=0.5;entryDx=0;entryDy=0;entryPerimeter=0;strokeWidth=2;endArrow=none;endFill=0;" parent="1" source="0VXw5R4QeLgqOWBGoTQH-121" target="0VXw5R4QeLgqOWBGoTQH-81" edge="1">
          <mxGeometry relative="1" as="geometry">
            <Array as="points">
              <mxPoint x="1425" y="1520" />
              <mxPoint x="1480" y="1520" />
            </Array>
          </mxGeometry>
        </mxCell>
        <mxCell id="0VXw5R4QeLgqOWBGoTQH-124" value="" style="ellipse;whiteSpace=wrap;html=1;aspect=fixed;fillColor=#000000;" parent="1" vertex="1">
          <mxGeometry x="1475" y="1515" width="10" height="10" as="geometry" />
        </mxCell>
        <mxCell id="0VXw5R4QeLgqOWBGoTQH-125" value="" style="ellipse;whiteSpace=wrap;html=1;aspect=fixed;fillColor=#000000;" parent="1" vertex="1">
          <mxGeometry x="1475" y="1625" width="10" height="10" as="geometry" />
        </mxCell>
        <mxCell id="0VXw5R4QeLgqOWBGoTQH-127" value="$$\beta=25$$" style="text;html=1;align=center;verticalAlign=middle;whiteSpace=wrap;rounded=0;fontSize=16;" parent="1" vertex="1">
          <mxGeometry x="1485" y="1450" width="60" height="30" as="geometry" />
        </mxCell>
        <mxCell id="0VXw5R4QeLgqOWBGoTQH-128" value="" style="verticalLabelPosition=bottom;shadow=0;dashed=0;align=center;html=1;verticalAlign=top;shape=mxgraph.electrical.transistors.npn_transistor_5;strokeWidth=2;" parent="1" vertex="1">
          <mxGeometry x="1956" y="1415" width="64" height="100" as="geometry" />
        </mxCell>
        <mxCell id="0VXw5R4QeLgqOWBGoTQH-129" value="" style="endArrow=none;html=1;rounded=0;strokeWidth=2;" parent="1" edge="1">
          <mxGeometry width="50" height="50" relative="1" as="geometry">
            <mxPoint x="2010" y="1650.15" as="sourcePoint" />
            <mxPoint x="2030" y="1650.15" as="targetPoint" />
          </mxGeometry>
        </mxCell>
        <mxCell id="0VXw5R4QeLgqOWBGoTQH-130" value="" style="endArrow=none;html=1;rounded=0;strokeWidth=2;" parent="1" edge="1">
          <mxGeometry width="50" height="50" relative="1" as="geometry">
            <mxPoint x="2015" y="1654.8900000000003" as="sourcePoint" />
            <mxPoint x="2025" y="1654.8900000000003" as="targetPoint" />
          </mxGeometry>
        </mxCell>
        <mxCell id="0VXw5R4QeLgqOWBGoTQH-131" style="edgeStyle=orthogonalEdgeStyle;rounded=0;orthogonalLoop=1;jettySize=auto;html=1;exitX=1;exitY=0.5;exitDx=0;exitDy=0;exitPerimeter=0;strokeWidth=2;endArrow=none;endFill=0;" parent="1" source="0VXw5R4QeLgqOWBGoTQH-132" edge="1">
          <mxGeometry relative="1" as="geometry">
            <mxPoint x="2020.2413793103449" y="1650" as="targetPoint" />
          </mxGeometry>
        </mxCell>
        <mxCell id="0VXw5R4QeLgqOWBGoTQH-132" value="" style="pointerEvents=1;verticalLabelPosition=bottom;shadow=0;dashed=0;align=center;html=1;verticalAlign=top;shape=mxgraph.electrical.resistors.resistor_2;rotation=90;strokeWidth=2;" parent="1" vertex="1">
          <mxGeometry x="1970" y="1562.5" width="100" height="20" as="geometry" />
        </mxCell>
        <mxCell id="0VXw5R4QeLgqOWBGoTQH-133" style="edgeStyle=orthogonalEdgeStyle;rounded=0;orthogonalLoop=1;jettySize=auto;html=1;exitX=1;exitY=1;exitDx=0;exitDy=0;exitPerimeter=0;entryX=0;entryY=0.5;entryDx=0;entryDy=0;entryPerimeter=0;strokeWidth=2;endArrow=none;endFill=0;" parent="1" source="0VXw5R4QeLgqOWBGoTQH-128" target="0VXw5R4QeLgqOWBGoTQH-132" edge="1">
          <mxGeometry relative="1" as="geometry" />
        </mxCell>
        <mxCell id="0VXw5R4QeLgqOWBGoTQH-134" style="edgeStyle=orthogonalEdgeStyle;rounded=0;orthogonalLoop=1;jettySize=auto;html=1;exitX=0;exitY=0.5;exitDx=0;exitDy=0;exitPerimeter=0;strokeWidth=2;endArrow=none;endFill=0;" parent="1" source="0VXw5R4QeLgqOWBGoTQH-136" edge="1">
          <mxGeometry relative="1" as="geometry">
            <mxPoint x="2020" y="1210" as="targetPoint" />
          </mxGeometry>
        </mxCell>
        <mxCell id="0VXw5R4QeLgqOWBGoTQH-135" style="edgeStyle=orthogonalEdgeStyle;rounded=0;orthogonalLoop=1;jettySize=auto;html=1;exitX=1;exitY=0.5;exitDx=0;exitDy=0;exitPerimeter=0;strokeWidth=2;endArrow=none;endFill=0;" parent="1" source="0VXw5R4QeLgqOWBGoTQH-136" edge="1">
          <mxGeometry relative="1" as="geometry">
            <mxPoint x="2020" y="1390" as="targetPoint" />
          </mxGeometry>
        </mxCell>
        <mxCell id="0VXw5R4QeLgqOWBGoTQH-136" value="" style="pointerEvents=1;verticalLabelPosition=bottom;shadow=0;dashed=0;align=center;html=1;verticalAlign=top;shape=mxgraph.electrical.resistors.resistor_2;rotation=90;strokeWidth=2;" parent="1" vertex="1">
          <mxGeometry x="1970" y="1320" width="100" height="20" as="geometry" />
        </mxCell>
        <mxCell id="0VXw5R4QeLgqOWBGoTQH-137" style="edgeStyle=orthogonalEdgeStyle;rounded=0;orthogonalLoop=1;jettySize=auto;html=1;exitX=1;exitY=0.5;exitDx=0;exitDy=0;exitPerimeter=0;entryX=1;entryY=0;entryDx=0;entryDy=0;entryPerimeter=0;strokeWidth=2;endArrow=none;endFill=0;" parent="1" target="0VXw5R4QeLgqOWBGoTQH-128" edge="1">
          <mxGeometry relative="1" as="geometry">
            <mxPoint x="2020" y="1410" as="sourcePoint" />
          </mxGeometry>
        </mxCell>
        <mxCell id="0VXw5R4QeLgqOWBGoTQH-138" style="edgeStyle=orthogonalEdgeStyle;rounded=0;orthogonalLoop=1;jettySize=auto;html=1;exitX=1;exitY=0.5;exitDx=0;exitDy=0;exitPerimeter=0;strokeWidth=2;endArrow=none;endFill=0;" parent="1" source="0VXw5R4QeLgqOWBGoTQH-139" edge="1">
          <mxGeometry relative="1" as="geometry">
            <mxPoint x="1889.8571428571427" y="1430" as="targetPoint" />
          </mxGeometry>
        </mxCell>
        <mxCell id="0VXw5R4QeLgqOWBGoTQH-139" value="" style="pointerEvents=1;verticalLabelPosition=bottom;shadow=0;dashed=0;align=center;html=1;verticalAlign=top;shape=mxgraph.electrical.resistors.resistor_2;rotation=90;strokeWidth=2;" parent="1" vertex="1">
          <mxGeometry x="1840" y="1340" width="100" height="20" as="geometry" />
        </mxCell>
        <mxCell id="0VXw5R4QeLgqOWBGoTQH-140" style="edgeStyle=orthogonalEdgeStyle;rounded=0;orthogonalLoop=1;jettySize=auto;html=1;exitX=1;exitY=0.5;exitDx=0;exitDy=0;exitPerimeter=0;strokeWidth=2;endArrow=none;endFill=0;" parent="1" source="0VXw5R4QeLgqOWBGoTQH-141" edge="1">
          <mxGeometry relative="1" as="geometry">
            <mxPoint x="1889.896551724138" y="1650" as="targetPoint" />
          </mxGeometry>
        </mxCell>
        <mxCell id="0VXw5R4QeLgqOWBGoTQH-141" value="" style="pointerEvents=1;verticalLabelPosition=bottom;shadow=0;dashed=0;align=center;html=1;verticalAlign=top;shape=mxgraph.electrical.resistors.resistor_2;rotation=90;strokeWidth=2;" parent="1" vertex="1">
          <mxGeometry x="1840" y="1537.5" width="100" height="20" as="geometry" />
        </mxCell>
        <mxCell id="0VXw5R4QeLgqOWBGoTQH-142" style="edgeStyle=orthogonalEdgeStyle;rounded=0;orthogonalLoop=1;jettySize=auto;html=1;exitX=0;exitY=0.5;exitDx=0;exitDy=0;entryX=0;entryY=0.5;entryDx=0;entryDy=0;entryPerimeter=0;strokeWidth=2;endArrow=none;endFill=0;exitPerimeter=0;" parent="1" source="0VXw5R4QeLgqOWBGoTQH-141" target="0VXw5R4QeLgqOWBGoTQH-128" edge="1">
          <mxGeometry relative="1" as="geometry">
            <mxPoint x="1895" y="1464.5" as="sourcePoint" />
          </mxGeometry>
        </mxCell>
        <mxCell id="0VXw5R4QeLgqOWBGoTQH-143" style="edgeStyle=orthogonalEdgeStyle;rounded=0;orthogonalLoop=1;jettySize=auto;html=1;exitX=0;exitY=0.5;exitDx=0;exitDy=0;exitPerimeter=0;entryX=1;entryY=0.5;entryDx=0;entryDy=0;entryPerimeter=0;strokeWidth=2;endArrow=none;endFill=0;" parent="1" source="0VXw5R4QeLgqOWBGoTQH-141" edge="1">
          <mxGeometry relative="1" as="geometry">
            <mxPoint x="1890" y="1430" as="targetPoint" />
          </mxGeometry>
        </mxCell>
        <mxCell id="0VXw5R4QeLgqOWBGoTQH-144" value="" style="endArrow=none;html=1;rounded=0;strokeWidth=2;" parent="1" edge="1">
          <mxGeometry width="50" height="50" relative="1" as="geometry">
            <mxPoint x="2010" y="1210" as="sourcePoint" />
            <mxPoint x="2030" y="1210" as="targetPoint" />
          </mxGeometry>
        </mxCell>
        <mxCell id="0VXw5R4QeLgqOWBGoTQH-145" style="edgeStyle=orthogonalEdgeStyle;rounded=0;orthogonalLoop=1;jettySize=auto;html=1;exitX=0;exitY=0.5;exitDx=0;exitDy=0;exitPerimeter=0;entryX=0;entryY=0.5;entryDx=0;entryDy=0;entryPerimeter=0;strokeWidth=2;endArrow=none;endFill=0;" parent="1" source="0VXw5R4QeLgqOWBGoTQH-139" target="0VXw5R4QeLgqOWBGoTQH-136" edge="1">
          <mxGeometry relative="1" as="geometry">
            <Array as="points">
              <mxPoint x="1890" y="1250" />
              <mxPoint x="2020" y="1250" />
            </Array>
          </mxGeometry>
        </mxCell>
        <mxCell id="0VXw5R4QeLgqOWBGoTQH-147" value="" style="endArrow=none;html=1;rounded=0;strokeWidth=2;" parent="1" edge="1">
          <mxGeometry width="50" height="50" relative="1" as="geometry">
            <mxPoint x="1880" y="1650.3000000000002" as="sourcePoint" />
            <mxPoint x="1900" y="1650.15" as="targetPoint" />
          </mxGeometry>
        </mxCell>
        <mxCell id="0VXw5R4QeLgqOWBGoTQH-148" value="" style="endArrow=none;html=1;rounded=0;strokeWidth=2;" parent="1" edge="1">
          <mxGeometry width="50" height="50" relative="1" as="geometry">
            <mxPoint x="1885" y="1655.04" as="sourcePoint" />
            <mxPoint x="1895" y="1655.04" as="targetPoint" />
          </mxGeometry>
        </mxCell>
        <mxCell id="0VXw5R4QeLgqOWBGoTQH-149" value="$$V_{CC}=20V$$" style="text;html=1;align=center;verticalAlign=middle;whiteSpace=wrap;rounded=0;fontSize=16;" parent="1" vertex="1">
          <mxGeometry x="1990" y="1180" width="60" height="30" as="geometry" />
        </mxCell>
        <mxCell id="0VXw5R4QeLgqOWBGoTQH-150" value="$$R_1$$" style="text;html=1;align=center;verticalAlign=middle;whiteSpace=wrap;rounded=0;fontSize=16;" parent="1" vertex="1">
          <mxGeometry x="1910" y="1335" width="17" height="30" as="geometry" />
        </mxCell>
        <mxCell id="0VXw5R4QeLgqOWBGoTQH-151" value="$$R_2$$" style="text;html=1;align=center;verticalAlign=middle;whiteSpace=wrap;rounded=0;fontSize=16;" parent="1" vertex="1">
          <mxGeometry x="1903.5" y="1537.5" width="30" height="30" as="geometry" />
        </mxCell>
        <mxCell id="0VXw5R4QeLgqOWBGoTQH-152" value="$$R_E=10\Omega$$" style="text;html=1;align=center;verticalAlign=middle;whiteSpace=wrap;rounded=0;fontSize=16;" parent="1" vertex="1">
          <mxGeometry x="2053" y="1557.5" width="60" height="30" as="geometry" />
        </mxCell>
        <mxCell id="0VXw5R4QeLgqOWBGoTQH-153" value="$$R_C=100\Omega$$" style="text;html=1;align=center;verticalAlign=middle;whiteSpace=wrap;rounded=0;fontSize=16;" parent="1" vertex="1">
          <mxGeometry x="2053" y="1315" width="60" height="30" as="geometry" />
        </mxCell>
        <mxCell id="0VXw5R4QeLgqOWBGoTQH-163" style="edgeStyle=orthogonalEdgeStyle;rounded=0;orthogonalLoop=1;jettySize=auto;html=1;exitX=0.5;exitY=1;exitDx=0;exitDy=0;strokeWidth=2;endArrow=none;endFill=0;" parent="1" edge="1">
          <mxGeometry relative="1" as="geometry">
            <mxPoint x="2020" y="1410" as="targetPoint" />
            <mxPoint x="2020" y="1390" as="sourcePoint" />
          </mxGeometry>
        </mxCell>
        <mxCell id="0VXw5R4QeLgqOWBGoTQH-162" value="$$\beta=25$$" style="text;html=1;align=center;verticalAlign=middle;whiteSpace=wrap;rounded=0;fontSize=16;" parent="1" vertex="1">
          <mxGeometry x="2025" y="1450" width="60" height="30" as="geometry" />
        </mxCell>
        <mxCell id="0VXw5R4QeLgqOWBGoTQH-195" value="" style="shape=flexArrow;endArrow=classic;html=1;rounded=0;fillColor=default;strokeWidth=2;fontColor=#787878;strokeColor=#808080;" parent="1" edge="1">
          <mxGeometry width="50" height="50" relative="1" as="geometry">
            <mxPoint x="2083" y="1413.2" as="sourcePoint" />
            <mxPoint x="2193" y="1413.2" as="targetPoint" />
          </mxGeometry>
        </mxCell>
        <mxCell id="0VXw5R4QeLgqOWBGoTQH-274" value="" style="endArrow=classic;html=1;rounded=0;" parent="1" edge="1">
          <mxGeometry width="50" height="50" relative="1" as="geometry">
            <mxPoint x="1913.58" y="1451.2500000000002" as="sourcePoint" />
            <mxPoint x="1970" y="1451.2500000000002" as="targetPoint" />
          </mxGeometry>
        </mxCell>
        <mxCell id="0VXw5R4QeLgqOWBGoTQH-275" value="$$I_B$$" style="text;html=1;align=center;verticalAlign=middle;whiteSpace=wrap;rounded=0;fontSize=16;" parent="1" vertex="1">
          <mxGeometry x="1910" y="1419.2" width="60" height="30" as="geometry" />
        </mxCell>
        <mxCell id="0VXw5R4QeLgqOWBGoTQH-276" value="" style="verticalLabelPosition=bottom;shadow=0;dashed=0;align=center;html=1;verticalAlign=top;shape=mxgraph.electrical.transistors.npn_transistor_5;strokeWidth=2;" parent="1" vertex="1">
          <mxGeometry x="2495" y="1415" width="64" height="100" as="geometry" />
        </mxCell>
        <mxCell id="0VXw5R4QeLgqOWBGoTQH-277" value="" style="endArrow=none;html=1;rounded=0;strokeWidth=2;" parent="1" edge="1">
          <mxGeometry width="50" height="50" relative="1" as="geometry">
            <mxPoint x="2549" y="1650.15" as="sourcePoint" />
            <mxPoint x="2569" y="1650.15" as="targetPoint" />
          </mxGeometry>
        </mxCell>
        <mxCell id="0VXw5R4QeLgqOWBGoTQH-278" value="" style="endArrow=none;html=1;rounded=0;strokeWidth=2;" parent="1" edge="1">
          <mxGeometry width="50" height="50" relative="1" as="geometry">
            <mxPoint x="2554" y="1654.8900000000003" as="sourcePoint" />
            <mxPoint x="2564" y="1654.8900000000003" as="targetPoint" />
          </mxGeometry>
        </mxCell>
        <mxCell id="0VXw5R4QeLgqOWBGoTQH-279" style="edgeStyle=orthogonalEdgeStyle;rounded=0;orthogonalLoop=1;jettySize=auto;html=1;exitX=1;exitY=0.5;exitDx=0;exitDy=0;exitPerimeter=0;strokeWidth=2;endArrow=none;endFill=0;" parent="1" source="0VXw5R4QeLgqOWBGoTQH-280" edge="1">
          <mxGeometry relative="1" as="geometry">
            <mxPoint x="2559.241379310345" y="1650" as="targetPoint" />
          </mxGeometry>
        </mxCell>
        <mxCell id="0VXw5R4QeLgqOWBGoTQH-280" value="" style="pointerEvents=1;verticalLabelPosition=bottom;shadow=0;dashed=0;align=center;html=1;verticalAlign=top;shape=mxgraph.electrical.resistors.resistor_2;rotation=90;strokeWidth=2;" parent="1" vertex="1">
          <mxGeometry x="2509" y="1562.5" width="100" height="20" as="geometry" />
        </mxCell>
        <mxCell id="0VXw5R4QeLgqOWBGoTQH-281" style="edgeStyle=orthogonalEdgeStyle;rounded=0;orthogonalLoop=1;jettySize=auto;html=1;exitX=1;exitY=1;exitDx=0;exitDy=0;exitPerimeter=0;entryX=0;entryY=0.5;entryDx=0;entryDy=0;entryPerimeter=0;strokeWidth=2;endArrow=none;endFill=0;" parent="1" source="0VXw5R4QeLgqOWBGoTQH-276" target="0VXw5R4QeLgqOWBGoTQH-280" edge="1">
          <mxGeometry relative="1" as="geometry" />
        </mxCell>
        <mxCell id="0VXw5R4QeLgqOWBGoTQH-282" style="edgeStyle=orthogonalEdgeStyle;rounded=0;orthogonalLoop=1;jettySize=auto;html=1;exitX=0;exitY=0.5;exitDx=0;exitDy=0;exitPerimeter=0;strokeWidth=2;endArrow=none;endFill=0;" parent="1" source="0VXw5R4QeLgqOWBGoTQH-284" edge="1">
          <mxGeometry relative="1" as="geometry">
            <mxPoint x="2559" y="1210" as="targetPoint" />
          </mxGeometry>
        </mxCell>
        <mxCell id="0VXw5R4QeLgqOWBGoTQH-283" style="edgeStyle=orthogonalEdgeStyle;rounded=0;orthogonalLoop=1;jettySize=auto;html=1;exitX=1;exitY=0.5;exitDx=0;exitDy=0;exitPerimeter=0;strokeWidth=2;endArrow=none;endFill=0;" parent="1" source="0VXw5R4QeLgqOWBGoTQH-284" edge="1">
          <mxGeometry relative="1" as="geometry">
            <mxPoint x="2559" y="1390" as="targetPoint" />
          </mxGeometry>
        </mxCell>
        <mxCell id="0VXw5R4QeLgqOWBGoTQH-284" value="" style="pointerEvents=1;verticalLabelPosition=bottom;shadow=0;dashed=0;align=center;html=1;verticalAlign=top;shape=mxgraph.electrical.resistors.resistor_2;rotation=90;strokeWidth=2;" parent="1" vertex="1">
          <mxGeometry x="2509" y="1320" width="100" height="20" as="geometry" />
        </mxCell>
        <mxCell id="0VXw5R4QeLgqOWBGoTQH-285" style="edgeStyle=orthogonalEdgeStyle;rounded=0;orthogonalLoop=1;jettySize=auto;html=1;exitX=1;exitY=0.5;exitDx=0;exitDy=0;exitPerimeter=0;entryX=1;entryY=0;entryDx=0;entryDy=0;entryPerimeter=0;strokeWidth=2;endArrow=none;endFill=0;" parent="1" target="0VXw5R4QeLgqOWBGoTQH-276" edge="1">
          <mxGeometry relative="1" as="geometry">
            <mxPoint x="2559" y="1410" as="sourcePoint" />
          </mxGeometry>
        </mxCell>
        <mxCell id="0VXw5R4QeLgqOWBGoTQH-316" style="edgeStyle=orthogonalEdgeStyle;rounded=0;orthogonalLoop=1;jettySize=auto;html=1;exitX=0;exitY=0.5;exitDx=0;exitDy=0;exitPerimeter=0;strokeWidth=2;endArrow=none;endFill=0;" parent="1" source="0VXw5R4QeLgqOWBGoTQH-287" edge="1">
          <mxGeometry relative="1" as="geometry">
            <mxPoint x="2264" y="1500" as="targetPoint" />
          </mxGeometry>
        </mxCell>
        <mxCell id="0VXw5R4QeLgqOWBGoTQH-287" value="" style="pointerEvents=1;verticalLabelPosition=bottom;shadow=0;dashed=0;align=center;html=1;verticalAlign=top;shape=mxgraph.electrical.resistors.resistor_2;rotation=0;strokeWidth=2;" parent="1" vertex="1">
          <mxGeometry x="2294" y="1414.1999999999998" width="100" height="20" as="geometry" />
        </mxCell>
        <mxCell id="0VXw5R4QeLgqOWBGoTQH-321" style="edgeStyle=orthogonalEdgeStyle;rounded=0;orthogonalLoop=1;jettySize=auto;html=1;exitX=1;exitY=0.5;exitDx=0;exitDy=0;exitPerimeter=0;strokeWidth=2;endArrow=none;endFill=0;" parent="1" source="0VXw5R4QeLgqOWBGoTQH-289" edge="1">
          <mxGeometry relative="1" as="geometry">
            <mxPoint x="2474" y="1620" as="targetPoint" />
            <Array as="points">
              <mxPoint x="2414" y="1590" />
              <mxPoint x="2474" y="1590" />
            </Array>
          </mxGeometry>
        </mxCell>
        <mxCell id="0VXw5R4QeLgqOWBGoTQH-322" style="edgeStyle=orthogonalEdgeStyle;rounded=0;orthogonalLoop=1;jettySize=auto;html=1;exitX=1;exitY=0.5;exitDx=0;exitDy=0;exitPerimeter=0;strokeWidth=2;endArrow=none;endFill=0;" parent="1" source="0VXw5R4QeLgqOWBGoTQH-289" edge="1">
          <mxGeometry relative="1" as="geometry">
            <mxPoint x="2264" y="1510" as="targetPoint" />
            <Array as="points">
              <mxPoint x="2414" y="1610" />
              <mxPoint x="2264" y="1610" />
            </Array>
          </mxGeometry>
        </mxCell>
        <mxCell id="0VXw5R4QeLgqOWBGoTQH-289" value="" style="pointerEvents=1;verticalLabelPosition=bottom;shadow=0;dashed=0;align=center;html=1;verticalAlign=top;shape=mxgraph.electrical.resistors.resistor_2;rotation=90;strokeWidth=2;" parent="1" vertex="1">
          <mxGeometry x="2364" y="1517.5" width="100" height="20" as="geometry" />
        </mxCell>
        <mxCell id="0VXw5R4QeLgqOWBGoTQH-292" value="" style="endArrow=none;html=1;rounded=0;strokeWidth=2;" parent="1" edge="1">
          <mxGeometry width="50" height="50" relative="1" as="geometry">
            <mxPoint x="2549" y="1210" as="sourcePoint" />
            <mxPoint x="2569" y="1210" as="targetPoint" />
          </mxGeometry>
        </mxCell>
        <mxCell id="0VXw5R4QeLgqOWBGoTQH-294" value="" style="endArrow=none;html=1;rounded=0;strokeWidth=2;" parent="1" edge="1">
          <mxGeometry width="50" height="50" relative="1" as="geometry">
            <mxPoint x="2464" y="1620.3000000000002" as="sourcePoint" />
            <mxPoint x="2484" y="1620.15" as="targetPoint" />
          </mxGeometry>
        </mxCell>
        <mxCell id="0VXw5R4QeLgqOWBGoTQH-295" value="" style="endArrow=none;html=1;rounded=0;strokeWidth=2;" parent="1" edge="1">
          <mxGeometry width="50" height="50" relative="1" as="geometry">
            <mxPoint x="2469" y="1625.04" as="sourcePoint" />
            <mxPoint x="2479" y="1625.04" as="targetPoint" />
          </mxGeometry>
        </mxCell>
        <mxCell id="0VXw5R4QeLgqOWBGoTQH-296" value="$$V_{CC}=20V$$" style="text;html=1;align=center;verticalAlign=middle;whiteSpace=wrap;rounded=0;fontSize=16;" parent="1" vertex="1">
          <mxGeometry x="2529" y="1180" width="60" height="30" as="geometry" />
        </mxCell>
        <mxCell id="0VXw5R4QeLgqOWBGoTQH-297" value="$$R_1$$" style="text;html=1;align=center;verticalAlign=middle;whiteSpace=wrap;rounded=0;fontSize=16;" parent="1" vertex="1">
          <mxGeometry x="2278" y="1434.1999999999998" width="60" height="30" as="geometry" />
        </mxCell>
        <mxCell id="0VXw5R4QeLgqOWBGoTQH-298" value="$$R_2$$" style="text;html=1;align=center;verticalAlign=middle;whiteSpace=wrap;rounded=0;fontSize=16;" parent="1" vertex="1">
          <mxGeometry x="2354" y="1507.5" width="60" height="30" as="geometry" />
        </mxCell>
        <mxCell id="0VXw5R4QeLgqOWBGoTQH-299" value="$$R_E=10\Omega$$" style="text;html=1;align=center;verticalAlign=middle;whiteSpace=wrap;rounded=0;fontSize=16;" parent="1" vertex="1">
          <mxGeometry x="2592" y="1557.5" width="60" height="30" as="geometry" />
        </mxCell>
        <mxCell id="0VXw5R4QeLgqOWBGoTQH-300" value="$$R_C=100\Omega$$" style="text;html=1;align=center;verticalAlign=middle;whiteSpace=wrap;rounded=0;fontSize=16;" parent="1" vertex="1">
          <mxGeometry x="2592" y="1315" width="60" height="30" as="geometry" />
        </mxCell>
        <mxCell id="0VXw5R4QeLgqOWBGoTQH-303" style="edgeStyle=orthogonalEdgeStyle;rounded=0;orthogonalLoop=1;jettySize=auto;html=1;exitX=0.5;exitY=1;exitDx=0;exitDy=0;strokeWidth=2;endArrow=none;endFill=0;" parent="1" edge="1">
          <mxGeometry relative="1" as="geometry">
            <mxPoint x="2559" y="1410" as="targetPoint" />
            <mxPoint x="2559" y="1390" as="sourcePoint" />
          </mxGeometry>
        </mxCell>
        <mxCell id="0VXw5R4QeLgqOWBGoTQH-304" value="$$\beta=25$$" style="text;html=1;align=center;verticalAlign=middle;whiteSpace=wrap;rounded=0;fontSize=16;" parent="1" vertex="1">
          <mxGeometry x="2564" y="1450" width="60" height="30" as="geometry" />
        </mxCell>
        <mxCell id="0VXw5R4QeLgqOWBGoTQH-306" value="" style="endArrow=classic;html=1;rounded=0;" parent="1" edge="1">
          <mxGeometry width="50" height="50" relative="1" as="geometry">
            <mxPoint x="2452.58" y="1451.25" as="sourcePoint" />
            <mxPoint x="2509" y="1451.25" as="targetPoint" />
          </mxGeometry>
        </mxCell>
        <mxCell id="0VXw5R4QeLgqOWBGoTQH-307" value="$$I_B$$" style="text;html=1;align=center;verticalAlign=middle;whiteSpace=wrap;rounded=0;fontSize=16;" parent="1" vertex="1">
          <mxGeometry x="2449" y="1419.1999999999998" width="60" height="30" as="geometry" />
        </mxCell>
        <mxCell id="0VXw5R4QeLgqOWBGoTQH-309" value="$$V_{CC}=20V$$" style="text;html=1;align=center;verticalAlign=middle;whiteSpace=wrap;rounded=0;fontSize=16;" parent="1" vertex="1">
          <mxGeometry x="2294" y="1470" width="60" height="30" as="geometry" />
        </mxCell>
        <mxCell id="0VXw5R4QeLgqOWBGoTQH-312" value="" style="endArrow=none;html=1;rounded=0;strokeWidth=2;" parent="1" edge="1">
          <mxGeometry width="50" height="50" relative="1" as="geometry">
            <mxPoint x="2244" y="1500" as="sourcePoint" />
            <mxPoint x="2284" y="1500" as="targetPoint" />
          </mxGeometry>
        </mxCell>
        <mxCell id="0VXw5R4QeLgqOWBGoTQH-313" value="" style="endArrow=none;html=1;rounded=0;strokeWidth=2;" parent="1" edge="1">
          <mxGeometry width="50" height="50" relative="1" as="geometry">
            <mxPoint x="2254" y="1510" as="sourcePoint" />
            <mxPoint x="2274" y="1510" as="targetPoint" />
          </mxGeometry>
        </mxCell>
        <mxCell id="0VXw5R4QeLgqOWBGoTQH-315" style="edgeStyle=orthogonalEdgeStyle;rounded=0;orthogonalLoop=1;jettySize=auto;html=1;exitX=0;exitY=0.5;exitDx=0;exitDy=0;exitPerimeter=0;entryX=0;entryY=0.5;entryDx=0;entryDy=0;entryPerimeter=0;strokeWidth=2;endArrow=none;endFill=0;" parent="1" source="0VXw5R4QeLgqOWBGoTQH-289" target="0VXw5R4QeLgqOWBGoTQH-276" edge="1">
          <mxGeometry relative="1" as="geometry">
            <Array as="points">
              <mxPoint x="2434" y="1465" />
              <mxPoint x="2434" y="1465" />
            </Array>
          </mxGeometry>
        </mxCell>
        <mxCell id="0VXw5R4QeLgqOWBGoTQH-317" style="edgeStyle=orthogonalEdgeStyle;rounded=0;orthogonalLoop=1;jettySize=auto;html=1;exitX=1;exitY=0.5;exitDx=0;exitDy=0;exitPerimeter=0;entryX=0;entryY=0.5;entryDx=0;entryDy=0;entryPerimeter=0;strokeWidth=2;endArrow=none;endFill=0;" parent="1" source="0VXw5R4QeLgqOWBGoTQH-287" target="0VXw5R4QeLgqOWBGoTQH-289" edge="1">
          <mxGeometry relative="1" as="geometry" />
        </mxCell>
        <mxCell id="0VXw5R4QeLgqOWBGoTQH-325" value="" style="endArrow=none;html=1;rounded=0;strokeWidth=2;strokeColor=#ff9933;" parent="1" edge="1">
          <mxGeometry width="50" height="50" relative="1" as="geometry">
            <mxPoint x="2468" y="1400" as="sourcePoint" />
            <mxPoint x="2468" y="1380" as="targetPoint" />
          </mxGeometry>
        </mxCell>
        <mxCell id="0VXw5R4QeLgqOWBGoTQH-327" value="" style="endArrow=classic;html=1;rounded=0;endSize=10;strokeWidth=2;strokeColor=#ff9933;" parent="1" edge="1">
          <mxGeometry width="50" height="50" relative="1" as="geometry">
            <mxPoint x="2468" y="1380" as="sourcePoint" />
            <mxPoint x="2428" y="1380" as="targetPoint" />
          </mxGeometry>
        </mxCell>
        <mxCell id="0VXw5R4QeLgqOWBGoTQH-328" value="Thevenin&#39;s equivalent" style="text;html=1;align=center;verticalAlign=middle;whiteSpace=wrap;rounded=0;fontSize=17;fontColor=#ff9933;" parent="1" vertex="1">
          <mxGeometry x="2248" y="1365" width="180" height="30" as="geometry" />
        </mxCell>
        <mxCell id="0VXw5R4QeLgqOWBGoTQH-329" value="" style="shape=flexArrow;endArrow=classic;html=1;rounded=0;fillColor=default;strokeWidth=2;fontColor=#787878;strokeColor=#808080;" parent="1" edge="1">
          <mxGeometry width="50" height="50" relative="1" as="geometry">
            <mxPoint x="2624" y="1413.37" as="sourcePoint" />
            <mxPoint x="2734" y="1413.37" as="targetPoint" />
          </mxGeometry>
        </mxCell>
        <mxCell id="0VXw5R4QeLgqOWBGoTQH-330" value="" style="rounded=0;whiteSpace=wrap;html=1;fillColor=none;dashed=1;strokeWidth=2;strokeColor=#FF9933;" parent="1" vertex="1">
          <mxGeometry x="2796" y="1400" width="220" height="230" as="geometry" />
        </mxCell>
        <mxCell id="0VXw5R4QeLgqOWBGoTQH-331" value="" style="verticalLabelPosition=bottom;shadow=0;dashed=0;align=center;html=1;verticalAlign=top;shape=mxgraph.electrical.transistors.npn_transistor_5;strokeWidth=2;" parent="1" vertex="1">
          <mxGeometry x="3063" y="1415" width="64" height="100" as="geometry" />
        </mxCell>
        <mxCell id="0VXw5R4QeLgqOWBGoTQH-332" value="" style="endArrow=none;html=1;rounded=0;strokeWidth=2;" parent="1" edge="1">
          <mxGeometry width="50" height="50" relative="1" as="geometry">
            <mxPoint x="3117" y="1650.15" as="sourcePoint" />
            <mxPoint x="3137" y="1650.15" as="targetPoint" />
          </mxGeometry>
        </mxCell>
        <mxCell id="0VXw5R4QeLgqOWBGoTQH-333" value="" style="endArrow=none;html=1;rounded=0;strokeWidth=2;" parent="1" edge="1">
          <mxGeometry width="50" height="50" relative="1" as="geometry">
            <mxPoint x="3122" y="1654.8900000000003" as="sourcePoint" />
            <mxPoint x="3132" y="1654.8900000000003" as="targetPoint" />
          </mxGeometry>
        </mxCell>
        <mxCell id="0VXw5R4QeLgqOWBGoTQH-334" style="edgeStyle=orthogonalEdgeStyle;rounded=0;orthogonalLoop=1;jettySize=auto;html=1;exitX=1;exitY=0.5;exitDx=0;exitDy=0;exitPerimeter=0;strokeWidth=2;endArrow=none;endFill=0;" parent="1" source="0VXw5R4QeLgqOWBGoTQH-335" edge="1">
          <mxGeometry relative="1" as="geometry">
            <mxPoint x="3127.241379310345" y="1650" as="targetPoint" />
          </mxGeometry>
        </mxCell>
        <mxCell id="0VXw5R4QeLgqOWBGoTQH-335" value="" style="pointerEvents=1;verticalLabelPosition=bottom;shadow=0;dashed=0;align=center;html=1;verticalAlign=top;shape=mxgraph.electrical.resistors.resistor_2;rotation=90;strokeWidth=2;" parent="1" vertex="1">
          <mxGeometry x="3077" y="1562.5" width="100" height="20" as="geometry" />
        </mxCell>
        <mxCell id="0VXw5R4QeLgqOWBGoTQH-336" style="edgeStyle=orthogonalEdgeStyle;rounded=0;orthogonalLoop=1;jettySize=auto;html=1;exitX=1;exitY=1;exitDx=0;exitDy=0;exitPerimeter=0;entryX=0;entryY=0.5;entryDx=0;entryDy=0;entryPerimeter=0;strokeWidth=2;endArrow=none;endFill=0;" parent="1" source="0VXw5R4QeLgqOWBGoTQH-331" target="0VXw5R4QeLgqOWBGoTQH-335" edge="1">
          <mxGeometry relative="1" as="geometry" />
        </mxCell>
        <mxCell id="0VXw5R4QeLgqOWBGoTQH-337" style="edgeStyle=orthogonalEdgeStyle;rounded=0;orthogonalLoop=1;jettySize=auto;html=1;exitX=0;exitY=0.5;exitDx=0;exitDy=0;exitPerimeter=0;strokeWidth=2;endArrow=none;endFill=0;" parent="1" source="0VXw5R4QeLgqOWBGoTQH-339" edge="1">
          <mxGeometry relative="1" as="geometry">
            <mxPoint x="3127" y="1210" as="targetPoint" />
          </mxGeometry>
        </mxCell>
        <mxCell id="0VXw5R4QeLgqOWBGoTQH-338" style="edgeStyle=orthogonalEdgeStyle;rounded=0;orthogonalLoop=1;jettySize=auto;html=1;exitX=1;exitY=0.5;exitDx=0;exitDy=0;exitPerimeter=0;strokeWidth=2;endArrow=none;endFill=0;" parent="1" source="0VXw5R4QeLgqOWBGoTQH-339" edge="1">
          <mxGeometry relative="1" as="geometry">
            <mxPoint x="3127" y="1390" as="targetPoint" />
          </mxGeometry>
        </mxCell>
        <mxCell id="0VXw5R4QeLgqOWBGoTQH-339" value="" style="pointerEvents=1;verticalLabelPosition=bottom;shadow=0;dashed=0;align=center;html=1;verticalAlign=top;shape=mxgraph.electrical.resistors.resistor_2;rotation=90;strokeWidth=2;" parent="1" vertex="1">
          <mxGeometry x="3077" y="1320" width="100" height="20" as="geometry" />
        </mxCell>
        <mxCell id="0VXw5R4QeLgqOWBGoTQH-340" style="edgeStyle=orthogonalEdgeStyle;rounded=0;orthogonalLoop=1;jettySize=auto;html=1;exitX=1;exitY=0.5;exitDx=0;exitDy=0;exitPerimeter=0;entryX=1;entryY=0;entryDx=0;entryDy=0;entryPerimeter=0;strokeWidth=2;endArrow=none;endFill=0;" parent="1" target="0VXw5R4QeLgqOWBGoTQH-331" edge="1">
          <mxGeometry relative="1" as="geometry">
            <mxPoint x="3127" y="1410" as="sourcePoint" />
          </mxGeometry>
        </mxCell>
        <mxCell id="0VXw5R4QeLgqOWBGoTQH-341" style="edgeStyle=orthogonalEdgeStyle;rounded=0;orthogonalLoop=1;jettySize=auto;html=1;exitX=0;exitY=0.5;exitDx=0;exitDy=0;exitPerimeter=0;strokeWidth=2;endArrow=none;endFill=0;" parent="1" source="0VXw5R4QeLgqOWBGoTQH-342" edge="1">
          <mxGeometry relative="1" as="geometry">
            <mxPoint x="2832" y="1500" as="targetPoint" />
          </mxGeometry>
        </mxCell>
        <mxCell id="0VXw5R4QeLgqOWBGoTQH-342" value="" style="pointerEvents=1;verticalLabelPosition=bottom;shadow=0;dashed=0;align=center;html=1;verticalAlign=top;shape=mxgraph.electrical.resistors.resistor_2;rotation=0;strokeWidth=2;" parent="1" vertex="1">
          <mxGeometry x="2862" y="1414.1999999999998" width="100" height="20" as="geometry" />
        </mxCell>
        <mxCell id="0VXw5R4QeLgqOWBGoTQH-343" style="edgeStyle=orthogonalEdgeStyle;rounded=0;orthogonalLoop=1;jettySize=auto;html=1;strokeWidth=2;endArrow=none;endFill=0;" parent="1" edge="1">
          <mxGeometry relative="1" as="geometry">
            <mxPoint x="3042" y="1620" as="targetPoint" />
            <Array as="points">
              <mxPoint x="2982" y="1590" />
              <mxPoint x="3042" y="1590" />
            </Array>
            <mxPoint x="2982" y="1590" as="sourcePoint" />
          </mxGeometry>
        </mxCell>
        <mxCell id="0VXw5R4QeLgqOWBGoTQH-344" style="edgeStyle=orthogonalEdgeStyle;rounded=0;orthogonalLoop=1;jettySize=auto;html=1;strokeWidth=2;endArrow=none;endFill=0;" parent="1" edge="1">
          <mxGeometry relative="1" as="geometry">
            <mxPoint x="2832" y="1510" as="targetPoint" />
            <Array as="points">
              <mxPoint x="2982" y="1590" />
              <mxPoint x="2832" y="1590" />
            </Array>
            <mxPoint x="2982" y="1590" as="sourcePoint" />
          </mxGeometry>
        </mxCell>
        <mxCell id="0VXw5R4QeLgqOWBGoTQH-346" value="" style="endArrow=none;html=1;rounded=0;strokeWidth=2;" parent="1" edge="1">
          <mxGeometry width="50" height="50" relative="1" as="geometry">
            <mxPoint x="3117" y="1210" as="sourcePoint" />
            <mxPoint x="3137" y="1210" as="targetPoint" />
          </mxGeometry>
        </mxCell>
        <mxCell id="0VXw5R4QeLgqOWBGoTQH-347" value="" style="endArrow=none;html=1;rounded=0;strokeWidth=2;" parent="1" edge="1">
          <mxGeometry width="50" height="50" relative="1" as="geometry">
            <mxPoint x="3032" y="1620.3000000000002" as="sourcePoint" />
            <mxPoint x="3052" y="1620.15" as="targetPoint" />
          </mxGeometry>
        </mxCell>
        <mxCell id="0VXw5R4QeLgqOWBGoTQH-348" value="" style="endArrow=none;html=1;rounded=0;strokeWidth=2;" parent="1" edge="1">
          <mxGeometry width="50" height="50" relative="1" as="geometry">
            <mxPoint x="3037" y="1625.04" as="sourcePoint" />
            <mxPoint x="3047" y="1625.04" as="targetPoint" />
          </mxGeometry>
        </mxCell>
        <mxCell id="0VXw5R4QeLgqOWBGoTQH-349" value="$$V_{CC}=20V$$" style="text;html=1;align=center;verticalAlign=middle;whiteSpace=wrap;rounded=0;fontSize=16;" parent="1" vertex="1">
          <mxGeometry x="3097" y="1180" width="60" height="30" as="geometry" />
        </mxCell>
        <mxCell id="0VXw5R4QeLgqOWBGoTQH-350" value="$$R_1//R_2$$" style="text;html=1;align=center;verticalAlign=middle;whiteSpace=wrap;rounded=0;fontSize=16;" parent="1" vertex="1">
          <mxGeometry x="2882" y="1439.9999999999998" width="60" height="30" as="geometry" />
        </mxCell>
        <mxCell id="0VXw5R4QeLgqOWBGoTQH-352" value="$$R_E=10\Omega$$" style="text;html=1;align=center;verticalAlign=middle;whiteSpace=wrap;rounded=0;fontSize=16;" parent="1" vertex="1">
          <mxGeometry x="3160" y="1557.5" width="60" height="30" as="geometry" />
        </mxCell>
        <mxCell id="0VXw5R4QeLgqOWBGoTQH-353" value="$$R_C=100\Omega$$" style="text;html=1;align=center;verticalAlign=middle;whiteSpace=wrap;rounded=0;fontSize=16;" parent="1" vertex="1">
          <mxGeometry x="3160" y="1315" width="60" height="30" as="geometry" />
        </mxCell>
        <mxCell id="0VXw5R4QeLgqOWBGoTQH-354" style="edgeStyle=orthogonalEdgeStyle;rounded=0;orthogonalLoop=1;jettySize=auto;html=1;exitX=0.5;exitY=1;exitDx=0;exitDy=0;strokeWidth=2;endArrow=none;endFill=0;" parent="1" edge="1">
          <mxGeometry relative="1" as="geometry">
            <mxPoint x="3127" y="1410" as="targetPoint" />
            <mxPoint x="3127" y="1390" as="sourcePoint" />
          </mxGeometry>
        </mxCell>
        <mxCell id="0VXw5R4QeLgqOWBGoTQH-355" value="$$\beta=25$$" style="text;html=1;align=center;verticalAlign=middle;whiteSpace=wrap;rounded=0;fontSize=16;" parent="1" vertex="1">
          <mxGeometry x="3132" y="1450" width="60" height="30" as="geometry" />
        </mxCell>
        <mxCell id="0VXw5R4QeLgqOWBGoTQH-356" value="" style="endArrow=classic;html=1;rounded=0;" parent="1" edge="1">
          <mxGeometry width="50" height="50" relative="1" as="geometry">
            <mxPoint x="3020.58" y="1451.25" as="sourcePoint" />
            <mxPoint x="3077" y="1451.25" as="targetPoint" />
          </mxGeometry>
        </mxCell>
        <mxCell id="0VXw5R4QeLgqOWBGoTQH-357" value="$$I_B$$" style="text;html=1;align=center;verticalAlign=middle;whiteSpace=wrap;rounded=0;fontSize=16;" parent="1" vertex="1">
          <mxGeometry x="3017" y="1419.1999999999998" width="60" height="30" as="geometry" />
        </mxCell>
        <mxCell id="0VXw5R4QeLgqOWBGoTQH-358" value="$$V_{TH}=\frac{R_2}{R_1+R_2}V_{CC}$$" style="text;html=1;align=center;verticalAlign=middle;whiteSpace=wrap;rounded=0;fontSize=16;" parent="1" vertex="1">
          <mxGeometry x="2898" y="1512.5" width="60" height="30" as="geometry" />
        </mxCell>
        <mxCell id="0VXw5R4QeLgqOWBGoTQH-359" value="" style="endArrow=none;html=1;rounded=0;strokeWidth=2;" parent="1" edge="1">
          <mxGeometry width="50" height="50" relative="1" as="geometry">
            <mxPoint x="2812" y="1500" as="sourcePoint" />
            <mxPoint x="2852" y="1500" as="targetPoint" />
          </mxGeometry>
        </mxCell>
        <mxCell id="0VXw5R4QeLgqOWBGoTQH-360" value="" style="endArrow=none;html=1;rounded=0;strokeWidth=2;" parent="1" edge="1">
          <mxGeometry width="50" height="50" relative="1" as="geometry">
            <mxPoint x="2822" y="1510" as="sourcePoint" />
            <mxPoint x="2842" y="1510" as="targetPoint" />
          </mxGeometry>
        </mxCell>
        <mxCell id="0VXw5R4QeLgqOWBGoTQH-361" style="edgeStyle=orthogonalEdgeStyle;rounded=0;orthogonalLoop=1;jettySize=auto;html=1;exitX=1;exitY=0.5;exitDx=0;exitDy=0;exitPerimeter=0;entryX=0;entryY=0.5;entryDx=0;entryDy=0;entryPerimeter=0;strokeWidth=2;endArrow=none;endFill=0;" parent="1" source="0VXw5R4QeLgqOWBGoTQH-342" edge="1">
          <mxGeometry relative="1" as="geometry">
            <Array as="points">
              <mxPoint x="2988" y="1424" />
              <mxPoint x="2988" y="1465" />
            </Array>
            <mxPoint x="2982.5" y="1477.5" as="sourcePoint" />
            <mxPoint x="3063.181818181818" y="1465" as="targetPoint" />
          </mxGeometry>
        </mxCell>
        <mxCell id="0VXw5R4QeLgqOWBGoTQH-363" value="" style="endArrow=none;html=1;rounded=0;strokeWidth=2;strokeColor=#ff9933;" parent="1" edge="1">
          <mxGeometry width="50" height="50" relative="1" as="geometry">
            <mxPoint x="3036" y="1400" as="sourcePoint" />
            <mxPoint x="3036" y="1380" as="targetPoint" />
          </mxGeometry>
        </mxCell>
        <mxCell id="0VXw5R4QeLgqOWBGoTQH-364" value="" style="endArrow=classic;html=1;rounded=0;endSize=10;strokeWidth=2;strokeColor=#ff9933;" parent="1" edge="1">
          <mxGeometry width="50" height="50" relative="1" as="geometry">
            <mxPoint x="3036" y="1380" as="sourcePoint" />
            <mxPoint x="2996" y="1380" as="targetPoint" />
          </mxGeometry>
        </mxCell>
        <mxCell id="0VXw5R4QeLgqOWBGoTQH-365" value="Thevenin&#39;s equivalent" style="text;html=1;align=center;verticalAlign=middle;whiteSpace=wrap;rounded=0;fontSize=17;fontColor=#ff9933;" parent="1" vertex="1">
          <mxGeometry x="2816" y="1365" width="180" height="30" as="geometry" />
        </mxCell>
        <mxCell id="0VXw5R4QeLgqOWBGoTQH-370" style="edgeStyle=orthogonalEdgeStyle;rounded=0;orthogonalLoop=1;jettySize=auto;html=1;exitX=0.5;exitY=1;exitDx=0;exitDy=0;exitPerimeter=0;endArrow=none;endFill=0;strokeWidth=2;" parent="1" source="0VXw5R4QeLgqOWBGoTQH-371" edge="1">
          <mxGeometry relative="1" as="geometry">
            <mxPoint x="3405" y="1313.9300000000003" as="targetPoint" />
          </mxGeometry>
        </mxCell>
        <mxCell id="0VXw5R4QeLgqOWBGoTQH-371" value="" style="pointerEvents=1;verticalLabelPosition=bottom;shadow=0;dashed=0;align=center;html=1;verticalAlign=top;shape=mxgraph.electrical.signal_sources.source;aspect=fixed;points=[[0.5,0,0],[1,0.5,0],[0.5,1,0],[0,0.5,0]];elSignalType=ac;strokeWidth=2;" parent="1" vertex="1">
          <mxGeometry x="3385" y="1189.9300000000003" width="40" height="40" as="geometry" />
        </mxCell>
        <mxCell id="0VXw5R4QeLgqOWBGoTQH-372" value="" style="endArrow=none;html=1;rounded=0;strokeWidth=2;" parent="1" edge="1">
          <mxGeometry width="50" height="50" relative="1" as="geometry">
            <mxPoint x="3395" y="1313.0800000000004" as="sourcePoint" />
            <mxPoint x="3415" y="1312.9300000000003" as="targetPoint" />
          </mxGeometry>
        </mxCell>
        <mxCell id="0VXw5R4QeLgqOWBGoTQH-513" style="edgeStyle=orthogonalEdgeStyle;rounded=0;orthogonalLoop=1;jettySize=auto;html=1;exitX=1;exitY=0.5;exitDx=0;exitDy=0;exitPerimeter=0;strokeWidth=2;endArrow=none;endFill=0;" parent="1" source="0VXw5R4QeLgqOWBGoTQH-375" edge="1">
          <mxGeometry relative="1" as="geometry">
            <mxPoint x="3829" y="1313.9300000000003" as="targetPoint" />
          </mxGeometry>
        </mxCell>
        <mxCell id="0VXw5R4QeLgqOWBGoTQH-375" value="" style="pointerEvents=1;verticalLabelPosition=bottom;shadow=0;dashed=0;align=center;html=1;verticalAlign=top;shape=mxgraph.electrical.resistors.resistor_2;rotation=90;strokeWidth=2;" parent="1" vertex="1">
          <mxGeometry x="3779" y="1199.9300000000003" width="100" height="20" as="geometry" />
        </mxCell>
        <mxCell id="0VXw5R4QeLgqOWBGoTQH-377" value="" style="endArrow=none;html=1;rounded=0;strokeWidth=2;" parent="1" edge="1">
          <mxGeometry width="50" height="50" relative="1" as="geometry">
            <mxPoint x="3819" y="1314.0800000000004" as="sourcePoint" />
            <mxPoint x="3839" y="1314.0800000000004" as="targetPoint" />
          </mxGeometry>
        </mxCell>
        <mxCell id="0VXw5R4QeLgqOWBGoTQH-378" value="" style="endArrow=none;html=1;rounded=0;strokeWidth=2;" parent="1" edge="1">
          <mxGeometry width="50" height="50" relative="1" as="geometry">
            <mxPoint x="3400" y="1317.8200000000006" as="sourcePoint" />
            <mxPoint x="3410" y="1317.8200000000006" as="targetPoint" />
          </mxGeometry>
        </mxCell>
        <mxCell id="0VXw5R4QeLgqOWBGoTQH-380" value="" style="endArrow=none;html=1;rounded=0;strokeWidth=2;" parent="1" edge="1">
          <mxGeometry width="50" height="50" relative="1" as="geometry">
            <mxPoint x="3824" y="1318.8200000000006" as="sourcePoint" />
            <mxPoint x="3834" y="1318.8200000000006" as="targetPoint" />
          </mxGeometry>
        </mxCell>
        <mxCell id="0VXw5R4QeLgqOWBGoTQH-381" value="$$R_C//R_L$$" style="text;html=1;align=center;verticalAlign=middle;whiteSpace=wrap;rounded=0;fontSize=16;" parent="1" vertex="1">
          <mxGeometry x="3852" y="1194.9300000000003" width="60" height="30" as="geometry" />
        </mxCell>
        <mxCell id="0VXw5R4QeLgqOWBGoTQH-382" value="$$v_i$$" style="text;html=1;align=center;verticalAlign=middle;whiteSpace=wrap;rounded=0;fontSize=16;" parent="1" vertex="1">
          <mxGeometry x="3415" y="1194.9300000000003" width="60" height="30" as="geometry" />
        </mxCell>
        <mxCell id="0VXw5R4QeLgqOWBGoTQH-383" value="+" style="text;html=1;align=center;verticalAlign=middle;whiteSpace=wrap;rounded=0;fontSize=16;" parent="1" vertex="1">
          <mxGeometry x="3415" y="1159.9300000000003" width="60" height="30" as="geometry" />
        </mxCell>
        <mxCell id="0VXw5R4QeLgqOWBGoTQH-384" value="-" style="text;html=1;align=center;verticalAlign=middle;whiteSpace=wrap;rounded=0;fontSize=16;" parent="1" vertex="1">
          <mxGeometry x="3415" y="1234.9300000000003" width="60" height="30" as="geometry" />
        </mxCell>
        <mxCell id="0VXw5R4QeLgqOWBGoTQH-512" style="edgeStyle=orthogonalEdgeStyle;rounded=0;orthogonalLoop=1;jettySize=auto;html=1;exitX=1;exitY=0.5;exitDx=0;exitDy=0;exitPerimeter=0;strokeWidth=2;endArrow=none;endFill=0;" parent="1" source="0VXw5R4QeLgqOWBGoTQH-398" edge="1">
          <mxGeometry relative="1" as="geometry">
            <mxPoint x="3563.241379310345" y="1313.9300000000003" as="targetPoint" />
          </mxGeometry>
        </mxCell>
        <mxCell id="0VXw5R4QeLgqOWBGoTQH-398" value="" style="pointerEvents=1;verticalLabelPosition=bottom;shadow=0;dashed=0;align=center;html=1;verticalAlign=top;shape=mxgraph.electrical.resistors.resistor_2;rotation=90;strokeWidth=2;" parent="1" vertex="1">
          <mxGeometry x="3513" y="1199.9300000000003" width="100" height="20" as="geometry" />
        </mxCell>
        <mxCell id="0VXw5R4QeLgqOWBGoTQH-406" value="" style="endArrow=none;html=1;rounded=0;strokeWidth=2;" parent="1" edge="1">
          <mxGeometry width="50" height="50" relative="1" as="geometry">
            <mxPoint x="3553" y="1313.7300000000005" as="sourcePoint" />
            <mxPoint x="3573" y="1313.5800000000004" as="targetPoint" />
          </mxGeometry>
        </mxCell>
        <mxCell id="0VXw5R4QeLgqOWBGoTQH-407" value="" style="endArrow=none;html=1;rounded=0;strokeWidth=2;" parent="1" edge="1">
          <mxGeometry width="50" height="50" relative="1" as="geometry">
            <mxPoint x="3558" y="1318.4700000000003" as="sourcePoint" />
            <mxPoint x="3568" y="1318.4700000000003" as="targetPoint" />
          </mxGeometry>
        </mxCell>
        <mxCell id="0VXw5R4QeLgqOWBGoTQH-408" value="$$R_1//R_2$$" style="text;html=1;align=center;verticalAlign=middle;whiteSpace=wrap;rounded=0;fontSize=16;" parent="1" vertex="1">
          <mxGeometry x="3483" y="1194.9300000000003" width="60" height="30" as="geometry" />
        </mxCell>
        <mxCell id="0VXw5R4QeLgqOWBGoTQH-503" value="" style="pointerEvents=1;verticalLabelPosition=bottom;shadow=0;dashed=0;align=center;html=1;verticalAlign=top;shape=mxgraph.electrical.signal_sources.source;aspect=fixed;points=[[0.5,0,0],[1,0.5,0],[0.5,1,0],[0,0.5,0]];elSignalType=dc2;elSourceType=dependent;strokeWidth=2;" parent="1" vertex="1">
          <mxGeometry x="3709" y="1179.9300000000003" width="60" height="60" as="geometry" />
        </mxCell>
        <mxCell id="0VXw5R4QeLgqOWBGoTQH-504" value="" style="pointerEvents=1;verticalLabelPosition=bottom;shadow=0;dashed=0;align=center;html=1;verticalAlign=top;shape=mxgraph.electrical.resistors.resistor_2;rotation=-90;strokeWidth=2;" parent="1" vertex="1">
          <mxGeometry x="3593" y="1199.9300000000003" width="100" height="20" as="geometry" />
        </mxCell>
        <mxCell id="0VXw5R4QeLgqOWBGoTQH-509" style="edgeStyle=orthogonalEdgeStyle;rounded=0;orthogonalLoop=1;jettySize=auto;html=1;exitX=0.5;exitY=0;exitDx=0;exitDy=0;exitPerimeter=0;entryX=0;entryY=0.5;entryDx=0;entryDy=0;entryPerimeter=0;strokeWidth=2;endArrow=none;endFill=0;" parent="1" source="0VXw5R4QeLgqOWBGoTQH-371" target="0VXw5R4QeLgqOWBGoTQH-398" edge="1">
          <mxGeometry relative="1" as="geometry">
            <Array as="points">
              <mxPoint x="3405" y="1123.9300000000003" />
              <mxPoint x="3563" y="1123.9300000000003" />
            </Array>
          </mxGeometry>
        </mxCell>
        <mxCell id="0VXw5R4QeLgqOWBGoTQH-510" style="edgeStyle=orthogonalEdgeStyle;rounded=0;orthogonalLoop=1;jettySize=auto;html=1;exitX=1;exitY=0.5;exitDx=0;exitDy=0;exitPerimeter=0;entryX=0;entryY=0.5;entryDx=0;entryDy=0;entryPerimeter=0;strokeWidth=2;endArrow=none;endFill=0;" parent="1" source="0VXw5R4QeLgqOWBGoTQH-504" target="0VXw5R4QeLgqOWBGoTQH-398" edge="1">
          <mxGeometry relative="1" as="geometry">
            <Array as="points">
              <mxPoint x="3643" y="1123.9300000000003" />
              <mxPoint x="3563" y="1123.9300000000003" />
            </Array>
          </mxGeometry>
        </mxCell>
        <mxCell id="0VXw5R4QeLgqOWBGoTQH-511" style="edgeStyle=orthogonalEdgeStyle;rounded=0;orthogonalLoop=1;jettySize=auto;html=1;exitX=0;exitY=0.5;exitDx=0;exitDy=0;exitPerimeter=0;entryX=0.5;entryY=0;entryDx=0;entryDy=0;entryPerimeter=0;strokeWidth=2;endArrow=none;endFill=0;" parent="1" source="0VXw5R4QeLgqOWBGoTQH-375" target="0VXw5R4QeLgqOWBGoTQH-503" edge="1">
          <mxGeometry relative="1" as="geometry">
            <Array as="points">
              <mxPoint x="3829" y="1123.9300000000003" />
              <mxPoint x="3739" y="1123.9300000000003" />
            </Array>
          </mxGeometry>
        </mxCell>
        <mxCell id="0VXw5R4QeLgqOWBGoTQH-515" style="edgeStyle=orthogonalEdgeStyle;rounded=0;orthogonalLoop=1;jettySize=auto;html=1;exitX=1;exitY=0.5;exitDx=0;exitDy=0;exitPerimeter=0;entryX=0;entryY=0.5;entryDx=0;entryDy=0;entryPerimeter=0;strokeWidth=2;endArrow=none;endFill=0;" parent="1" source="0VXw5R4QeLgqOWBGoTQH-398" target="0VXw5R4QeLgqOWBGoTQH-504" edge="1">
          <mxGeometry relative="1" as="geometry">
            <Array as="points">
              <mxPoint x="3563" y="1283.9300000000003" />
              <mxPoint x="3643" y="1283.9300000000003" />
            </Array>
          </mxGeometry>
        </mxCell>
        <mxCell id="0VXw5R4QeLgqOWBGoTQH-516" style="edgeStyle=orthogonalEdgeStyle;rounded=0;orthogonalLoop=1;jettySize=auto;html=1;exitX=0.5;exitY=1;exitDx=0;exitDy=0;exitPerimeter=0;entryX=1;entryY=0.5;entryDx=0;entryDy=0;entryPerimeter=0;strokeWidth=2;endArrow=none;endFill=0;" parent="1" source="0VXw5R4QeLgqOWBGoTQH-503" target="0VXw5R4QeLgqOWBGoTQH-375" edge="1">
          <mxGeometry relative="1" as="geometry">
            <Array as="points">
              <mxPoint x="3739" y="1283.9300000000003" />
              <mxPoint x="3829" y="1283.9300000000003" />
            </Array>
          </mxGeometry>
        </mxCell>
        <mxCell id="0VXw5R4QeLgqOWBGoTQH-517" value="$$r_{\pi}$$" style="text;html=1;align=center;verticalAlign=middle;whiteSpace=wrap;rounded=0;fontSize=16;" parent="1" vertex="1">
          <mxGeometry x="3578" y="1189.9300000000003" width="70" height="30" as="geometry" />
        </mxCell>
        <mxCell id="0VXw5R4QeLgqOWBGoTQH-518" value="+" style="text;html=1;align=center;verticalAlign=middle;whiteSpace=wrap;rounded=0;fontSize=18;" parent="1" vertex="1">
          <mxGeometry x="3671" y="1161.4300000000003" width="10" height="11" as="geometry" />
        </mxCell>
        <mxCell id="0VXw5R4QeLgqOWBGoTQH-519" value="-" style="text;html=1;align=center;verticalAlign=middle;whiteSpace=wrap;rounded=0;fontSize=18;" parent="1" vertex="1">
          <mxGeometry x="3671" y="1237.4300000000003" width="10" height="11" as="geometry" />
        </mxCell>
        <mxCell id="0VXw5R4QeLgqOWBGoTQH-520" value="$$v_{1}$$" style="text;html=1;align=center;verticalAlign=middle;whiteSpace=wrap;rounded=0;fontSize=16;" parent="1" vertex="1">
          <mxGeometry x="3663" y="1189.4300000000003" width="26" height="30" as="geometry" />
        </mxCell>
        <mxCell id="0VXw5R4QeLgqOWBGoTQH-521" value="$$g_mv_{1}$$" style="text;html=1;align=center;verticalAlign=middle;whiteSpace=wrap;rounded=0;fontSize=16;" parent="1" vertex="1">
          <mxGeometry x="3767" y="1224.9300000000003" width="26" height="30" as="geometry" />
        </mxCell>
        <mxCell id="KkJVHoqy8BTquRj1_7dG-1" style="edgeStyle=orthogonalEdgeStyle;rounded=0;orthogonalLoop=1;jettySize=auto;html=1;exitX=0.5;exitY=1;exitDx=0;exitDy=0;exitPerimeter=0;endArrow=none;endFill=0;strokeWidth=2;" parent="1" source="KkJVHoqy8BTquRj1_7dG-2" edge="1">
          <mxGeometry relative="1" as="geometry">
            <mxPoint x="1260" y="2180" as="targetPoint" />
          </mxGeometry>
        </mxCell>
        <mxCell id="KkJVHoqy8BTquRj1_7dG-2" value="" style="pointerEvents=1;verticalLabelPosition=bottom;shadow=0;dashed=0;align=center;html=1;verticalAlign=top;shape=mxgraph.electrical.signal_sources.source;aspect=fixed;points=[[0.5,0,0],[1,0.5,0],[0.5,1,0],[0,0.5,0]];elSignalType=ac;strokeWidth=2;" parent="1" vertex="1">
          <mxGeometry x="1240" y="2090" width="40" height="40" as="geometry" />
        </mxCell>
        <mxCell id="KkJVHoqy8BTquRj1_7dG-3" value="" style="endArrow=none;html=1;rounded=0;strokeWidth=2;" parent="1" edge="1">
          <mxGeometry width="50" height="50" relative="1" as="geometry">
            <mxPoint x="1250" y="2180.15" as="sourcePoint" />
            <mxPoint x="1270" y="2180" as="targetPoint" />
          </mxGeometry>
        </mxCell>
        <mxCell id="KkJVHoqy8BTquRj1_7dG-4" value="" style="verticalLabelPosition=bottom;shadow=0;dashed=0;align=center;html=1;verticalAlign=top;shape=mxgraph.electrical.transistors.npn_transistor_5;strokeWidth=2;" parent="1" vertex="1">
          <mxGeometry x="1416" y="1995" width="64" height="100" as="geometry" />
        </mxCell>
        <mxCell id="KkJVHoqy8BTquRj1_7dG-60" style="edgeStyle=orthogonalEdgeStyle;rounded=0;orthogonalLoop=1;jettySize=auto;html=1;exitX=1;exitY=0.5;exitDx=0;exitDy=0;exitPerimeter=0;strokeWidth=2;endArrow=none;endFill=0;" parent="1" source="KkJVHoqy8BTquRj1_7dG-6" edge="1">
          <mxGeometry relative="1" as="geometry">
            <mxPoint x="1629.857142857143" y="2140" as="targetPoint" />
          </mxGeometry>
        </mxCell>
        <mxCell id="KkJVHoqy8BTquRj1_7dG-6" value="" style="pointerEvents=1;verticalLabelPosition=bottom;shadow=0;dashed=0;align=center;html=1;verticalAlign=top;shape=mxgraph.electrical.resistors.resistor_2;rotation=90;strokeWidth=2;" parent="1" vertex="1">
          <mxGeometry x="1580" y="2040" width="100" height="20" as="geometry" />
        </mxCell>
        <mxCell id="KkJVHoqy8BTquRj1_7dG-7" value="" style="endArrow=none;html=1;rounded=0;strokeWidth=2;" parent="1" edge="1">
          <mxGeometry width="50" height="50" relative="1" as="geometry">
            <mxPoint x="1470" y="2130" as="sourcePoint" />
            <mxPoint x="1490" y="2130" as="targetPoint" />
          </mxGeometry>
        </mxCell>
        <mxCell id="KkJVHoqy8BTquRj1_7dG-8" value="" style="endArrow=none;html=1;rounded=0;strokeWidth=2;" parent="1" edge="1">
          <mxGeometry width="50" height="50" relative="1" as="geometry">
            <mxPoint x="1620" y="2140" as="sourcePoint" />
            <mxPoint x="1640" y="2140" as="targetPoint" />
          </mxGeometry>
        </mxCell>
        <mxCell id="KkJVHoqy8BTquRj1_7dG-9" value="" style="endArrow=none;html=1;rounded=0;strokeWidth=2;" parent="1" edge="1">
          <mxGeometry width="50" height="50" relative="1" as="geometry">
            <mxPoint x="1255" y="2184.8900000000003" as="sourcePoint" />
            <mxPoint x="1265" y="2184.8900000000003" as="targetPoint" />
          </mxGeometry>
        </mxCell>
        <mxCell id="KkJVHoqy8BTquRj1_7dG-10" value="" style="endArrow=none;html=1;rounded=0;strokeWidth=2;" parent="1" edge="1">
          <mxGeometry width="50" height="50" relative="1" as="geometry">
            <mxPoint x="1475" y="2134.7400000000002" as="sourcePoint" />
            <mxPoint x="1485" y="2134.7400000000002" as="targetPoint" />
          </mxGeometry>
        </mxCell>
        <mxCell id="KkJVHoqy8BTquRj1_7dG-11" value="" style="endArrow=none;html=1;rounded=0;strokeWidth=2;" parent="1" edge="1">
          <mxGeometry width="50" height="50" relative="1" as="geometry">
            <mxPoint x="1625" y="2144.7400000000002" as="sourcePoint" />
            <mxPoint x="1635" y="2144.7400000000002" as="targetPoint" />
          </mxGeometry>
        </mxCell>
        <mxCell id="KkJVHoqy8BTquRj1_7dG-12" value="$$R_L=100\Omega$$" style="text;html=1;align=center;verticalAlign=middle;whiteSpace=wrap;rounded=0;fontSize=16;" parent="1" vertex="1">
          <mxGeometry x="1530" y="2035" width="60" height="30" as="geometry" />
        </mxCell>
        <mxCell id="KkJVHoqy8BTquRj1_7dG-13" value="$$v_i$$" style="text;html=1;align=center;verticalAlign=middle;whiteSpace=wrap;rounded=0;fontSize=16;" parent="1" vertex="1">
          <mxGeometry x="1290" y="2092.5" width="20" height="30" as="geometry" />
        </mxCell>
        <mxCell id="KkJVHoqy8BTquRj1_7dG-14" value="+" style="text;html=1;align=center;verticalAlign=middle;whiteSpace=wrap;rounded=0;fontSize=16;" parent="1" vertex="1">
          <mxGeometry x="1290" y="2062.5" width="20" height="30" as="geometry" />
        </mxCell>
        <mxCell id="KkJVHoqy8BTquRj1_7dG-15" value="-" style="text;html=1;align=center;verticalAlign=middle;whiteSpace=wrap;rounded=0;fontSize=16;" parent="1" vertex="1">
          <mxGeometry x="1290" y="2122.5" width="20" height="30" as="geometry" />
        </mxCell>
        <mxCell id="KkJVHoqy8BTquRj1_7dG-16" value="$$v_o$$" style="text;html=1;align=center;verticalAlign=middle;whiteSpace=wrap;rounded=0;fontSize=16;" parent="1" vertex="1">
          <mxGeometry x="1648.5" y="2032.5" width="23" height="30" as="geometry" />
        </mxCell>
        <mxCell id="KkJVHoqy8BTquRj1_7dG-17" value="+" style="text;html=1;align=center;verticalAlign=middle;whiteSpace=wrap;rounded=0;fontSize=16;" parent="1" vertex="1">
          <mxGeometry x="1653.5" y="2000" width="13" height="17.5" as="geometry" />
        </mxCell>
        <mxCell id="KkJVHoqy8BTquRj1_7dG-18" value="-" style="text;html=1;align=center;verticalAlign=middle;whiteSpace=wrap;rounded=0;fontSize=16;" parent="1" vertex="1">
          <mxGeometry x="1653.5" y="2077.5" width="13" height="12.5" as="geometry" />
        </mxCell>
        <mxCell id="KkJVHoqy8BTquRj1_7dG-19" value="" style="pointerEvents=1;verticalLabelPosition=bottom;shadow=0;dashed=0;align=center;html=1;verticalAlign=top;shape=mxgraph.electrical.capacitors.capacitor_1;strokeWidth=2;rotation=-180;" parent="1" vertex="1">
          <mxGeometry x="1271" y="2030" width="100" height="30" as="geometry" />
        </mxCell>
        <mxCell id="KkJVHoqy8BTquRj1_7dG-22" style="edgeStyle=orthogonalEdgeStyle;rounded=0;orthogonalLoop=1;jettySize=auto;html=1;exitX=1;exitY=1;exitDx=0;exitDy=0;exitPerimeter=0;strokeWidth=2;endArrow=none;endFill=0;" parent="1" source="KkJVHoqy8BTquRj1_7dG-4" edge="1">
          <mxGeometry relative="1" as="geometry">
            <mxPoint x="1480" y="2130" as="targetPoint" />
          </mxGeometry>
        </mxCell>
        <mxCell id="KkJVHoqy8BTquRj1_7dG-23" style="edgeStyle=orthogonalEdgeStyle;rounded=0;orthogonalLoop=1;jettySize=auto;html=1;exitX=0;exitY=0.5;exitDx=0;exitDy=0;exitPerimeter=0;strokeWidth=2;endArrow=none;endFill=0;" parent="1" source="KkJVHoqy8BTquRj1_7dG-25" edge="1">
          <mxGeometry relative="1" as="geometry">
            <mxPoint x="1480" y="1790" as="targetPoint" />
          </mxGeometry>
        </mxCell>
        <mxCell id="KkJVHoqy8BTquRj1_7dG-24" style="edgeStyle=orthogonalEdgeStyle;rounded=0;orthogonalLoop=1;jettySize=auto;html=1;exitX=1;exitY=0.5;exitDx=0;exitDy=0;exitPerimeter=0;strokeWidth=2;endArrow=none;endFill=0;" parent="1" source="KkJVHoqy8BTquRj1_7dG-25" edge="1">
          <mxGeometry relative="1" as="geometry">
            <mxPoint x="1480" y="1970" as="targetPoint" />
          </mxGeometry>
        </mxCell>
        <mxCell id="KkJVHoqy8BTquRj1_7dG-25" value="" style="pointerEvents=1;verticalLabelPosition=bottom;shadow=0;dashed=0;align=center;html=1;verticalAlign=top;shape=mxgraph.electrical.resistors.resistor_2;rotation=90;strokeWidth=2;" parent="1" vertex="1">
          <mxGeometry x="1430" y="1900" width="100" height="20" as="geometry" />
        </mxCell>
        <mxCell id="KkJVHoqy8BTquRj1_7dG-26" style="edgeStyle=orthogonalEdgeStyle;rounded=0;orthogonalLoop=1;jettySize=auto;html=1;exitX=1;exitY=0.5;exitDx=0;exitDy=0;exitPerimeter=0;entryX=1;entryY=0;entryDx=0;entryDy=0;entryPerimeter=0;strokeWidth=2;endArrow=none;endFill=0;" parent="1" target="KkJVHoqy8BTquRj1_7dG-4" edge="1">
          <mxGeometry relative="1" as="geometry">
            <mxPoint x="1480" y="1990" as="sourcePoint" />
          </mxGeometry>
        </mxCell>
        <mxCell id="KkJVHoqy8BTquRj1_7dG-28" value="" style="pointerEvents=1;verticalLabelPosition=bottom;shadow=0;dashed=0;align=center;html=1;verticalAlign=top;shape=mxgraph.electrical.resistors.resistor_2;rotation=90;strokeWidth=2;" parent="1" vertex="1">
          <mxGeometry x="1330" y="1925" width="100" height="20" as="geometry" />
        </mxCell>
        <mxCell id="KkJVHoqy8BTquRj1_7dG-31" style="edgeStyle=orthogonalEdgeStyle;rounded=0;orthogonalLoop=1;jettySize=auto;html=1;exitX=0.5;exitY=0;exitDx=0;exitDy=0;exitPerimeter=0;entryX=1;entryY=0.5;entryDx=0;entryDy=0;entryPerimeter=0;strokeWidth=2;endArrow=none;endFill=0;" parent="1" source="KkJVHoqy8BTquRj1_7dG-2" target="KkJVHoqy8BTquRj1_7dG-19" edge="1">
          <mxGeometry relative="1" as="geometry">
            <Array as="points">
              <mxPoint x="1260" y="2090" />
              <mxPoint x="1260" y="2045" />
            </Array>
          </mxGeometry>
        </mxCell>
        <mxCell id="KkJVHoqy8BTquRj1_7dG-32" style="edgeStyle=orthogonalEdgeStyle;rounded=0;orthogonalLoop=1;jettySize=auto;html=1;exitX=0;exitY=0.5;exitDx=0;exitDy=0;exitPerimeter=0;entryX=0;entryY=0.5;entryDx=0;entryDy=0;entryPerimeter=0;strokeWidth=2;endArrow=none;endFill=0;" parent="1" source="KkJVHoqy8BTquRj1_7dG-19" target="KkJVHoqy8BTquRj1_7dG-4" edge="1">
          <mxGeometry relative="1" as="geometry" />
        </mxCell>
        <mxCell id="KkJVHoqy8BTquRj1_7dG-34" value="" style="endArrow=none;html=1;rounded=0;strokeWidth=2;" parent="1" edge="1">
          <mxGeometry width="50" height="50" relative="1" as="geometry">
            <mxPoint x="1470" y="1790" as="sourcePoint" />
            <mxPoint x="1490" y="1790" as="targetPoint" />
          </mxGeometry>
        </mxCell>
        <mxCell id="KkJVHoqy8BTquRj1_7dG-35" style="edgeStyle=orthogonalEdgeStyle;rounded=0;orthogonalLoop=1;jettySize=auto;html=1;exitX=0;exitY=0.5;exitDx=0;exitDy=0;exitPerimeter=0;entryX=0;entryY=0.5;entryDx=0;entryDy=0;entryPerimeter=0;strokeWidth=2;endArrow=none;endFill=0;" parent="1" source="KkJVHoqy8BTquRj1_7dG-28" target="KkJVHoqy8BTquRj1_7dG-25" edge="1">
          <mxGeometry relative="1" as="geometry">
            <Array as="points">
              <mxPoint x="1380" y="1830" />
              <mxPoint x="1480" y="1830" />
            </Array>
          </mxGeometry>
        </mxCell>
        <mxCell id="KkJVHoqy8BTquRj1_7dG-36" value="" style="pointerEvents=1;verticalLabelPosition=bottom;shadow=0;dashed=0;align=center;html=1;verticalAlign=top;shape=mxgraph.electrical.capacitors.capacitor_1;strokeWidth=2;rotation=-180;" parent="1" vertex="1">
          <mxGeometry x="1493" y="1950" width="100" height="30" as="geometry" />
        </mxCell>
        <mxCell id="KkJVHoqy8BTquRj1_7dG-37" style="edgeStyle=orthogonalEdgeStyle;rounded=0;orthogonalLoop=1;jettySize=auto;html=1;exitX=1;exitY=0.5;exitDx=0;exitDy=0;exitPerimeter=0;entryX=1;entryY=0;entryDx=0;entryDy=0;entryPerimeter=0;strokeWidth=2;endArrow=none;endFill=0;" parent="1" source="KkJVHoqy8BTquRj1_7dG-36" target="KkJVHoqy8BTquRj1_7dG-4" edge="1">
          <mxGeometry relative="1" as="geometry">
            <Array as="points">
              <mxPoint x="1480" y="1965" />
            </Array>
          </mxGeometry>
        </mxCell>
        <mxCell id="KkJVHoqy8BTquRj1_7dG-38" style="edgeStyle=orthogonalEdgeStyle;rounded=0;orthogonalLoop=1;jettySize=auto;html=1;exitX=0;exitY=0.5;exitDx=0;exitDy=0;exitPerimeter=0;entryX=0;entryY=0.5;entryDx=0;entryDy=0;entryPerimeter=0;endArrow=none;endFill=0;strokeWidth=2;" parent="1" source="KkJVHoqy8BTquRj1_7dG-36" target="KkJVHoqy8BTquRj1_7dG-6" edge="1">
          <mxGeometry relative="1" as="geometry" />
        </mxCell>
        <mxCell id="KkJVHoqy8BTquRj1_7dG-41" value="$$V_{CC}=12V$$" style="text;html=1;align=center;verticalAlign=middle;whiteSpace=wrap;rounded=0;fontSize=16;" parent="1" vertex="1">
          <mxGeometry x="1450" y="1760" width="60" height="30" as="geometry" />
        </mxCell>
        <mxCell id="KkJVHoqy8BTquRj1_7dG-42" value="$$R_B$$" style="text;html=1;align=center;verticalAlign=middle;whiteSpace=wrap;rounded=0;fontSize=16;" parent="1" vertex="1">
          <mxGeometry x="1330" y="1920" width="25" height="30" as="geometry" />
        </mxCell>
        <mxCell id="KkJVHoqy8BTquRj1_7dG-45" value="$$R_C$$" style="text;html=1;align=center;verticalAlign=middle;whiteSpace=wrap;rounded=0;fontSize=16;" parent="1" vertex="1">
          <mxGeometry x="1485" y="1895" width="60" height="30" as="geometry" />
        </mxCell>
        <mxCell id="KkJVHoqy8BTquRj1_7dG-54" value="$$\beta=50$$" style="text;html=1;align=center;verticalAlign=middle;whiteSpace=wrap;rounded=0;fontSize=16;" parent="1" vertex="1">
          <mxGeometry x="1400" y="2080" width="60" height="30" as="geometry" />
        </mxCell>
        <mxCell id="KkJVHoqy8BTquRj1_7dG-57" value="$$C_B$$" style="text;html=1;align=center;verticalAlign=middle;whiteSpace=wrap;rounded=0;fontSize=16;" parent="1" vertex="1">
          <mxGeometry x="1291" y="2000" width="60" height="30" as="geometry" />
        </mxCell>
        <mxCell id="KkJVHoqy8BTquRj1_7dG-58" value="$$C_C$$" style="text;html=1;align=center;verticalAlign=middle;whiteSpace=wrap;rounded=0;fontSize=16;" parent="1" vertex="1">
          <mxGeometry x="1533" y="1925" width="60" height="25" as="geometry" />
        </mxCell>
        <mxCell id="KkJVHoqy8BTquRj1_7dG-59" style="edgeStyle=orthogonalEdgeStyle;rounded=0;orthogonalLoop=1;jettySize=auto;html=1;exitX=1;exitY=0.5;exitDx=0;exitDy=0;exitPerimeter=0;entryX=0;entryY=0.5;entryDx=0;entryDy=0;entryPerimeter=0;strokeWidth=2;endArrow=none;endFill=0;" parent="1" source="KkJVHoqy8BTquRj1_7dG-28" target="KkJVHoqy8BTquRj1_7dG-4" edge="1">
          <mxGeometry relative="1" as="geometry">
            <Array as="points">
              <mxPoint x="1380" y="2045" />
            </Array>
          </mxGeometry>
        </mxCell>
        <mxCell id="KkJVHoqy8BTquRj1_7dG-61" value="" style="endArrow=open;html=1;rounded=0;strokeWidth=2;endSize=10;endFill=0;" parent="1" edge="1">
          <mxGeometry width="50" height="50" relative="1" as="geometry">
            <mxPoint x="2560" y="2120.83" as="sourcePoint" />
            <mxPoint x="2560" y="1820" as="targetPoint" />
          </mxGeometry>
        </mxCell>
        <mxCell id="KkJVHoqy8BTquRj1_7dG-62" value="" style="endArrow=open;html=1;rounded=0;strokeWidth=2;endSize=10;endFill=0;" parent="1" edge="1">
          <mxGeometry width="50" height="50" relative="1" as="geometry">
            <mxPoint x="2560" y="2120.83" as="sourcePoint" />
            <mxPoint x="3030" y="2120" as="targetPoint" />
          </mxGeometry>
        </mxCell>
        <mxCell id="KkJVHoqy8BTquRj1_7dG-63" value="" style="verticalLabelPosition=bottom;shadow=0;dashed=0;align=center;html=1;verticalAlign=top;shape=mxgraph.electrical.transistors.npn_transistor_5;strokeWidth=2;" parent="1" vertex="1">
          <mxGeometry x="1807.5" y="1995" width="64" height="100" as="geometry" />
        </mxCell>
        <mxCell id="KkJVHoqy8BTquRj1_7dG-64" value="" style="endArrow=none;html=1;rounded=0;strokeWidth=2;" parent="1" edge="1">
          <mxGeometry width="50" height="50" relative="1" as="geometry">
            <mxPoint x="1861.5" y="2130" as="sourcePoint" />
            <mxPoint x="1881.5" y="2130" as="targetPoint" />
          </mxGeometry>
        </mxCell>
        <mxCell id="KkJVHoqy8BTquRj1_7dG-65" value="" style="endArrow=none;html=1;rounded=0;strokeWidth=2;" parent="1" edge="1">
          <mxGeometry width="50" height="50" relative="1" as="geometry">
            <mxPoint x="1866.5" y="2134.7400000000002" as="sourcePoint" />
            <mxPoint x="1876.5" y="2134.7400000000002" as="targetPoint" />
          </mxGeometry>
        </mxCell>
        <mxCell id="KkJVHoqy8BTquRj1_7dG-66" style="edgeStyle=orthogonalEdgeStyle;rounded=0;orthogonalLoop=1;jettySize=auto;html=1;exitX=1;exitY=1;exitDx=0;exitDy=0;exitPerimeter=0;strokeWidth=2;endArrow=none;endFill=0;" parent="1" source="KkJVHoqy8BTquRj1_7dG-63" edge="1">
          <mxGeometry relative="1" as="geometry">
            <mxPoint x="1871.5" y="2130" as="targetPoint" />
          </mxGeometry>
        </mxCell>
        <mxCell id="KkJVHoqy8BTquRj1_7dG-67" style="edgeStyle=orthogonalEdgeStyle;rounded=0;orthogonalLoop=1;jettySize=auto;html=1;exitX=0;exitY=0.5;exitDx=0;exitDy=0;exitPerimeter=0;strokeWidth=2;endArrow=none;endFill=0;" parent="1" source="KkJVHoqy8BTquRj1_7dG-69" edge="1">
          <mxGeometry relative="1" as="geometry">
            <mxPoint x="1871.5" y="1790" as="targetPoint" />
          </mxGeometry>
        </mxCell>
        <mxCell id="KkJVHoqy8BTquRj1_7dG-68" style="edgeStyle=orthogonalEdgeStyle;rounded=0;orthogonalLoop=1;jettySize=auto;html=1;exitX=1;exitY=0.5;exitDx=0;exitDy=0;exitPerimeter=0;strokeWidth=2;endArrow=none;endFill=0;" parent="1" source="KkJVHoqy8BTquRj1_7dG-69" edge="1">
          <mxGeometry relative="1" as="geometry">
            <mxPoint x="1871.5" y="1970" as="targetPoint" />
            <Array as="points">
              <mxPoint x="1871.5" y="1990" />
              <mxPoint x="1871.5" y="1990" />
            </Array>
          </mxGeometry>
        </mxCell>
        <mxCell id="KkJVHoqy8BTquRj1_7dG-69" value="" style="pointerEvents=1;verticalLabelPosition=bottom;shadow=0;dashed=0;align=center;html=1;verticalAlign=top;shape=mxgraph.electrical.resistors.resistor_2;rotation=90;strokeWidth=2;" parent="1" vertex="1">
          <mxGeometry x="1821.5" y="1900" width="100" height="20" as="geometry" />
        </mxCell>
        <mxCell id="KkJVHoqy8BTquRj1_7dG-70" style="edgeStyle=orthogonalEdgeStyle;rounded=0;orthogonalLoop=1;jettySize=auto;html=1;exitX=1;exitY=0.5;exitDx=0;exitDy=0;exitPerimeter=0;entryX=1;entryY=0;entryDx=0;entryDy=0;entryPerimeter=0;strokeWidth=2;endArrow=none;endFill=0;" parent="1" target="KkJVHoqy8BTquRj1_7dG-63" edge="1">
          <mxGeometry relative="1" as="geometry">
            <mxPoint x="1871.5" y="1990" as="sourcePoint" />
          </mxGeometry>
        </mxCell>
        <mxCell id="KkJVHoqy8BTquRj1_7dG-71" value="" style="pointerEvents=1;verticalLabelPosition=bottom;shadow=0;dashed=0;align=center;html=1;verticalAlign=top;shape=mxgraph.electrical.resistors.resistor_2;rotation=90;strokeWidth=2;" parent="1" vertex="1">
          <mxGeometry x="1721.5" y="1925" width="100" height="20" as="geometry" />
        </mxCell>
        <mxCell id="KkJVHoqy8BTquRj1_7dG-73" value="" style="endArrow=none;html=1;rounded=0;strokeWidth=2;" parent="1" edge="1">
          <mxGeometry width="50" height="50" relative="1" as="geometry">
            <mxPoint x="1861.5" y="1790" as="sourcePoint" />
            <mxPoint x="1881.5" y="1790" as="targetPoint" />
          </mxGeometry>
        </mxCell>
        <mxCell id="KkJVHoqy8BTquRj1_7dG-74" style="edgeStyle=orthogonalEdgeStyle;rounded=0;orthogonalLoop=1;jettySize=auto;html=1;exitX=0;exitY=0.5;exitDx=0;exitDy=0;exitPerimeter=0;entryX=0;entryY=0.5;entryDx=0;entryDy=0;entryPerimeter=0;strokeWidth=2;endArrow=none;endFill=0;" parent="1" source="KkJVHoqy8BTquRj1_7dG-71" target="KkJVHoqy8BTquRj1_7dG-69" edge="1">
          <mxGeometry relative="1" as="geometry">
            <Array as="points">
              <mxPoint x="1771.5" y="1830" />
              <mxPoint x="1871.5" y="1830" />
            </Array>
          </mxGeometry>
        </mxCell>
        <mxCell id="KkJVHoqy8BTquRj1_7dG-76" value="$$V_{CC}=12V$$" style="text;html=1;align=center;verticalAlign=middle;whiteSpace=wrap;rounded=0;fontSize=16;" parent="1" vertex="1">
          <mxGeometry x="1841.5" y="1760" width="60" height="30" as="geometry" />
        </mxCell>
        <mxCell id="KkJVHoqy8BTquRj1_7dG-77" value="$$\beta=50$$" style="text;html=1;align=center;verticalAlign=middle;whiteSpace=wrap;rounded=0;fontSize=16;" parent="1" vertex="1">
          <mxGeometry x="1873.5" y="2030" width="60" height="30" as="geometry" />
        </mxCell>
        <mxCell id="KkJVHoqy8BTquRj1_7dG-78" style="edgeStyle=orthogonalEdgeStyle;rounded=0;orthogonalLoop=1;jettySize=auto;html=1;exitX=1;exitY=0.5;exitDx=0;exitDy=0;exitPerimeter=0;entryX=0;entryY=0.5;entryDx=0;entryDy=0;entryPerimeter=0;strokeWidth=2;endArrow=none;endFill=0;" parent="1" source="KkJVHoqy8BTquRj1_7dG-71" target="KkJVHoqy8BTquRj1_7dG-63" edge="1">
          <mxGeometry relative="1" as="geometry">
            <Array as="points">
              <mxPoint x="1771.5" y="2045" />
            </Array>
          </mxGeometry>
        </mxCell>
        <mxCell id="KkJVHoqy8BTquRj1_7dG-79" value="$$R_C$$" style="text;html=1;align=center;verticalAlign=middle;whiteSpace=wrap;rounded=0;fontSize=16;" parent="1" vertex="1">
          <mxGeometry x="1885" y="1895" width="38" height="30" as="geometry" />
        </mxCell>
        <mxCell id="KkJVHoqy8BTquRj1_7dG-80" value="$$R_B$$" style="text;html=1;align=center;verticalAlign=middle;whiteSpace=wrap;rounded=0;fontSize=16;" parent="1" vertex="1">
          <mxGeometry x="1721.5" y="1920" width="25" height="30" as="geometry" />
        </mxCell>
        <mxCell id="KkJVHoqy8BTquRj1_7dG-131" style="edgeStyle=orthogonalEdgeStyle;rounded=0;orthogonalLoop=1;jettySize=auto;html=1;exitX=1;exitY=0.5;exitDx=0;exitDy=0;exitPerimeter=0;strokeWidth=2;endArrow=none;endFill=0;" parent="1" source="KkJVHoqy8BTquRj1_7dG-87" edge="1">
          <mxGeometry relative="1" as="geometry">
            <mxPoint x="2180" y="2102.04" as="targetPoint" />
            <Array as="points">
              <mxPoint x="2329" y="2082.04" />
              <mxPoint x="2180" y="2082.04" />
            </Array>
          </mxGeometry>
        </mxCell>
        <mxCell id="KkJVHoqy8BTquRj1_7dG-87" value="" style="pointerEvents=1;verticalLabelPosition=bottom;shadow=0;dashed=0;align=center;html=1;verticalAlign=top;shape=mxgraph.electrical.resistors.resistor_2;rotation=90;strokeWidth=2;" parent="1" vertex="1">
          <mxGeometry x="2279.5" y="2005.04" width="100" height="20" as="geometry" />
        </mxCell>
        <mxCell id="KkJVHoqy8BTquRj1_7dG-128" style="edgeStyle=orthogonalEdgeStyle;rounded=0;orthogonalLoop=1;jettySize=auto;html=1;exitX=1;exitY=0.5;exitDx=0;exitDy=0;exitPerimeter=0;strokeWidth=2;endArrow=none;endFill=0;" parent="1" source="KkJVHoqy8BTquRj1_7dG-89" edge="1">
          <mxGeometry relative="1" as="geometry">
            <mxPoint x="2180.072164948454" y="2102.04" as="targetPoint" />
          </mxGeometry>
        </mxCell>
        <mxCell id="KkJVHoqy8BTquRj1_7dG-89" value="" style="pointerEvents=1;verticalLabelPosition=bottom;shadow=0;dashed=0;align=center;html=1;verticalAlign=top;shape=mxgraph.electrical.resistors.resistor_2;rotation=90;strokeWidth=2;" parent="1" vertex="1">
          <mxGeometry x="2130" y="2005.04" width="100" height="20" as="geometry" />
        </mxCell>
        <mxCell id="KkJVHoqy8BTquRj1_7dG-95" value="$$R_C$$" style="text;html=1;align=center;verticalAlign=middle;whiteSpace=wrap;rounded=0;fontSize=16;" parent="1" vertex="1">
          <mxGeometry x="2341.5" y="2002.04" width="38" height="30" as="geometry" />
        </mxCell>
        <mxCell id="KkJVHoqy8BTquRj1_7dG-96" value="$$R_B$$" style="text;html=1;align=center;verticalAlign=middle;whiteSpace=wrap;rounded=0;fontSize=16;" parent="1" vertex="1">
          <mxGeometry x="2068" y="1998.54" width="25" height="30" as="geometry" />
        </mxCell>
        <mxCell id="KkJVHoqy8BTquRj1_7dG-127" style="edgeStyle=orthogonalEdgeStyle;rounded=0;orthogonalLoop=1;jettySize=auto;html=1;exitX=1;exitY=0.5;exitDx=0;exitDy=0;exitPerimeter=0;strokeWidth=2;endArrow=none;endFill=0;" parent="1" source="KkJVHoqy8BTquRj1_7dG-97" edge="1">
          <mxGeometry relative="1" as="geometry">
            <mxPoint x="2180" y="2102.04" as="targetPoint" />
            <Array as="points">
              <mxPoint x="2110" y="2082.04" />
              <mxPoint x="2180" y="2082.04" />
            </Array>
          </mxGeometry>
        </mxCell>
        <mxCell id="KkJVHoqy8BTquRj1_7dG-97" value="" style="pointerEvents=1;verticalLabelPosition=bottom;shadow=0;dashed=0;align=center;html=1;verticalAlign=top;shape=mxgraph.electrical.resistors.resistor_2;rotation=90;strokeWidth=2;" parent="1" vertex="1">
          <mxGeometry x="2060" y="2004.54" width="100" height="20" as="geometry" />
        </mxCell>
        <mxCell id="KkJVHoqy8BTquRj1_7dG-132" style="edgeStyle=orthogonalEdgeStyle;rounded=0;orthogonalLoop=1;jettySize=auto;html=1;exitX=1;exitY=0.5;exitDx=0;exitDy=0;exitPerimeter=0;strokeWidth=2;endArrow=none;endFill=0;" parent="1" source="KkJVHoqy8BTquRj1_7dG-98" edge="1">
          <mxGeometry relative="1" as="geometry">
            <mxPoint x="2180" y="2102.04" as="targetPoint" />
            <Array as="points">
              <mxPoint x="2399" y="2082.04" />
              <mxPoint x="2180" y="2082.04" />
            </Array>
          </mxGeometry>
        </mxCell>
        <mxCell id="KkJVHoqy8BTquRj1_7dG-98" value="" style="pointerEvents=1;verticalLabelPosition=bottom;shadow=0;dashed=0;align=center;html=1;verticalAlign=top;shape=mxgraph.electrical.resistors.resistor_2;rotation=90;strokeWidth=2;" parent="1" vertex="1">
          <mxGeometry x="2348.5" y="2006.54" width="100" height="20" as="geometry" />
        </mxCell>
        <mxCell id="KkJVHoqy8BTquRj1_7dG-99" value="$$r_\pi$$" style="text;html=1;align=center;verticalAlign=middle;whiteSpace=wrap;rounded=0;fontSize=16;" parent="1" vertex="1">
          <mxGeometry x="2141" y="1996.54" width="25" height="30" as="geometry" />
        </mxCell>
        <mxCell id="KkJVHoqy8BTquRj1_7dG-100" value="$$R_L$$" style="text;html=1;align=center;verticalAlign=middle;whiteSpace=wrap;rounded=0;fontSize=16;" parent="1" vertex="1">
          <mxGeometry x="2410.5" y="2001.54" width="38" height="30" as="geometry" />
        </mxCell>
        <mxCell id="KkJVHoqy8BTquRj1_7dG-123" style="edgeStyle=orthogonalEdgeStyle;rounded=0;orthogonalLoop=1;jettySize=auto;html=1;exitX=0.5;exitY=1;exitDx=0;exitDy=0;exitPerimeter=0;strokeWidth=2;endArrow=none;endFill=0;" parent="1" source="KkJVHoqy8BTquRj1_7dG-101" edge="1">
          <mxGeometry relative="1" as="geometry">
            <mxPoint x="2180" y="2102.04" as="targetPoint" />
            <Array as="points">
              <mxPoint x="2030" y="2082.04" />
              <mxPoint x="2180" y="2082.04" />
            </Array>
          </mxGeometry>
        </mxCell>
        <mxCell id="KkJVHoqy8BTquRj1_7dG-101" value="" style="pointerEvents=1;verticalLabelPosition=bottom;shadow=0;dashed=0;align=center;html=1;verticalAlign=top;shape=mxgraph.electrical.signal_sources.source;aspect=fixed;points=[[0.5,0,0],[1,0.5,0],[0.5,1,0],[0,0.5,0]];elSignalType=ac;strokeWidth=2;" parent="1" vertex="1">
          <mxGeometry x="2010" y="1989.54" width="40" height="40" as="geometry" />
        </mxCell>
        <mxCell id="KkJVHoqy8BTquRj1_7dG-111" value="" style="ellipse;whiteSpace=wrap;html=1;aspect=fixed;" parent="1" vertex="1">
          <mxGeometry x="2210" y="1922.04" as="geometry" />
        </mxCell>
        <mxCell id="KkJVHoqy8BTquRj1_7dG-121" value="" style="endArrow=none;html=1;rounded=0;strokeWidth=2;" parent="1" edge="1">
          <mxGeometry width="50" height="50" relative="1" as="geometry">
            <mxPoint x="2170" y="2102.05" as="sourcePoint" />
            <mxPoint x="2190" y="2102.05" as="targetPoint" />
          </mxGeometry>
        </mxCell>
        <mxCell id="KkJVHoqy8BTquRj1_7dG-122" value="" style="endArrow=none;html=1;rounded=0;strokeWidth=2;" parent="1" edge="1">
          <mxGeometry width="50" height="50" relative="1" as="geometry">
            <mxPoint x="2175" y="2106.7900000000004" as="sourcePoint" />
            <mxPoint x="2185" y="2106.7900000000004" as="targetPoint" />
          </mxGeometry>
        </mxCell>
        <mxCell id="KkJVHoqy8BTquRj1_7dG-126" style="edgeStyle=orthogonalEdgeStyle;rounded=0;orthogonalLoop=1;jettySize=auto;html=1;exitX=0.5;exitY=0;exitDx=0;exitDy=0;exitPerimeter=0;entryX=0;entryY=0.5;entryDx=0;entryDy=0;entryPerimeter=0;strokeWidth=2;endArrow=none;endFill=0;" parent="1" source="KkJVHoqy8BTquRj1_7dG-101" target="KkJVHoqy8BTquRj1_7dG-89" edge="1">
          <mxGeometry relative="1" as="geometry">
            <Array as="points">
              <mxPoint x="2030" y="1942.04" />
              <mxPoint x="2180" y="1942.04" />
            </Array>
          </mxGeometry>
        </mxCell>
        <mxCell id="KkJVHoqy8BTquRj1_7dG-129" style="edgeStyle=orthogonalEdgeStyle;rounded=0;orthogonalLoop=1;jettySize=auto;html=1;exitX=0;exitY=0.5;exitDx=0;exitDy=0;exitPerimeter=0;entryX=0;entryY=0.5;entryDx=0;entryDy=0;entryPerimeter=0;strokeWidth=2;endArrow=none;endFill=0;" parent="1" source="KkJVHoqy8BTquRj1_7dG-97" target="KkJVHoqy8BTquRj1_7dG-89" edge="1">
          <mxGeometry relative="1" as="geometry">
            <Array as="points">
              <mxPoint x="2110" y="1942.04" />
              <mxPoint x="2180" y="1942.04" />
            </Array>
          </mxGeometry>
        </mxCell>
        <mxCell id="KkJVHoqy8BTquRj1_7dG-134" style="edgeStyle=orthogonalEdgeStyle;rounded=0;orthogonalLoop=1;jettySize=auto;html=1;exitX=0;exitY=0.5;exitDx=0;exitDy=0;exitPerimeter=0;entryX=0;entryY=0.5;entryDx=0;entryDy=0;entryPerimeter=0;strokeWidth=2;endArrow=none;endFill=0;" parent="1" source="KkJVHoqy8BTquRj1_7dG-87" target="KkJVHoqy8BTquRj1_7dG-98" edge="1">
          <mxGeometry relative="1" as="geometry">
            <Array as="points">
              <mxPoint x="2329.5" y="1942.04" />
              <mxPoint x="2398.5" y="1942.04" />
            </Array>
          </mxGeometry>
        </mxCell>
        <mxCell id="KkJVHoqy8BTquRj1_7dG-137" style="edgeStyle=orthogonalEdgeStyle;rounded=0;orthogonalLoop=1;jettySize=auto;html=1;exitX=0.5;exitY=1;exitDx=0;exitDy=0;exitPerimeter=0;strokeWidth=2;endArrow=none;endFill=0;" parent="1" source="KkJVHoqy8BTquRj1_7dG-135" edge="1">
          <mxGeometry relative="1" as="geometry">
            <mxPoint x="2180" y="2102.04" as="targetPoint" />
            <Array as="points">
              <mxPoint x="2265" y="2082.04" />
              <mxPoint x="2180" y="2082.04" />
            </Array>
          </mxGeometry>
        </mxCell>
        <mxCell id="KkJVHoqy8BTquRj1_7dG-136" style="edgeStyle=orthogonalEdgeStyle;rounded=0;orthogonalLoop=1;jettySize=auto;html=1;exitX=0.5;exitY=0;exitDx=0;exitDy=0;exitPerimeter=0;entryX=0;entryY=0.5;entryDx=0;entryDy=0;entryPerimeter=0;strokeWidth=2;endArrow=none;endFill=0;" parent="1" source="KkJVHoqy8BTquRj1_7dG-135" target="KkJVHoqy8BTquRj1_7dG-87" edge="1">
          <mxGeometry relative="1" as="geometry">
            <Array as="points">
              <mxPoint x="2265" y="1942.04" />
              <mxPoint x="2330" y="1942.04" />
            </Array>
          </mxGeometry>
        </mxCell>
        <mxCell id="KkJVHoqy8BTquRj1_7dG-138" value="$$v_i$$" style="text;html=1;align=center;verticalAlign=middle;whiteSpace=wrap;rounded=0;fontSize=16;" parent="1" vertex="1">
          <mxGeometry x="1982" y="1989.54" width="23" height="30" as="geometry" />
        </mxCell>
        <mxCell id="KkJVHoqy8BTquRj1_7dG-139" value="+" style="text;html=1;align=center;verticalAlign=middle;whiteSpace=wrap;rounded=0;fontSize=16;" parent="1" vertex="1">
          <mxGeometry x="1987" y="1962.04" width="13" height="17.5" as="geometry" />
        </mxCell>
        <mxCell id="KkJVHoqy8BTquRj1_7dG-140" value="-" style="text;html=1;align=center;verticalAlign=middle;whiteSpace=wrap;rounded=0;fontSize=16;" parent="1" vertex="1">
          <mxGeometry x="1987" y="2034.54" width="13" height="12.5" as="geometry" />
        </mxCell>
        <mxCell id="KkJVHoqy8BTquRj1_7dG-141" value="$$v_{be}$$" style="text;html=1;align=center;verticalAlign=middle;whiteSpace=wrap;rounded=0;fontSize=16;" parent="1" vertex="1">
          <mxGeometry x="2198.5" y="1992.92" width="23" height="30" as="geometry" />
        </mxCell>
        <mxCell id="KkJVHoqy8BTquRj1_7dG-142" value="+" style="text;html=1;align=center;verticalAlign=middle;whiteSpace=wrap;rounded=0;fontSize=16;" parent="1" vertex="1">
          <mxGeometry x="2203.5" y="1962.04" width="13" height="17.5" as="geometry" />
        </mxCell>
        <mxCell id="KkJVHoqy8BTquRj1_7dG-143" value="-" style="text;html=1;align=center;verticalAlign=middle;whiteSpace=wrap;rounded=0;fontSize=16;" parent="1" vertex="1">
          <mxGeometry x="2203.5" y="2034.54" width="13" height="12.5" as="geometry" />
        </mxCell>
        <mxCell id="KkJVHoqy8BTquRj1_7dG-146" value="$$g_mv_{be}$$" style="text;html=1;align=center;verticalAlign=middle;whiteSpace=wrap;rounded=0;fontSize=16;" parent="1" vertex="1">
          <mxGeometry x="2279.5" y="1962.04" width="23" height="30" as="geometry" />
        </mxCell>
        <mxCell id="KkJVHoqy8BTquRj1_7dG-147" value="&lt;font style=&quot;font-size: 22px;&quot;&gt;Original Circuit&lt;/font&gt;" style="text;html=1;align=center;verticalAlign=middle;whiteSpace=wrap;rounded=0;fontSize=22;" parent="1" vertex="1">
          <mxGeometry x="1365" y="2170" width="180" height="30" as="geometry" />
        </mxCell>
        <mxCell id="KkJVHoqy8BTquRj1_7dG-148" value="DC equivalent Circuit" style="text;html=1;align=center;verticalAlign=middle;whiteSpace=wrap;rounded=0;fontSize=22;" parent="1" vertex="1">
          <mxGeometry x="1729.5" y="2170" width="220" height="30" as="geometry" />
        </mxCell>
        <mxCell id="KkJVHoqy8BTquRj1_7dG-151" value="AC equivalent Circuit" style="text;html=1;align=center;verticalAlign=middle;whiteSpace=wrap;rounded=0;fontSize=22;" parent="1" vertex="1">
          <mxGeometry x="2110" y="2170" width="220" height="30" as="geometry" />
        </mxCell>
        <mxCell id="KkJVHoqy8BTquRj1_7dG-152" value="$$v_o$$" style="text;html=1;align=center;verticalAlign=middle;whiteSpace=wrap;rounded=0;fontSize=16;" parent="1" vertex="1">
          <mxGeometry x="2443.25" y="2000.04" width="23" height="30" as="geometry" />
        </mxCell>
        <mxCell id="KkJVHoqy8BTquRj1_7dG-153" value="+" style="text;html=1;align=center;verticalAlign=middle;whiteSpace=wrap;rounded=0;fontSize=16;" parent="1" vertex="1">
          <mxGeometry x="2448.25" y="1972.54" width="13" height="17.5" as="geometry" />
        </mxCell>
        <mxCell id="KkJVHoqy8BTquRj1_7dG-154" value="-" style="text;html=1;align=center;verticalAlign=middle;whiteSpace=wrap;rounded=0;fontSize=16;" parent="1" vertex="1">
          <mxGeometry x="2448.25" y="2045.04" width="13" height="12.5" as="geometry" />
        </mxCell>
        <mxCell id="KkJVHoqy8BTquRj1_7dG-155" value="$$i_c$$" style="text;html=1;align=center;verticalAlign=middle;whiteSpace=wrap;rounded=0;fontSize=22;" parent="1" vertex="1">
          <mxGeometry x="2521" y="1790" width="38" height="30" as="geometry" />
        </mxCell>
        <mxCell id="KkJVHoqy8BTquRj1_7dG-159" value="$$v_{ce}$$" style="text;html=1;align=center;verticalAlign=middle;whiteSpace=wrap;rounded=0;fontSize=22;" parent="1" vertex="1">
          <mxGeometry x="3039" y="2100" width="38" height="30" as="geometry" />
        </mxCell>
        <mxCell id="KkJVHoqy8BTquRj1_7dG-160" value="" style="endArrow=none;html=1;rounded=0;strokeColor=#FF8000;" parent="1" edge="1">
          <mxGeometry width="50" height="50" relative="1" as="geometry">
            <mxPoint x="2560" y="1920" as="sourcePoint" />
            <mxPoint x="2960" y="2120" as="targetPoint" />
          </mxGeometry>
        </mxCell>
        <mxCell id="KkJVHoqy8BTquRj1_7dG-135" value="" style="pointerEvents=1;verticalLabelPosition=bottom;shadow=0;dashed=0;align=center;html=1;verticalAlign=top;shape=mxgraph.electrical.signal_sources.source;aspect=fixed;points=[[0.5,0,0],[1,0.5,0],[0.5,1,0],[0,0.5,0]];elSignalType=dc2;elSourceType=dependent;strokeWidth=2;flipH=1;flipV=1;" parent="1" vertex="1">
          <mxGeometry x="2244.75" y="1992.92" width="41.25" height="41.25" as="geometry" />
        </mxCell>
        <mxCell id="KkJVHoqy8BTquRj1_7dG-161" value="" style="endArrow=none;html=1;rounded=0;strokeColor=#9933FF;" parent="1" edge="1">
          <mxGeometry width="50" height="50" relative="1" as="geometry">
            <mxPoint x="2640" y="1920" as="sourcePoint" />
            <mxPoint x="2880" y="2120" as="targetPoint" />
          </mxGeometry>
        </mxCell>
        <mxCell id="KkJVHoqy8BTquRj1_7dG-163" value="" style="endArrow=none;dashed=1;html=1;rounded=0;" parent="1" edge="1">
          <mxGeometry width="50" height="50" relative="1" as="geometry">
            <mxPoint x="2760" y="2020" as="sourcePoint" />
            <mxPoint x="2560" y="2020" as="targetPoint" />
          </mxGeometry>
        </mxCell>
        <mxCell id="KkJVHoqy8BTquRj1_7dG-164" value="" style="endArrow=none;dashed=1;html=1;rounded=0;" parent="1" edge="1">
          <mxGeometry width="50" height="50" relative="1" as="geometry">
            <mxPoint x="2760" y="2020" as="sourcePoint" />
            <mxPoint x="2760" y="2120" as="targetPoint" />
          </mxGeometry>
        </mxCell>
        <mxCell id="KkJVHoqy8BTquRj1_7dG-165" value="$$V_{CC}$$" style="text;html=1;align=center;verticalAlign=middle;whiteSpace=wrap;rounded=0;fontSize=10;" parent="1" vertex="1">
          <mxGeometry x="2942" y="2120" width="38" height="30" as="geometry" />
        </mxCell>
        <mxCell id="KkJVHoqy8BTquRj1_7dG-166" value="$$\frac{V_{CC}}{R_C}$$" style="text;html=1;align=center;verticalAlign=middle;whiteSpace=wrap;rounded=0;fontSize=10;" parent="1" vertex="1">
          <mxGeometry x="2519" y="1904.04" width="38" height="30" as="geometry" />
        </mxCell>
        <mxCell id="KkJVHoqy8BTquRj1_7dG-167" value="$$V_{CEQ}=\frac{V_{CC}}{2}$$" style="text;html=1;align=center;verticalAlign=middle;whiteSpace=wrap;rounded=0;fontSize=10;" parent="1" vertex="1">
          <mxGeometry x="2740" y="2122.5" width="38" height="30" as="geometry" />
        </mxCell>
        <mxCell id="KkJVHoqy8BTquRj1_7dG-174" value="" style="curved=1;endArrow=classic;html=1;rounded=0;strokeColor=#ff8000;" parent="1" edge="1">
          <mxGeometry width="50" height="50" relative="1" as="geometry">
            <mxPoint x="2920" y="2090" as="sourcePoint" />
            <mxPoint x="2930" y="2010" as="targetPoint" />
            <Array as="points">
              <mxPoint x="2942" y="2067.5" />
            </Array>
          </mxGeometry>
        </mxCell>
        <mxCell id="KkJVHoqy8BTquRj1_7dG-175" value="DC Load" style="text;html=1;align=center;verticalAlign=middle;whiteSpace=wrap;rounded=0;fontSize=11;fontColor=#ff8000;" parent="1" vertex="1">
          <mxGeometry x="2882" y="2030" width="50" height="30" as="geometry" />
        </mxCell>
        <mxCell id="KkJVHoqy8BTquRj1_7dG-176" value="" style="curved=1;endArrow=classic;html=1;rounded=0;fontColor=#9b37ff;strokeColor=#9933ff;" parent="1" edge="1">
          <mxGeometry width="50" height="50" relative="1" as="geometry">
            <mxPoint x="2608" y="1882.5" as="sourcePoint" />
            <mxPoint x="2700" y="1870" as="targetPoint" />
            <Array as="points">
              <mxPoint x="2610" y="1840" />
            </Array>
          </mxGeometry>
        </mxCell>
        <mxCell id="KkJVHoqy8BTquRj1_7dG-178" value="AC Load" style="text;html=1;align=center;verticalAlign=middle;whiteSpace=wrap;rounded=0;fontSize=11;fontColor=#9933ff;" parent="1" vertex="1">
          <mxGeometry x="2624" y="1830" width="50" height="30" as="geometry" />
        </mxCell>
        <mxCell id="KkJVHoqy8BTquRj1_7dG-179" value="&lt;span style=&quot;font-size: 13px;&quot;&gt;$$v_{ce}=V_{CEQ}+I_{CQ}(R_L//R_C)-i_c(R_L//R_C)$$&lt;/span&gt;" style="rounded=1;whiteSpace=wrap;html=1;fillColor=#FEE0FF;strokeColor=#9933ff;" parent="1" vertex="1">
          <mxGeometry x="2670" y="1880" width="300" height="30" as="geometry" />
        </mxCell>
        <mxCell id="KkJVHoqy8BTquRj1_7dG-182" value="$$I_{CQ}$$" style="text;html=1;align=center;verticalAlign=middle;whiteSpace=wrap;rounded=0;fontSize=10;" parent="1" vertex="1">
          <mxGeometry x="2522" y="2002.04" width="38" height="30" as="geometry" />
        </mxCell>
        <mxCell id="KkJVHoqy8BTquRj1_7dG-183" value="$$V_{CEQ}+I_{CQ}(R_L//R_C)$$" style="text;html=1;align=center;verticalAlign=middle;whiteSpace=wrap;rounded=0;fontSize=10;" parent="1" vertex="1">
          <mxGeometry x="2857" y="2120" width="38" height="30" as="geometry" />
        </mxCell>
        <mxCell id="KkJVHoqy8BTquRj1_7dG-184" value="$$I_C+\frac{V_{CEQ}}{R_L//R_C}$$" style="text;html=1;align=center;verticalAlign=middle;whiteSpace=wrap;rounded=0;fontSize=10;" parent="1" vertex="1">
          <mxGeometry x="2495" y="1840" width="38" height="30" as="geometry" />
        </mxCell>
        <mxCell id="KkJVHoqy8BTquRj1_7dG-185" value="" style="endArrow=none;dashed=1;html=1;rounded=0;" parent="1" edge="1">
          <mxGeometry width="50" height="50" relative="1" as="geometry">
            <mxPoint x="2640" y="1920" as="sourcePoint" />
            <mxPoint x="2640" y="2120" as="targetPoint" />
          </mxGeometry>
        </mxCell>
        <mxCell id="KkJVHoqy8BTquRj1_7dG-188" value="" style="endArrow=none;dashed=1;html=1;rounded=0;entryX=0.5;entryY=0;entryDx=0;entryDy=0;" parent="1" target="KkJVHoqy8BTquRj1_7dG-165" edge="1">
          <mxGeometry width="50" height="50" relative="1" as="geometry">
            <mxPoint x="2960" y="1920" as="sourcePoint" />
            <mxPoint x="2960.71" y="2092.5" as="targetPoint" />
          </mxGeometry>
        </mxCell>
        <mxCell id="KkJVHoqy8BTquRj1_7dG-189" value="" style="endArrow=none;dashed=1;html=1;rounded=0;" parent="1" edge="1">
          <mxGeometry width="50" height="50" relative="1" as="geometry">
            <mxPoint x="2960" y="1920" as="sourcePoint" />
            <mxPoint x="2560" y="1920" as="targetPoint" />
          </mxGeometry>
        </mxCell>
        <mxCell id="KkJVHoqy8BTquRj1_7dG-190" value="" style="curved=1;endArrow=none;html=1;rounded=0;endFill=0;" parent="1" edge="1">
          <mxGeometry width="50" height="50" relative="1" as="geometry">
            <mxPoint x="2760" y="1920" as="sourcePoint" />
            <mxPoint x="2760" y="2020" as="targetPoint" />
            <Array as="points">
              <mxPoint x="2520" y="1970" />
            </Array>
          </mxGeometry>
        </mxCell>
        <mxCell id="KkJVHoqy8BTquRj1_7dG-192" value="" style="curved=1;endArrow=none;html=1;rounded=0;endFill=0;" parent="1" edge="1">
          <mxGeometry width="50" height="50" relative="1" as="geometry">
            <mxPoint x="2760" y="2019.54" as="sourcePoint" />
            <mxPoint x="2760" y="2119.54" as="targetPoint" />
            <Array as="points">
              <mxPoint x="3000" y="2069.54" />
            </Array>
          </mxGeometry>
        </mxCell>
        <mxCell id="KkJVHoqy8BTquRj1_7dG-193" value="" style="endArrow=none;dashed=1;html=1;rounded=0;" parent="1" edge="1">
          <mxGeometry width="50" height="50" relative="1" as="geometry">
            <mxPoint x="2880" y="1920" as="sourcePoint" />
            <mxPoint x="2880" y="2120" as="targetPoint" />
          </mxGeometry>
        </mxCell>
        <mxCell id="KkJVHoqy8BTquRj1_7dG-181" value="&lt;span style=&quot;font-size: 13px;&quot;&gt;$$V_{CC}=R_CI_{CQ}+V_{CEQ}$$&lt;/span&gt;" style="rounded=1;whiteSpace=wrap;html=1;fillColor=#FFF1CC;strokeColor=#ff8000;" parent="1" vertex="1">
          <mxGeometry x="2841" y="1975.04" width="174" height="30" as="geometry" />
        </mxCell>
        <mxCell id="KkJVHoqy8BTquRj1_7dG-194" value="" style="endArrow=none;html=1;rounded=0;strokeColor=#9933FF;dashed=1;" parent="1" edge="1">
          <mxGeometry width="50" height="50" relative="1" as="geometry">
            <mxPoint x="2560" y="1854" as="sourcePoint" />
            <mxPoint x="2640" y="1920" as="targetPoint" />
          </mxGeometry>
        </mxCell>
        <mxCell id="KkJVHoqy8BTquRj1_7dG-195" value="" style="endArrow=classic;startArrow=classic;html=1;rounded=0;" parent="1" edge="1">
          <mxGeometry width="50" height="50" relative="1" as="geometry">
            <mxPoint x="2640" y="2040.5" as="sourcePoint" />
            <mxPoint x="2760" y="2040.5" as="targetPoint" />
          </mxGeometry>
        </mxCell>
        <mxCell id="KkJVHoqy8BTquRj1_7dG-196" value="$$v_{p}$$" style="text;html=1;align=center;verticalAlign=middle;whiteSpace=wrap;rounded=0;fontSize=12;" parent="1" vertex="1">
          <mxGeometry x="2684" y="2042.5" width="30" height="17.5" as="geometry" />
        </mxCell>
        <mxCell id="KkJVHoqy8BTquRj1_7dG-199" value="&lt;span style=&quot;color: rgb(0, 0, 0); font-size: 9px;&quot;&gt;Q Point&lt;/span&gt;" style="rounded=1;whiteSpace=wrap;html=1;fillColor=#f5f5f5;fontColor=#333333;strokeColor=#666666;fontSize=9;" parent="1" vertex="1">
          <mxGeometry x="2760" y="1994.31" width="40" height="20.46" as="geometry" />
        </mxCell>
        <mxCell id="KkJVHoqy8BTquRj1_7dG-241" style="edgeStyle=orthogonalEdgeStyle;rounded=0;orthogonalLoop=1;jettySize=auto;html=1;exitX=1;exitY=0;exitDx=0;exitDy=0;exitPerimeter=0;strokeWidth=2;endArrow=none;endFill=0;" parent="1" source="KkJVHoqy8BTquRj1_7dG-203" edge="1">
          <mxGeometry relative="1" as="geometry">
            <mxPoint x="1480" y="2350" as="targetPoint" />
            <Array as="points">
              <mxPoint x="1480" y="2370" />
            </Array>
          </mxGeometry>
        </mxCell>
        <mxCell id="KkJVHoqy8BTquRj1_7dG-203" value="" style="verticalLabelPosition=bottom;shadow=0;dashed=0;align=center;html=1;verticalAlign=top;shape=mxgraph.electrical.transistors.npn_transistor_5;strokeWidth=2;" parent="1" vertex="1">
          <mxGeometry x="1416" y="2370" width="64" height="100" as="geometry" />
        </mxCell>
        <mxCell id="KkJVHoqy8BTquRj1_7dG-204" style="edgeStyle=orthogonalEdgeStyle;rounded=0;orthogonalLoop=1;jettySize=auto;html=1;exitX=1;exitY=0.5;exitDx=0;exitDy=0;exitPerimeter=0;strokeWidth=2;endArrow=none;endFill=0;" parent="1" source="KkJVHoqy8BTquRj1_7dG-205" edge="1">
          <mxGeometry relative="1" as="geometry">
            <mxPoint x="1559.857142857143" y="2664.7" as="targetPoint" />
          </mxGeometry>
        </mxCell>
        <mxCell id="KkJVHoqy8BTquRj1_7dG-205" value="" style="pointerEvents=1;verticalLabelPosition=bottom;shadow=0;dashed=0;align=center;html=1;verticalAlign=top;shape=mxgraph.electrical.resistors.resistor_2;rotation=90;strokeWidth=2;" parent="1" vertex="1">
          <mxGeometry x="1510" y="2564.7" width="100" height="20" as="geometry" />
        </mxCell>
        <mxCell id="KkJVHoqy8BTquRj1_7dG-207" value="" style="endArrow=none;html=1;rounded=0;strokeWidth=2;" parent="1" edge="1">
          <mxGeometry width="50" height="50" relative="1" as="geometry">
            <mxPoint x="1550" y="2664.7" as="sourcePoint" />
            <mxPoint x="1570" y="2664.7" as="targetPoint" />
          </mxGeometry>
        </mxCell>
        <mxCell id="KkJVHoqy8BTquRj1_7dG-210" value="" style="endArrow=none;html=1;rounded=0;strokeWidth=2;" parent="1" edge="1">
          <mxGeometry width="50" height="50" relative="1" as="geometry">
            <mxPoint x="1555" y="2669.44" as="sourcePoint" />
            <mxPoint x="1565" y="2669.44" as="targetPoint" />
          </mxGeometry>
        </mxCell>
        <mxCell id="KkJVHoqy8BTquRj1_7dG-211" value="$$R_L=1k\Omega$$" style="text;html=1;align=center;verticalAlign=middle;whiteSpace=wrap;rounded=0;fontSize=16;" parent="1" vertex="1">
          <mxGeometry x="1580" y="2600" width="60" height="30" as="geometry" />
        </mxCell>
        <mxCell id="KkJVHoqy8BTquRj1_7dG-212" value="$$v_i$$" style="text;html=1;align=center;verticalAlign=middle;whiteSpace=wrap;rounded=0;fontSize=16;" parent="1" vertex="1">
          <mxGeometry x="1396" y="2385" width="20" height="30" as="geometry" />
        </mxCell>
        <mxCell id="KkJVHoqy8BTquRj1_7dG-215" value="$$v_o$$" style="text;html=1;align=center;verticalAlign=middle;whiteSpace=wrap;rounded=0;fontSize=16;" parent="1" vertex="1">
          <mxGeometry x="1520" y="2558.6" width="23" height="30" as="geometry" />
        </mxCell>
        <mxCell id="KkJVHoqy8BTquRj1_7dG-216" value="+" style="text;html=1;align=center;verticalAlign=middle;whiteSpace=wrap;rounded=0;fontSize=16;" parent="1" vertex="1">
          <mxGeometry x="1525" y="2533.2999999999997" width="13" height="17.5" as="geometry" />
        </mxCell>
        <mxCell id="KkJVHoqy8BTquRj1_7dG-217" value="-" style="text;html=1;align=center;verticalAlign=middle;whiteSpace=wrap;rounded=0;fontSize=16;" parent="1" vertex="1">
          <mxGeometry x="1525" y="2603.6" width="13" height="12.5" as="geometry" />
        </mxCell>
        <mxCell id="KkJVHoqy8BTquRj1_7dG-227" value="" style="endArrow=none;html=1;rounded=0;strokeWidth=2;" parent="1" edge="1">
          <mxGeometry width="50" height="50" relative="1" as="geometry">
            <mxPoint x="1470" y="2350" as="sourcePoint" />
            <mxPoint x="1490" y="2350" as="targetPoint" />
          </mxGeometry>
        </mxCell>
        <mxCell id="KkJVHoqy8BTquRj1_7dG-231" style="edgeStyle=orthogonalEdgeStyle;rounded=0;orthogonalLoop=1;jettySize=auto;html=1;exitX=1;exitY=1;exitDx=0;exitDy=0;exitPerimeter=0;entryX=0;entryY=0.5;entryDx=0;entryDy=0;entryPerimeter=0;endArrow=none;endFill=0;strokeWidth=2;" parent="1" source="KkJVHoqy8BTquRj1_7dG-203" target="KkJVHoqy8BTquRj1_7dG-205" edge="1">
          <mxGeometry relative="1" as="geometry">
            <mxPoint x="1523" y="2489.7" as="sourcePoint" />
            <Array as="points">
              <mxPoint x="1480" y="2490" />
              <mxPoint x="1560" y="2490" />
            </Array>
          </mxGeometry>
        </mxCell>
        <mxCell id="KkJVHoqy8BTquRj1_7dG-232" value="$$V_{CC}=10V$$" style="text;html=1;align=center;verticalAlign=middle;whiteSpace=wrap;rounded=0;fontSize=16;" parent="1" vertex="1">
          <mxGeometry x="1450" y="2320" width="60" height="30" as="geometry" />
        </mxCell>
        <mxCell id="KkJVHoqy8BTquRj1_7dG-235" value="$$\beta=200$$" style="text;html=1;align=center;verticalAlign=middle;whiteSpace=wrap;rounded=0;fontSize=16;" parent="1" vertex="1">
          <mxGeometry x="1478" y="2405" width="60" height="30" as="geometry" />
        </mxCell>
        <mxCell id="KkJVHoqy8BTquRj1_7dG-242" value="" style="verticalLabelPosition=bottom;shadow=0;dashed=0;align=center;html=1;verticalAlign=top;shape=mxgraph.electrical.logic_gates.inverting_contact;strokeWidth=2;" parent="1" vertex="1">
          <mxGeometry x="1408" y="2414.9999999999995" width="10" height="10" as="geometry" />
        </mxCell>
        <mxCell id="KkJVHoqy8BTquRj1_7dG-257" style="edgeStyle=orthogonalEdgeStyle;rounded=0;orthogonalLoop=1;jettySize=auto;html=1;exitX=1;exitY=1;exitDx=0;exitDy=0;exitPerimeter=0;strokeWidth=2;endArrow=none;endFill=0;" parent="1" source="KkJVHoqy8BTquRj1_7dG-244" edge="1">
          <mxGeometry relative="1" as="geometry">
            <mxPoint x="1414.82" y="2685" as="targetPoint" />
            <mxPoint x="1479.6381818181815" y="2650" as="sourcePoint" />
            <Array as="points">
              <mxPoint x="1480" y="2655" />
              <mxPoint x="1415" y="2655" />
            </Array>
          </mxGeometry>
        </mxCell>
        <mxCell id="KkJVHoqy8BTquRj1_7dG-244" value="" style="verticalLabelPosition=bottom;shadow=0;dashed=0;align=center;html=1;verticalAlign=top;shape=mxgraph.electrical.transistors.npn_transistor_5;strokeWidth=2;" parent="1" vertex="1">
          <mxGeometry x="1416" y="2525" width="64" height="100" as="geometry" />
        </mxCell>
        <mxCell id="KkJVHoqy8BTquRj1_7dG-256" style="edgeStyle=orthogonalEdgeStyle;rounded=0;orthogonalLoop=1;jettySize=auto;html=1;exitX=1;exitY=1;exitDx=0;exitDy=0;exitPerimeter=0;strokeWidth=2;endArrow=none;endFill=0;" parent="1" source="KkJVHoqy8BTquRj1_7dG-246" edge="1">
          <mxGeometry relative="1" as="geometry">
            <mxPoint x="1413.8200000000002" y="2685" as="targetPoint" />
            <mxPoint x="1350.091818181818" y="2650" as="sourcePoint" />
            <Array as="points">
              <mxPoint x="1350" y="2655" />
              <mxPoint x="1415" y="2655" />
              <mxPoint x="1415" y="2685" />
            </Array>
          </mxGeometry>
        </mxCell>
        <mxCell id="KkJVHoqy8BTquRj1_7dG-246" value="" style="verticalLabelPosition=bottom;shadow=0;dashed=0;align=center;html=1;verticalAlign=top;shape=mxgraph.electrical.transistors.npn_transistor_5;strokeWidth=2;flipH=1;" parent="1" vertex="1">
          <mxGeometry x="1350.09" y="2525" width="64" height="100" as="geometry" />
        </mxCell>
        <mxCell id="KkJVHoqy8BTquRj1_7dG-251" style="edgeStyle=orthogonalEdgeStyle;rounded=0;orthogonalLoop=1;jettySize=auto;html=1;exitX=0;exitY=0.5;exitDx=0;exitDy=0;exitPerimeter=0;strokeWidth=2;endArrow=none;endFill=0;" parent="1" source="KkJVHoqy8BTquRj1_7dG-247" edge="1">
          <mxGeometry relative="1" as="geometry">
            <mxPoint x="1296.0900000000001" y="2460" as="targetPoint" />
            <Array as="points">
              <mxPoint x="1350.09" y="2440" />
              <mxPoint x="1296.09" y="2440" />
            </Array>
          </mxGeometry>
        </mxCell>
        <mxCell id="KkJVHoqy8BTquRj1_7dG-247" value="" style="pointerEvents=1;verticalLabelPosition=bottom;shadow=0;dashed=0;align=center;html=1;verticalAlign=top;shape=mxgraph.electrical.resistors.resistor_2;rotation=90;strokeWidth=2;" parent="1" vertex="1">
          <mxGeometry x="1310.09" y="2479" width="80" height="20" as="geometry" />
        </mxCell>
        <mxCell id="KkJVHoqy8BTquRj1_7dG-248" style="edgeStyle=orthogonalEdgeStyle;rounded=0;orthogonalLoop=1;jettySize=auto;html=1;exitX=1;exitY=0;exitDx=0;exitDy=0;exitPerimeter=0;entryX=1;entryY=1;entryDx=0;entryDy=0;entryPerimeter=0;strokeWidth=2;endArrow=none;endFill=0;" parent="1" source="KkJVHoqy8BTquRj1_7dG-244" target="KkJVHoqy8BTquRj1_7dG-203" edge="1">
          <mxGeometry relative="1" as="geometry" />
        </mxCell>
        <mxCell id="KkJVHoqy8BTquRj1_7dG-249" value="" style="endArrow=none;html=1;rounded=0;strokeWidth=2;" parent="1" edge="1">
          <mxGeometry width="50" height="50" relative="1" as="geometry">
            <mxPoint x="1286.09" y="2460" as="sourcePoint" />
            <mxPoint x="1306.09" y="2460" as="targetPoint" />
          </mxGeometry>
        </mxCell>
        <mxCell id="KkJVHoqy8BTquRj1_7dG-250" value="" style="endArrow=none;html=1;rounded=0;strokeWidth=2;" parent="1" edge="1">
          <mxGeometry width="50" height="50" relative="1" as="geometry">
            <mxPoint x="1291.09" y="2464.7400000000002" as="sourcePoint" />
            <mxPoint x="1301.09" y="2464.7400000000002" as="targetPoint" />
          </mxGeometry>
        </mxCell>
        <mxCell id="KkJVHoqy8BTquRj1_7dG-252" value="" style="endArrow=none;html=1;rounded=0;strokeWidth=2;" parent="1" edge="1">
          <mxGeometry width="50" height="50" relative="1" as="geometry">
            <mxPoint x="1404.82" y="2685" as="sourcePoint" />
            <mxPoint x="1424.82" y="2685" as="targetPoint" />
          </mxGeometry>
        </mxCell>
        <mxCell id="KkJVHoqy8BTquRj1_7dG-255" style="edgeStyle=orthogonalEdgeStyle;rounded=0;orthogonalLoop=1;jettySize=auto;html=1;exitX=0;exitY=0.5;exitDx=0;exitDy=0;exitPerimeter=0;entryX=0;entryY=0.5;entryDx=0;entryDy=0;entryPerimeter=0;strokeWidth=2;endArrow=none;endFill=0;" parent="1" source="KkJVHoqy8BTquRj1_7dG-246" target="KkJVHoqy8BTquRj1_7dG-244" edge="1">
          <mxGeometry relative="1" as="geometry" />
        </mxCell>
        <mxCell id="KkJVHoqy8BTquRj1_7dG-259" value="$$-V_{CC}=-10V$$" style="text;html=1;align=center;verticalAlign=middle;whiteSpace=wrap;rounded=0;fontSize=16;" parent="1" vertex="1">
          <mxGeometry x="1383" y="2680" width="60" height="30" as="geometry" />
        </mxCell>
        <mxCell id="KkJVHoqy8BTquRj1_7dG-260" value="$$R$$" style="text;html=1;align=center;verticalAlign=middle;whiteSpace=wrap;rounded=0;fontSize=16;" parent="1" vertex="1">
          <mxGeometry x="1363" y="2474" width="20" height="30" as="geometry" />
        </mxCell>
        <mxCell id="KkJVHoqy8BTquRj1_7dG-291" value="$$Q_1$$" style="text;html=1;align=center;verticalAlign=middle;whiteSpace=wrap;rounded=0;fontSize=16;" parent="1" vertex="1">
          <mxGeometry x="1470" y="2440" width="60" height="30" as="geometry" />
        </mxCell>
        <mxCell id="KkJVHoqy8BTquRj1_7dG-292" value="$$Q_2$$" style="text;html=1;align=center;verticalAlign=middle;whiteSpace=wrap;rounded=0;fontSize=16;" parent="1" vertex="1">
          <mxGeometry x="1433" y="2603.6" width="30" height="30" as="geometry" />
        </mxCell>
        <mxCell id="KkJVHoqy8BTquRj1_7dG-293" value="$$Q_3$$" style="text;html=1;align=center;verticalAlign=middle;whiteSpace=wrap;rounded=0;fontSize=16;" parent="1" vertex="1">
          <mxGeometry x="1363" y="2603.6" width="30" height="30" as="geometry" />
        </mxCell>
        <mxCell id="KkJVHoqy8BTquRj1_7dG-294" style="edgeStyle=orthogonalEdgeStyle;rounded=0;orthogonalLoop=1;jettySize=auto;html=1;exitX=1;exitY=0;exitDx=0;exitDy=0;exitPerimeter=0;strokeWidth=2;endArrow=none;endFill=0;" parent="1" source="KkJVHoqy8BTquRj1_7dG-295" edge="1">
          <mxGeometry relative="1" as="geometry">
            <mxPoint x="1834" y="2350" as="targetPoint" />
            <Array as="points">
              <mxPoint x="1834" y="2370" />
            </Array>
          </mxGeometry>
        </mxCell>
        <mxCell id="KkJVHoqy8BTquRj1_7dG-295" value="" style="verticalLabelPosition=bottom;shadow=0;dashed=0;align=center;html=1;verticalAlign=top;shape=mxgraph.electrical.transistors.npn_transistor_5;strokeWidth=2;" parent="1" vertex="1">
          <mxGeometry x="1770" y="2370" width="64" height="100" as="geometry" />
        </mxCell>
        <mxCell id="KkJVHoqy8BTquRj1_7dG-296" style="edgeStyle=orthogonalEdgeStyle;rounded=0;orthogonalLoop=1;jettySize=auto;html=1;exitX=1;exitY=0.5;exitDx=0;exitDy=0;exitPerimeter=0;strokeWidth=2;endArrow=none;endFill=0;" parent="1" source="KkJVHoqy8BTquRj1_7dG-297" edge="1">
          <mxGeometry relative="1" as="geometry">
            <mxPoint x="1913.857142857143" y="2664.7" as="targetPoint" />
          </mxGeometry>
        </mxCell>
        <mxCell id="KkJVHoqy8BTquRj1_7dG-297" value="" style="pointerEvents=1;verticalLabelPosition=bottom;shadow=0;dashed=0;align=center;html=1;verticalAlign=top;shape=mxgraph.electrical.resistors.resistor_2;rotation=90;strokeWidth=2;" parent="1" vertex="1">
          <mxGeometry x="1864" y="2564.7" width="100" height="20" as="geometry" />
        </mxCell>
        <mxCell id="KkJVHoqy8BTquRj1_7dG-298" value="" style="endArrow=none;html=1;rounded=0;strokeWidth=2;" parent="1" edge="1">
          <mxGeometry width="50" height="50" relative="1" as="geometry">
            <mxPoint x="1904" y="2664.7" as="sourcePoint" />
            <mxPoint x="1924" y="2664.7" as="targetPoint" />
          </mxGeometry>
        </mxCell>
        <mxCell id="KkJVHoqy8BTquRj1_7dG-299" value="" style="endArrow=none;html=1;rounded=0;strokeWidth=2;" parent="1" edge="1">
          <mxGeometry width="50" height="50" relative="1" as="geometry">
            <mxPoint x="1909" y="2669.44" as="sourcePoint" />
            <mxPoint x="1919" y="2669.44" as="targetPoint" />
          </mxGeometry>
        </mxCell>
        <mxCell id="KkJVHoqy8BTquRj1_7dG-300" value="$$R_L=1k\Omega$$" style="text;html=1;align=center;verticalAlign=middle;whiteSpace=wrap;rounded=0;fontSize=16;" parent="1" vertex="1">
          <mxGeometry x="1942.5" y="2560" width="60" height="30" as="geometry" />
        </mxCell>
        <mxCell id="KkJVHoqy8BTquRj1_7dG-301" value="$$v_i$$" style="text;html=1;align=center;verticalAlign=middle;whiteSpace=wrap;rounded=0;fontSize=16;" parent="1" vertex="1">
          <mxGeometry x="1750" y="2385" width="20" height="30" as="geometry" />
        </mxCell>
        <mxCell id="KkJVHoqy8BTquRj1_7dG-302" value="$$v_o$$" style="text;html=1;align=center;verticalAlign=middle;whiteSpace=wrap;rounded=0;fontSize=16;" parent="1" vertex="1">
          <mxGeometry x="1874" y="2558.6" width="23" height="30" as="geometry" />
        </mxCell>
        <mxCell id="KkJVHoqy8BTquRj1_7dG-303" value="+" style="text;html=1;align=center;verticalAlign=middle;whiteSpace=wrap;rounded=0;fontSize=16;" parent="1" vertex="1">
          <mxGeometry x="1879" y="2533.2999999999997" width="13" height="17.5" as="geometry" />
        </mxCell>
        <mxCell id="KkJVHoqy8BTquRj1_7dG-304" value="-" style="text;html=1;align=center;verticalAlign=middle;whiteSpace=wrap;rounded=0;fontSize=16;" parent="1" vertex="1">
          <mxGeometry x="1879" y="2603.6" width="13" height="12.5" as="geometry" />
        </mxCell>
        <mxCell id="KkJVHoqy8BTquRj1_7dG-305" value="" style="endArrow=none;html=1;rounded=0;strokeWidth=2;" parent="1" edge="1">
          <mxGeometry width="50" height="50" relative="1" as="geometry">
            <mxPoint x="1824" y="2350" as="sourcePoint" />
            <mxPoint x="1844" y="2350" as="targetPoint" />
          </mxGeometry>
        </mxCell>
        <mxCell id="KkJVHoqy8BTquRj1_7dG-306" style="edgeStyle=orthogonalEdgeStyle;rounded=0;orthogonalLoop=1;jettySize=auto;html=1;exitX=1;exitY=1;exitDx=0;exitDy=0;exitPerimeter=0;entryX=0;entryY=0.5;entryDx=0;entryDy=0;entryPerimeter=0;endArrow=none;endFill=0;strokeWidth=2;" parent="1" source="KkJVHoqy8BTquRj1_7dG-295" target="KkJVHoqy8BTquRj1_7dG-297" edge="1">
          <mxGeometry relative="1" as="geometry">
            <mxPoint x="1877" y="2489.7" as="sourcePoint" />
            <Array as="points">
              <mxPoint x="1834" y="2490" />
              <mxPoint x="1914" y="2490" />
            </Array>
          </mxGeometry>
        </mxCell>
        <mxCell id="KkJVHoqy8BTquRj1_7dG-307" value="$$V_{CC}=10V$$" style="text;html=1;align=center;verticalAlign=middle;whiteSpace=wrap;rounded=0;fontSize=16;" parent="1" vertex="1">
          <mxGeometry x="1804" y="2320" width="60" height="30" as="geometry" />
        </mxCell>
        <mxCell id="KkJVHoqy8BTquRj1_7dG-308" value="$$\beta=200$$" style="text;html=1;align=center;verticalAlign=middle;whiteSpace=wrap;rounded=0;fontSize=16;" parent="1" vertex="1">
          <mxGeometry x="1832" y="2405" width="60" height="30" as="geometry" />
        </mxCell>
        <mxCell id="KkJVHoqy8BTquRj1_7dG-309" value="" style="verticalLabelPosition=bottom;shadow=0;dashed=0;align=center;html=1;verticalAlign=top;shape=mxgraph.electrical.logic_gates.inverting_contact;strokeWidth=2;" parent="1" vertex="1">
          <mxGeometry x="1762" y="2414.9999999999995" width="10" height="10" as="geometry" />
        </mxCell>
        <mxCell id="KkJVHoqy8BTquRj1_7dG-316" style="edgeStyle=orthogonalEdgeStyle;rounded=0;orthogonalLoop=1;jettySize=auto;html=1;exitX=1;exitY=0.5;exitDx=0;exitDy=0;exitPerimeter=0;entryX=1;entryY=1;entryDx=0;entryDy=0;entryPerimeter=0;strokeWidth=2;endArrow=none;endFill=0;" parent="1" source="0VXw5R4QeLgqOWBGoTQH-80" target="KkJVHoqy8BTquRj1_7dG-295" edge="1">
          <mxGeometry relative="1" as="geometry">
            <mxPoint x="1833.8181818181813" y="2525" as="sourcePoint" />
            <Array as="points">
              <mxPoint x="1834" y="2515" />
            </Array>
          </mxGeometry>
        </mxCell>
        <mxCell id="KkJVHoqy8BTquRj1_7dG-323" value="$$Q_1$$" style="text;html=1;align=center;verticalAlign=middle;whiteSpace=wrap;rounded=0;fontSize=16;" parent="1" vertex="1">
          <mxGeometry x="1824" y="2440" width="60" height="30" as="geometry" />
        </mxCell>
        <mxCell id="KkJVHoqy8BTquRj1_7dG-326" value="" style="endArrow=none;html=1;rounded=0;strokeWidth=2;" parent="1" edge="1">
          <mxGeometry width="50" height="50" relative="1" as="geometry">
            <mxPoint x="1824" y="2660" as="sourcePoint" />
            <mxPoint x="1844" y="2660" as="targetPoint" />
          </mxGeometry>
        </mxCell>
        <mxCell id="KkJVHoqy8BTquRj1_7dG-327" value="$$-V_{CC}=-10V$$" style="text;html=1;align=center;verticalAlign=middle;whiteSpace=wrap;rounded=0;fontSize=16;" parent="1" vertex="1">
          <mxGeometry x="1803.59" y="2660" width="60" height="30" as="geometry" />
        </mxCell>
        <mxCell id="KkJVHoqy8BTquRj1_7dG-329" style="edgeStyle=orthogonalEdgeStyle;rounded=0;orthogonalLoop=1;jettySize=auto;html=1;exitX=1;exitY=0.5;exitDx=0;exitDy=0;exitPerimeter=0;entryX=0;entryY=0.5;entryDx=0;entryDy=0;entryPerimeter=0;strokeWidth=2;endArrow=none;endFill=0;" parent="1" source="KkJVHoqy8BTquRj1_7dG-247" target="KkJVHoqy8BTquRj1_7dG-244" edge="1">
          <mxGeometry relative="1" as="geometry">
            <Array as="points">
              <mxPoint x="1416" y="2529" />
            </Array>
          </mxGeometry>
        </mxCell>
        <mxCell id="0VXw5R4QeLgqOWBGoTQH-80" value="" style="pointerEvents=1;verticalLabelPosition=bottom;shadow=0;dashed=0;align=center;html=1;verticalAlign=top;shape=mxgraph.electrical.signal_sources.source;aspect=fixed;points=[[0.5,0,0],[1,0.5,0],[0.5,1,0],[0,0.5,0]];elSignalType=dc1;rotation=-90;strokeWidth=2;flipV=1;flipH=1;" parent="1" vertex="1">
          <mxGeometry x="1814" y="2560" width="40" height="40" as="geometry" />
        </mxCell>
        <mxCell id="KkJVHoqy8BTquRj1_7dG-330" value="$$I_Q=\frac{V_{CC}-V_{BE}}{R}$$" style="text;html=1;align=center;verticalAlign=middle;whiteSpace=wrap;rounded=0;fontSize=16;" parent="1" vertex="1">
          <mxGeometry x="1721.5" y="2527.0499999999997" width="60" height="30" as="geometry" />
        </mxCell>
        <mxCell id="KkJVHoqy8BTquRj1_7dG-331" value="" style="shape=flexArrow;endArrow=classic;html=1;rounded=0;strokeWidth=2;" parent="1" edge="1">
          <mxGeometry width="50" height="50" relative="1" as="geometry">
            <mxPoint x="1620" y="2488.78" as="sourcePoint" />
            <mxPoint x="1719.5" y="2488.78" as="targetPoint" />
          </mxGeometry>
        </mxCell>
        <mxCell id="KkJVHoqy8BTquRj1_7dG-333" style="edgeStyle=orthogonalEdgeStyle;rounded=0;orthogonalLoop=1;jettySize=auto;html=1;exitX=1;exitY=0;exitDx=0;exitDy=0;exitPerimeter=0;strokeWidth=2;endArrow=none;endFill=0;" parent="1" source="KkJVHoqy8BTquRj1_7dG-334" edge="1">
          <mxGeometry relative="1" as="geometry">
            <mxPoint x="1480" y="2820" as="targetPoint" />
            <Array as="points">
              <mxPoint x="1480" y="2840" />
            </Array>
          </mxGeometry>
        </mxCell>
        <mxCell id="KkJVHoqy8BTquRj1_7dG-334" value="" style="verticalLabelPosition=bottom;shadow=0;dashed=0;align=center;html=1;verticalAlign=top;shape=mxgraph.electrical.transistors.npn_transistor_5;strokeWidth=2;" parent="1" vertex="1">
          <mxGeometry x="1416" y="2860" width="64" height="100" as="geometry" />
        </mxCell>
        <mxCell id="KkJVHoqy8BTquRj1_7dG-335" value="$$v_i$$" style="text;html=1;align=center;verticalAlign=middle;whiteSpace=wrap;rounded=0;fontSize=12;" parent="1" vertex="1">
          <mxGeometry x="1250" y="3040" width="20" height="15" as="geometry" />
        </mxCell>
        <mxCell id="KkJVHoqy8BTquRj1_7dG-336" value="" style="endArrow=none;html=1;rounded=0;strokeWidth=2;" parent="1" edge="1">
          <mxGeometry width="50" height="50" relative="1" as="geometry">
            <mxPoint x="1470" y="2820" as="sourcePoint" />
            <mxPoint x="1490" y="2820" as="targetPoint" />
          </mxGeometry>
        </mxCell>
        <mxCell id="KkJVHoqy8BTquRj1_7dG-337" value="$$V_{CC}=12V$$" style="text;html=1;align=center;verticalAlign=middle;whiteSpace=wrap;rounded=0;fontSize=12;" parent="1" vertex="1">
          <mxGeometry x="1450" y="2790" width="60" height="30" as="geometry" />
        </mxCell>
        <mxCell id="KkJVHoqy8BTquRj1_7dG-340" value="$$Q_1$$" style="text;html=1;align=center;verticalAlign=middle;whiteSpace=wrap;rounded=0;fontSize=12;" parent="1" vertex="1">
          <mxGeometry x="1470" y="2900" width="31.5" height="20" as="geometry" />
        </mxCell>
        <mxCell id="KkJVHoqy8BTquRj1_7dG-350" style="edgeStyle=orthogonalEdgeStyle;rounded=0;orthogonalLoop=1;jettySize=auto;html=1;exitX=1;exitY=1;exitDx=0;exitDy=0;exitPerimeter=0;strokeWidth=2;endArrow=none;endFill=0;" parent="1" source="KkJVHoqy8BTquRj1_7dG-341" edge="1">
          <mxGeometry relative="1" as="geometry">
            <mxPoint x="1479.7333333333333" y="3200" as="targetPoint" />
          </mxGeometry>
        </mxCell>
        <mxCell id="KkJVHoqy8BTquRj1_7dG-341" value="" style="verticalLabelPosition=bottom;shadow=0;dashed=0;align=center;html=1;verticalAlign=top;shape=mxgraph.electrical.transistors.npn_transistor_5;strokeWidth=2;" parent="1" vertex="1">
          <mxGeometry x="1416" y="3070" width="64" height="100" as="geometry" />
        </mxCell>
        <mxCell id="KkJVHoqy8BTquRj1_7dG-354" style="edgeStyle=orthogonalEdgeStyle;rounded=0;orthogonalLoop=1;jettySize=auto;html=1;exitX=0;exitY=0.5;exitDx=0;exitDy=0;exitPerimeter=0;entryX=0.9;entryY=0.5;entryDx=0;entryDy=0;entryPerimeter=0;strokeWidth=2;endArrow=none;endFill=0;" parent="1" source="KkJVHoqy8BTquRj1_7dG-343" target="KkJVHoqy8BTquRj1_7dG-355" edge="1">
          <mxGeometry relative="1" as="geometry">
            <mxPoint x="1280" y="3060.186046511628" as="targetPoint" />
          </mxGeometry>
        </mxCell>
        <mxCell id="KkJVHoqy8BTquRj1_7dG-343" value="" style="verticalLabelPosition=bottom;shadow=0;dashed=0;align=center;html=1;verticalAlign=top;shape=mxgraph.electrical.transistors.pnp_transistor_5;strokeWidth=2;" parent="1" vertex="1">
          <mxGeometry x="1332.18" y="3010" width="64" height="100" as="geometry" />
        </mxCell>
        <mxCell id="KkJVHoqy8BTquRj1_7dG-345" style="edgeStyle=orthogonalEdgeStyle;rounded=0;orthogonalLoop=1;jettySize=auto;html=1;exitX=1;exitY=1;exitDx=0;exitDy=0;exitPerimeter=0;entryX=1;entryY=0;entryDx=0;entryDy=0;entryPerimeter=0;strokeWidth=2;endArrow=none;endFill=0;" parent="1" source="KkJVHoqy8BTquRj1_7dG-334" target="KkJVHoqy8BTquRj1_7dG-341" edge="1">
          <mxGeometry relative="1" as="geometry" />
        </mxCell>
        <mxCell id="KkJVHoqy8BTquRj1_7dG-346" style="edgeStyle=orthogonalEdgeStyle;rounded=0;orthogonalLoop=1;jettySize=auto;html=1;exitX=1;exitY=1;exitDx=0;exitDy=0;exitPerimeter=0;entryX=0;entryY=0.5;entryDx=0;entryDy=0;entryPerimeter=0;strokeWidth=2;endArrow=none;endFill=0;" parent="1" source="KkJVHoqy8BTquRj1_7dG-343" target="KkJVHoqy8BTquRj1_7dG-341" edge="1">
          <mxGeometry relative="1" as="geometry">
            <Array as="points">
              <mxPoint x="1396" y="3120" />
            </Array>
          </mxGeometry>
        </mxCell>
        <mxCell id="KkJVHoqy8BTquRj1_7dG-347" style="edgeStyle=orthogonalEdgeStyle;rounded=0;orthogonalLoop=1;jettySize=auto;html=1;exitX=1;exitY=0;exitDx=0;exitDy=0;exitPerimeter=0;entryX=1;entryY=0;entryDx=0;entryDy=0;entryPerimeter=0;strokeWidth=2;endArrow=none;endFill=0;" parent="1" source="KkJVHoqy8BTquRj1_7dG-343" target="KkJVHoqy8BTquRj1_7dG-341" edge="1">
          <mxGeometry relative="1" as="geometry">
            <Array as="points">
              <mxPoint x="1396" y="3000" />
              <mxPoint x="1480" y="3000" />
            </Array>
          </mxGeometry>
        </mxCell>
        <mxCell id="KkJVHoqy8BTquRj1_7dG-348" value="" style="endArrow=none;html=1;rounded=0;strokeWidth=2;" parent="1" edge="1">
          <mxGeometry width="50" height="50" relative="1" as="geometry">
            <mxPoint x="1470" y="3200" as="sourcePoint" />
            <mxPoint x="1490" y="3200" as="targetPoint" />
          </mxGeometry>
        </mxCell>
        <mxCell id="KkJVHoqy8BTquRj1_7dG-349" value="$$-V_{CC}=-12V$$" style="text;html=1;align=center;verticalAlign=middle;whiteSpace=wrap;rounded=0;fontSize=12;" parent="1" vertex="1">
          <mxGeometry x="1450" y="3200" width="60" height="30" as="geometry" />
        </mxCell>
        <mxCell id="KkJVHoqy8BTquRj1_7dG-351" value="" style="pointerEvents=1;fillColor=strokeColor;verticalLabelPosition=bottom;shadow=0;dashed=0;align=center;html=1;verticalAlign=top;shape=mxgraph.electrical.diodes.diode;rotation=90;strokeWidth=2;" parent="1" vertex="1">
          <mxGeometry x="1285" y="2940" width="55" height="25" as="geometry" />
        </mxCell>
        <mxCell id="KkJVHoqy8BTquRj1_7dG-352" value="" style="pointerEvents=1;fillColor=strokeColor;verticalLabelPosition=bottom;shadow=0;dashed=0;align=center;html=1;verticalAlign=top;shape=mxgraph.electrical.diodes.diode;rotation=90;strokeWidth=2;" parent="1" vertex="1">
          <mxGeometry x="1285" y="3000" width="55" height="25" as="geometry" />
        </mxCell>
        <mxCell id="KkJVHoqy8BTquRj1_7dG-353" style="edgeStyle=orthogonalEdgeStyle;rounded=0;orthogonalLoop=1;jettySize=auto;html=1;exitX=1;exitY=0.5;exitDx=0;exitDy=0;exitPerimeter=0;entryX=0;entryY=0.5;entryDx=0;entryDy=0;entryPerimeter=0;strokeWidth=2;endArrow=none;endFill=0;" parent="1" source="KkJVHoqy8BTquRj1_7dG-352" target="KkJVHoqy8BTquRj1_7dG-343" edge="1">
          <mxGeometry relative="1" as="geometry">
            <Array as="points">
              <mxPoint x="1313" y="3060" />
            </Array>
          </mxGeometry>
        </mxCell>
        <mxCell id="KkJVHoqy8BTquRj1_7dG-355" value="" style="verticalLabelPosition=bottom;shadow=0;dashed=0;align=center;html=1;verticalAlign=top;shape=mxgraph.electrical.logic_gates.inverting_contact;strokeWidth=2;" parent="1" vertex="1">
          <mxGeometry x="1270" y="3054.9999999999995" width="10" height="10" as="geometry" />
        </mxCell>
        <mxCell id="KkJVHoqy8BTquRj1_7dG-356" style="edgeStyle=orthogonalEdgeStyle;rounded=0;orthogonalLoop=1;jettySize=auto;html=1;exitX=1;exitY=0.5;exitDx=0;exitDy=0;exitPerimeter=0;entryX=0;entryY=0.5;entryDx=0;entryDy=0;entryPerimeter=0;strokeWidth=2;endArrow=none;endFill=0;" parent="1" source="KkJVHoqy8BTquRj1_7dG-351" target="KkJVHoqy8BTquRj1_7dG-352" edge="1">
          <mxGeometry relative="1" as="geometry" />
        </mxCell>
        <mxCell id="KkJVHoqy8BTquRj1_7dG-357" style="edgeStyle=orthogonalEdgeStyle;rounded=0;orthogonalLoop=1;jettySize=auto;html=1;exitX=0;exitY=0.5;exitDx=0;exitDy=0;exitPerimeter=0;entryX=0;entryY=0.5;entryDx=0;entryDy=0;entryPerimeter=0;strokeWidth=2;endArrow=none;endFill=0;" parent="1" source="KkJVHoqy8BTquRj1_7dG-351" target="KkJVHoqy8BTquRj1_7dG-334" edge="1">
          <mxGeometry relative="1" as="geometry">
            <Array as="points">
              <mxPoint x="1312" y="2910" />
            </Array>
          </mxGeometry>
        </mxCell>
        <mxCell id="KkJVHoqy8BTquRj1_7dG-359" style="edgeStyle=orthogonalEdgeStyle;rounded=0;orthogonalLoop=1;jettySize=auto;html=1;exitX=0;exitY=0.5;exitDx=0;exitDy=0;exitPerimeter=0;strokeWidth=2;endArrow=none;endFill=0;" parent="1" source="KkJVHoqy8BTquRj1_7dG-358" edge="1">
          <mxGeometry relative="1" as="geometry">
            <mxPoint x="1480" y="2820" as="targetPoint" />
            <Array as="points">
              <mxPoint x="1313" y="2830" />
              <mxPoint x="1480" y="2830" />
            </Array>
          </mxGeometry>
        </mxCell>
        <mxCell id="KkJVHoqy8BTquRj1_7dG-358" value="" style="pointerEvents=1;verticalLabelPosition=bottom;shadow=0;dashed=0;align=center;html=1;verticalAlign=top;shape=mxgraph.electrical.signal_sources.source;aspect=fixed;points=[[0.5,0,0],[1,0.5,0],[0.5,1,0],[0,0.5,0]];elSignalType=dc1;rotation=-90;strokeWidth=2;flipV=1;flipH=1;" parent="1" vertex="1">
          <mxGeometry x="1292.18" y="2850" width="40" height="40" as="geometry" />
        </mxCell>
        <mxCell id="KkJVHoqy8BTquRj1_7dG-360" style="edgeStyle=orthogonalEdgeStyle;rounded=0;orthogonalLoop=1;jettySize=auto;html=1;exitX=1;exitY=0.5;exitDx=0;exitDy=0;exitPerimeter=0;entryX=0;entryY=0.5;entryDx=0;entryDy=0;entryPerimeter=0;strokeWidth=2;endArrow=none;endFill=0;" parent="1" source="KkJVHoqy8BTquRj1_7dG-358" target="KkJVHoqy8BTquRj1_7dG-351" edge="1">
          <mxGeometry relative="1" as="geometry" />
        </mxCell>
        <mxCell id="KkJVHoqy8BTquRj1_7dG-361" value="" style="verticalLabelPosition=bottom;shadow=0;dashed=0;align=center;html=1;verticalAlign=top;shape=mxgraph.electrical.logic_gates.inverting_contact;strokeWidth=2;fillColor=#000000;" parent="1" vertex="1">
          <mxGeometry x="1475" y="2994.9999999999995" width="10" height="10" as="geometry" />
        </mxCell>
        <mxCell id="KkJVHoqy8BTquRj1_7dG-362" value="" style="pointerEvents=1;verticalLabelPosition=bottom;shadow=0;dashed=0;align=center;html=1;verticalAlign=top;shape=mxgraph.electrical.resistors.resistor_2;rotation=90;strokeWidth=2;" parent="1" vertex="1">
          <mxGeometry x="1525" y="3040" width="100" height="20" as="geometry" />
        </mxCell>
        <mxCell id="KkJVHoqy8BTquRj1_7dG-363" value="" style="endArrow=none;html=1;rounded=0;strokeWidth=2;" parent="1" edge="1">
          <mxGeometry width="50" height="50" relative="1" as="geometry">
            <mxPoint x="1565" y="3100" as="sourcePoint" />
            <mxPoint x="1585" y="3100" as="targetPoint" />
          </mxGeometry>
        </mxCell>
        <mxCell id="KkJVHoqy8BTquRj1_7dG-364" value="" style="endArrow=none;html=1;rounded=0;strokeWidth=2;" parent="1" edge="1">
          <mxGeometry width="50" height="50" relative="1" as="geometry">
            <mxPoint x="1570" y="3104.7400000000002" as="sourcePoint" />
            <mxPoint x="1580" y="3104.7400000000002" as="targetPoint" />
          </mxGeometry>
        </mxCell>
        <mxCell id="KkJVHoqy8BTquRj1_7dG-365" style="edgeStyle=orthogonalEdgeStyle;rounded=0;orthogonalLoop=1;jettySize=auto;html=1;exitX=0;exitY=0.5;exitDx=0;exitDy=0;exitPerimeter=0;entryX=1;entryY=0;entryDx=0;entryDy=0;entryPerimeter=0;strokeWidth=2;endArrow=none;endFill=0;" parent="1" source="KkJVHoqy8BTquRj1_7dG-362" target="KkJVHoqy8BTquRj1_7dG-341" edge="1">
          <mxGeometry relative="1" as="geometry">
            <Array as="points">
              <mxPoint x="1550" y="3000" />
              <mxPoint x="1480" y="3000" />
            </Array>
          </mxGeometry>
        </mxCell>
        <mxCell id="KkJVHoqy8BTquRj1_7dG-370" value="$$Q_2$$" style="text;html=1;align=center;verticalAlign=middle;whiteSpace=wrap;rounded=0;fontSize=12;" parent="1" vertex="1">
          <mxGeometry x="1470" y="3110" width="31.5" height="20" as="geometry" />
        </mxCell>
        <mxCell id="KkJVHoqy8BTquRj1_7dG-371" value="$$Q_3$$" style="text;html=1;align=center;verticalAlign=middle;whiteSpace=wrap;rounded=0;fontSize=12;" parent="1" vertex="1">
          <mxGeometry x="1382.59" y="3050" width="31.5" height="20" as="geometry" />
        </mxCell>
        <mxCell id="KkJVHoqy8BTquRj1_7dG-372" value="$$R_L$$" style="text;html=1;align=center;verticalAlign=middle;whiteSpace=wrap;rounded=0;fontSize=12;" parent="1" vertex="1">
          <mxGeometry x="1588.5" y="3040" width="31.5" height="20" as="geometry" />
        </mxCell>
        <mxCell id="KkJVHoqy8BTquRj1_7dG-373" value="$$I_{bias}=5\mathrm{mA}$$" style="text;html=1;align=center;verticalAlign=middle;whiteSpace=wrap;rounded=0;fontSize=12;" parent="1" vertex="1">
          <mxGeometry x="1375" y="2860" width="31.5" height="20" as="geometry" />
        </mxCell>
        <mxCell id="KkJVHoqy8BTquRj1_7dG-374" value="$$V_{BE1}$$" style="text;html=1;align=center;verticalAlign=middle;whiteSpace=wrap;rounded=0;fontSize=12;" parent="1" vertex="1">
          <mxGeometry x="1416" y="2923" width="37" height="30" as="geometry" />
        </mxCell>
        <mxCell id="KkJVHoqy8BTquRj1_7dG-376" value="$$v_o$$" style="text;html=1;align=center;verticalAlign=middle;whiteSpace=wrap;rounded=0;fontSize=12;" parent="1" vertex="1">
          <mxGeometry x="1533" y="3033.8999999999996" width="23" height="30" as="geometry" />
        </mxCell>
        <mxCell id="KkJVHoqy8BTquRj1_7dG-377" value="+" style="text;html=1;align=center;verticalAlign=middle;whiteSpace=wrap;rounded=0;fontSize=16;" parent="1" vertex="1">
          <mxGeometry x="1538" y="3008.5999999999995" width="13" height="17.5" as="geometry" />
        </mxCell>
        <mxCell id="KkJVHoqy8BTquRj1_7dG-378" value="-" style="text;html=1;align=center;verticalAlign=middle;whiteSpace=wrap;rounded=0;fontSize=16;" parent="1" vertex="1">
          <mxGeometry x="1538" y="3078.8999999999996" width="13" height="12.5" as="geometry" />
        </mxCell>
        <mxCell id="KkJVHoqy8BTquRj1_7dG-379" value="+" style="text;html=1;align=center;verticalAlign=middle;whiteSpace=wrap;rounded=0;fontSize=16;" parent="1" vertex="1">
          <mxGeometry x="1420" y="2913.9999999999995" width="13" height="17.5" as="geometry" />
        </mxCell>
        <mxCell id="KkJVHoqy8BTquRj1_7dG-380" value="-" style="text;html=1;align=center;verticalAlign=middle;whiteSpace=wrap;rounded=0;fontSize=16;" parent="1" vertex="1">
          <mxGeometry x="1450" y="2947.4999999999995" width="13" height="12.5" as="geometry" />
        </mxCell>
        <mxCell id="KkJVHoqy8BTquRj1_7dG-383" value="$$V_{BE3}$$" style="text;html=1;align=center;verticalAlign=middle;whiteSpace=wrap;rounded=0;fontSize=12;" parent="1" vertex="1">
          <mxGeometry x="1340" y="3003.9" width="37" height="30" as="geometry" />
        </mxCell>
        <mxCell id="KkJVHoqy8BTquRj1_7dG-384" value="+" style="text;html=1;align=center;verticalAlign=middle;whiteSpace=wrap;rounded=0;fontSize=16;" parent="1" vertex="1">
          <mxGeometry x="1375" y="2999.9999999999995" width="13" height="17.5" as="geometry" />
        </mxCell>
        <mxCell id="KkJVHoqy8BTquRj1_7dG-385" value="-" style="text;html=1;align=center;verticalAlign=middle;whiteSpace=wrap;rounded=0;fontSize=16;" parent="1" vertex="1">
          <mxGeometry x="1350" y="3033.8999999999996" width="13" height="12.5" as="geometry" />
        </mxCell>
        <mxCell id="KkJVHoqy8BTquRj1_7dG-387" value="" style="endArrow=classic;html=1;rounded=0;" parent="1" edge="1">
          <mxGeometry width="50" height="50" relative="1" as="geometry">
            <mxPoint x="1371" y="2909.76" as="sourcePoint" />
            <mxPoint x="1411" y="2909.76" as="targetPoint" />
          </mxGeometry>
        </mxCell>
        <mxCell id="KkJVHoqy8BTquRj1_7dG-388" value="" style="endArrow=classic;html=1;rounded=0;" parent="1" edge="1">
          <mxGeometry width="50" height="50" relative="1" as="geometry">
            <mxPoint x="1312.26" y="2960" as="sourcePoint" />
            <mxPoint x="1312.26" y="2990" as="targetPoint" />
          </mxGeometry>
        </mxCell>
        <mxCell id="KkJVHoqy8BTquRj1_7dG-389" value="" style="endArrow=classic;html=1;rounded=0;" parent="1" edge="1">
          <mxGeometry width="50" height="50" relative="1" as="geometry">
            <mxPoint x="1480" y="3016.4" as="sourcePoint" />
            <mxPoint x="1480" y="3046.4" as="targetPoint" />
          </mxGeometry>
        </mxCell>
        <mxCell id="KkJVHoqy8BTquRj1_7dG-391" value="" style="endArrow=classic;html=1;rounded=0;" parent="1" edge="1">
          <mxGeometry width="50" height="50" relative="1" as="geometry">
            <mxPoint x="1457" y="3000" as="sourcePoint" />
            <mxPoint x="1430" y="3000" as="targetPoint" />
          </mxGeometry>
        </mxCell>
        <mxCell id="KkJVHoqy8BTquRj1_7dG-392" value="" style="endArrow=classic;html=1;rounded=0;" parent="1" edge="1">
          <mxGeometry width="50" height="50" relative="1" as="geometry">
            <mxPoint x="1479.67" y="2947.5" as="sourcePoint" />
            <mxPoint x="1479.67" y="2977.5" as="targetPoint" />
          </mxGeometry>
        </mxCell>
        <mxCell id="KkJVHoqy8BTquRj1_7dG-393" value="" style="endArrow=classic;html=1;rounded=0;" parent="1" edge="1">
          <mxGeometry width="50" height="50" relative="1" as="geometry">
            <mxPoint x="1490" y="3000" as="sourcePoint" />
            <mxPoint x="1530" y="3000" as="targetPoint" />
          </mxGeometry>
        </mxCell>
        <mxCell id="KkJVHoqy8BTquRj1_7dG-394" value="" style="endArrow=classic;html=1;rounded=0;" parent="1" edge="1">
          <mxGeometry width="50" height="50" relative="1" as="geometry">
            <mxPoint x="1479.67" y="2830" as="sourcePoint" />
            <mxPoint x="1479.67" y="2860" as="targetPoint" />
          </mxGeometry>
        </mxCell>
        <mxCell id="KkJVHoqy8BTquRj1_7dG-396" value="$$I_{C1}$$" style="text;html=1;align=center;verticalAlign=middle;whiteSpace=wrap;rounded=0;fontSize=12;" parent="1" vertex="1">
          <mxGeometry x="1487.5" y="2850" width="25" height="20" as="geometry" />
        </mxCell>
        <mxCell id="KkJVHoqy8BTquRj1_7dG-397" value="$$I_{L}$$" style="text;html=1;align=center;verticalAlign=middle;whiteSpace=wrap;rounded=0;fontSize=12;" parent="1" vertex="1">
          <mxGeometry x="1513" y="2975" width="25" height="20" as="geometry" />
        </mxCell>
        <mxCell id="KkJVHoqy8BTquRj1_7dG-398" value="$$I_{C2}$$" style="text;html=1;align=center;verticalAlign=middle;whiteSpace=wrap;rounded=0;fontSize=12;" parent="1" vertex="1">
          <mxGeometry x="1488" y="3035" width="25" height="20" as="geometry" />
        </mxCell>
        <mxCell id="KkJVHoqy8BTquRj1_7dG-399" value="$$I_{E3}$$" style="text;html=1;align=center;verticalAlign=middle;whiteSpace=wrap;rounded=0;fontSize=12;" parent="1" vertex="1">
          <mxGeometry x="1422" y="3007.35" width="25" height="20" as="geometry" />
        </mxCell>
        <mxCell id="KkJVHoqy8BTquRj1_7dG-400" value="$$I_{C3}$$" style="text;html=1;align=center;verticalAlign=middle;whiteSpace=wrap;rounded=0;fontSize=12;" parent="1" vertex="1">
          <mxGeometry x="1408.5" y="3090" width="25" height="20" as="geometry" />
        </mxCell>
        <mxCell id="KkJVHoqy8BTquRj1_7dG-402" value="" style="endArrow=classic;html=1;rounded=0;" parent="1" edge="1">
          <mxGeometry width="50" height="50" relative="1" as="geometry">
            <mxPoint x="1396.18" y="3119.71" as="sourcePoint" />
            <mxPoint x="1425.18" y="3119.71" as="targetPoint" />
          </mxGeometry>
        </mxCell>
        <mxCell id="KkJVHoqy8BTquRj1_7dG-404" value="$$I_D$$" style="text;html=1;align=center;verticalAlign=middle;whiteSpace=wrap;rounded=0;fontSize=12;" parent="1" vertex="1">
          <mxGeometry x="1310" y="2970" width="37" height="30" as="geometry" />
        </mxCell>
        <mxCell id="KkJVHoqy8BTquRj1_7dG-405" value="+" style="text;html=1;align=center;verticalAlign=middle;whiteSpace=wrap;rounded=0;fontSize=16;" parent="1" vertex="1">
          <mxGeometry x="1280" y="2919.9999999999995" width="13" height="17.5" as="geometry" />
        </mxCell>
        <mxCell id="KkJVHoqy8BTquRj1_7dG-407" value="-" style="text;html=1;align=center;verticalAlign=middle;whiteSpace=wrap;rounded=0;fontSize=16;" parent="1" vertex="1">
          <mxGeometry x="1279.18" y="3024.9999999999995" width="13" height="12.5" as="geometry" />
        </mxCell>
        <mxCell id="KkJVHoqy8BTquRj1_7dG-408" value="$$V_{BB}$$" style="text;html=1;align=center;verticalAlign=middle;whiteSpace=wrap;rounded=0;fontSize=12;" parent="1" vertex="1">
          <mxGeometry x="1268" y="2968" width="37" height="30" as="geometry" />
        </mxCell>
        <mxCell id="KkJVHoqy8BTquRj1_7dG-409" value="" style="endArrow=open;html=1;rounded=0;strokeWidth=2;endSize=10;endFill=0;" parent="1" edge="1">
          <mxGeometry width="50" height="50" relative="1" as="geometry">
            <mxPoint x="3395" y="1697.08" as="sourcePoint" />
            <mxPoint x="3395" y="1396.25" as="targetPoint" />
          </mxGeometry>
        </mxCell>
        <mxCell id="KkJVHoqy8BTquRj1_7dG-410" value="" style="endArrow=open;html=1;rounded=0;strokeWidth=2;endSize=10;endFill=0;" parent="1" edge="1">
          <mxGeometry width="50" height="50" relative="1" as="geometry">
            <mxPoint x="3395" y="1697.08" as="sourcePoint" />
            <mxPoint x="3865" y="1696.25" as="targetPoint" />
          </mxGeometry>
        </mxCell>
        <mxCell id="KkJVHoqy8BTquRj1_7dG-411" value="$$i_c$$" style="text;html=1;align=center;verticalAlign=middle;whiteSpace=wrap;rounded=0;fontSize=22;" parent="1" vertex="1">
          <mxGeometry x="3356" y="1366.25" width="38" height="30" as="geometry" />
        </mxCell>
        <mxCell id="KkJVHoqy8BTquRj1_7dG-412" value="$$v_{ce}$$" style="text;html=1;align=center;verticalAlign=middle;whiteSpace=wrap;rounded=0;fontSize=22;" parent="1" vertex="1">
          <mxGeometry x="3874" y="1676.25" width="38" height="30" as="geometry" />
        </mxCell>
        <mxCell id="KkJVHoqy8BTquRj1_7dG-413" value="" style="endArrow=none;html=1;rounded=0;strokeColor=#FF8000;" parent="1" edge="1">
          <mxGeometry width="50" height="50" relative="1" as="geometry">
            <mxPoint x="3395" y="1496.25" as="sourcePoint" />
            <mxPoint x="3795" y="1696.25" as="targetPoint" />
          </mxGeometry>
        </mxCell>
        <mxCell id="KkJVHoqy8BTquRj1_7dG-414" value="" style="endArrow=none;html=1;rounded=0;strokeColor=#9933FF;" parent="1" edge="1">
          <mxGeometry width="50" height="50" relative="1" as="geometry">
            <mxPoint x="3475" y="1496.25" as="sourcePoint" />
            <mxPoint x="3715" y="1696.25" as="targetPoint" />
          </mxGeometry>
        </mxCell>
        <mxCell id="KkJVHoqy8BTquRj1_7dG-415" value="" style="endArrow=none;dashed=1;html=1;rounded=0;" parent="1" edge="1">
          <mxGeometry width="50" height="50" relative="1" as="geometry">
            <mxPoint x="3595" y="1596.25" as="sourcePoint" />
            <mxPoint x="3395" y="1596.25" as="targetPoint" />
          </mxGeometry>
        </mxCell>
        <mxCell id="KkJVHoqy8BTquRj1_7dG-416" value="" style="endArrow=none;dashed=1;html=1;rounded=0;" parent="1" edge="1">
          <mxGeometry width="50" height="50" relative="1" as="geometry">
            <mxPoint x="3595" y="1596.25" as="sourcePoint" />
            <mxPoint x="3595" y="1696.25" as="targetPoint" />
          </mxGeometry>
        </mxCell>
        <mxCell id="KkJVHoqy8BTquRj1_7dG-417" value="$$V_{CC}$$" style="text;html=1;align=center;verticalAlign=middle;whiteSpace=wrap;rounded=0;fontSize=10;" parent="1" vertex="1">
          <mxGeometry x="3777" y="1696.25" width="38" height="30" as="geometry" />
        </mxCell>
        <mxCell id="KkJVHoqy8BTquRj1_7dG-418" value="$$\frac{V_{CC}}{R_C+\frac{\beta+1}{\beta}R_E}$$" style="text;html=1;align=center;verticalAlign=middle;whiteSpace=wrap;rounded=0;fontSize=10;" parent="1" vertex="1">
          <mxGeometry x="3330" y="1480" width="38" height="30" as="geometry" />
        </mxCell>
        <mxCell id="KkJVHoqy8BTquRj1_7dG-419" value="$$V_{CEQ}=\frac{V_{CC}}{2}$$" style="text;html=1;align=center;verticalAlign=middle;whiteSpace=wrap;rounded=0;fontSize=10;" parent="1" vertex="1">
          <mxGeometry x="3575" y="1698.75" width="38" height="30" as="geometry" />
        </mxCell>
        <mxCell id="KkJVHoqy8BTquRj1_7dG-420" value="" style="curved=1;endArrow=classic;html=1;rounded=0;strokeColor=#ff8000;" parent="1" edge="1">
          <mxGeometry width="50" height="50" relative="1" as="geometry">
            <mxPoint x="3755" y="1666.25" as="sourcePoint" />
            <mxPoint x="3765" y="1586.25" as="targetPoint" />
            <Array as="points">
              <mxPoint x="3777" y="1643.75" />
            </Array>
          </mxGeometry>
        </mxCell>
        <mxCell id="KkJVHoqy8BTquRj1_7dG-421" value="DC Load" style="text;html=1;align=center;verticalAlign=middle;whiteSpace=wrap;rounded=0;fontSize=11;fontColor=#ff8000;" parent="1" vertex="1">
          <mxGeometry x="3717" y="1606.25" width="50" height="30" as="geometry" />
        </mxCell>
        <mxCell id="KkJVHoqy8BTquRj1_7dG-422" value="" style="curved=1;endArrow=classic;html=1;rounded=0;fontColor=#9b37ff;strokeColor=#9933ff;" parent="1" edge="1">
          <mxGeometry width="50" height="50" relative="1" as="geometry">
            <mxPoint x="3443" y="1458.75" as="sourcePoint" />
            <mxPoint x="3535" y="1446.25" as="targetPoint" />
            <Array as="points">
              <mxPoint x="3445" y="1416.25" />
            </Array>
          </mxGeometry>
        </mxCell>
        <mxCell id="KkJVHoqy8BTquRj1_7dG-423" value="AC Load" style="text;html=1;align=center;verticalAlign=middle;whiteSpace=wrap;rounded=0;fontSize=11;fontColor=#9933ff;" parent="1" vertex="1">
          <mxGeometry x="3459" y="1406.25" width="50" height="30" as="geometry" />
        </mxCell>
        <mxCell id="KkJVHoqy8BTquRj1_7dG-424" value="&lt;span style=&quot;font-size: 13px;&quot;&gt;$$v_{ce}=V_{CEQ}+I_{CQ}(R_L//R_C)-i_c(R_L//R_C)$$&lt;/span&gt;" style="rounded=1;whiteSpace=wrap;html=1;fillColor=#FEE0FF;strokeColor=#9933ff;" parent="1" vertex="1">
          <mxGeometry x="3505" y="1456.25" width="300" height="30" as="geometry" />
        </mxCell>
        <mxCell id="KkJVHoqy8BTquRj1_7dG-425" value="$$I_{CQ}$$" style="text;html=1;align=center;verticalAlign=middle;whiteSpace=wrap;rounded=0;fontSize=10;" parent="1" vertex="1">
          <mxGeometry x="3357" y="1578.29" width="38" height="30" as="geometry" />
        </mxCell>
        <mxCell id="KkJVHoqy8BTquRj1_7dG-426" value="$$V_{CEQ}+I_{CQ}(R_L//R_C)$$" style="text;html=1;align=center;verticalAlign=middle;whiteSpace=wrap;rounded=0;fontSize=10;" parent="1" vertex="1">
          <mxGeometry x="3692" y="1696.25" width="38" height="30" as="geometry" />
        </mxCell>
        <mxCell id="KkJVHoqy8BTquRj1_7dG-427" value="$$I_C+\frac{V_{CEQ}}{R_L//R_C}$$" style="text;html=1;align=center;verticalAlign=middle;whiteSpace=wrap;rounded=0;fontSize=10;" parent="1" vertex="1">
          <mxGeometry x="3330" y="1416.25" width="38" height="30" as="geometry" />
        </mxCell>
        <mxCell id="KkJVHoqy8BTquRj1_7dG-428" value="" style="endArrow=none;dashed=1;html=1;rounded=0;" parent="1" edge="1">
          <mxGeometry width="50" height="50" relative="1" as="geometry">
            <mxPoint x="3475" y="1496.25" as="sourcePoint" />
            <mxPoint x="3475" y="1696.25" as="targetPoint" />
          </mxGeometry>
        </mxCell>
        <mxCell id="KkJVHoqy8BTquRj1_7dG-429" value="" style="endArrow=none;dashed=1;html=1;rounded=0;entryX=0.5;entryY=0;entryDx=0;entryDy=0;" parent="1" target="KkJVHoqy8BTquRj1_7dG-417" edge="1">
          <mxGeometry width="50" height="50" relative="1" as="geometry">
            <mxPoint x="3795" y="1496.25" as="sourcePoint" />
            <mxPoint x="3795.71" y="1668.75" as="targetPoint" />
          </mxGeometry>
        </mxCell>
        <mxCell id="KkJVHoqy8BTquRj1_7dG-430" value="" style="endArrow=none;dashed=1;html=1;rounded=0;" parent="1" edge="1">
          <mxGeometry width="50" height="50" relative="1" as="geometry">
            <mxPoint x="3795" y="1496.25" as="sourcePoint" />
            <mxPoint x="3395" y="1496.25" as="targetPoint" />
          </mxGeometry>
        </mxCell>
        <mxCell id="KkJVHoqy8BTquRj1_7dG-431" value="" style="curved=1;endArrow=none;html=1;rounded=0;endFill=0;" parent="1" edge="1">
          <mxGeometry width="50" height="50" relative="1" as="geometry">
            <mxPoint x="3595" y="1496.25" as="sourcePoint" />
            <mxPoint x="3595" y="1596.25" as="targetPoint" />
            <Array as="points">
              <mxPoint x="3355" y="1546.25" />
            </Array>
          </mxGeometry>
        </mxCell>
        <mxCell id="KkJVHoqy8BTquRj1_7dG-432" value="" style="curved=1;endArrow=none;html=1;rounded=0;endFill=0;" parent="1" edge="1">
          <mxGeometry width="50" height="50" relative="1" as="geometry">
            <mxPoint x="3595" y="1595.79" as="sourcePoint" />
            <mxPoint x="3595" y="1695.79" as="targetPoint" />
            <Array as="points">
              <mxPoint x="3835" y="1645.79" />
            </Array>
          </mxGeometry>
        </mxCell>
        <mxCell id="KkJVHoqy8BTquRj1_7dG-433" value="" style="endArrow=none;dashed=1;html=1;rounded=0;" parent="1" edge="1">
          <mxGeometry width="50" height="50" relative="1" as="geometry">
            <mxPoint x="3715" y="1496.25" as="sourcePoint" />
            <mxPoint x="3715" y="1696.25" as="targetPoint" />
          </mxGeometry>
        </mxCell>
        <mxCell id="KkJVHoqy8BTquRj1_7dG-434" value="&lt;span style=&quot;font-size: 13px;&quot;&gt;$$V_{CC}=(R_C+\frac{\beta+1}{\beta}R_E)I_{CQ}+V_{CEQ}$$&lt;/span&gt;" style="rounded=1;whiteSpace=wrap;html=1;fillColor=#FFF1CC;strokeColor=#ff8000;" parent="1" vertex="1">
          <mxGeometry x="3657" y="1530" width="255" height="50" as="geometry" />
        </mxCell>
        <mxCell id="KkJVHoqy8BTquRj1_7dG-435" value="" style="endArrow=none;html=1;rounded=0;strokeColor=#9933FF;dashed=1;" parent="1" edge="1">
          <mxGeometry width="50" height="50" relative="1" as="geometry">
            <mxPoint x="3395" y="1430.25" as="sourcePoint" />
            <mxPoint x="3475" y="1496.25" as="targetPoint" />
          </mxGeometry>
        </mxCell>
        <mxCell id="KkJVHoqy8BTquRj1_7dG-436" value="" style="endArrow=classic;startArrow=classic;html=1;rounded=0;" parent="1" edge="1">
          <mxGeometry width="50" height="50" relative="1" as="geometry">
            <mxPoint x="3475" y="1616.75" as="sourcePoint" />
            <mxPoint x="3595" y="1616.75" as="targetPoint" />
          </mxGeometry>
        </mxCell>
        <mxCell id="KkJVHoqy8BTquRj1_7dG-437" value="$$v_{p}$$" style="text;html=1;align=center;verticalAlign=middle;whiteSpace=wrap;rounded=0;fontSize=12;" parent="1" vertex="1">
          <mxGeometry x="3519" y="1618.75" width="30" height="17.5" as="geometry" />
        </mxCell>
        <mxCell id="KkJVHoqy8BTquRj1_7dG-438" value="&lt;span style=&quot;color: rgb(0, 0, 0); font-size: 9px;&quot;&gt;Q Point&lt;/span&gt;" style="rounded=1;whiteSpace=wrap;html=1;fillColor=#f5f5f5;fontColor=#333333;strokeColor=#666666;fontSize=9;" parent="1" vertex="1">
          <mxGeometry x="3595" y="1570.56" width="40" height="20.46" as="geometry" />
        </mxCell>
        <mxCell id="KkJVHoqy8BTquRj1_7dG-439" value="" style="pointerEvents=1;verticalLabelPosition=bottom;shadow=0;dashed=0;align=center;html=1;verticalAlign=top;shape=mxgraph.electrical.signal_sources.source;aspect=fixed;points=[[0.5,0,0],[1,0.5,0],[0.5,1,0],[0,0.5,0]];elSignalType=dc1;rotation=-90;strokeWidth=2;flipV=1;flipH=0;" parent="1" vertex="1">
          <mxGeometry x="1285" y="3360" width="40" height="40" as="geometry" />
        </mxCell>
        <mxCell id="KkJVHoqy8BTquRj1_7dG-441" value="" style="pointerEvents=1;verticalLabelPosition=bottom;shadow=0;dashed=0;align=center;html=1;verticalAlign=top;shape=mxgraph.electrical.resistors.resistor_2;rotation=90;strokeWidth=2;" parent="1" vertex="1">
          <mxGeometry x="1365" y="3420" width="73" height="20" as="geometry" />
        </mxCell>
        <mxCell id="KkJVHoqy8BTquRj1_7dG-442" value="" style="pointerEvents=1;verticalLabelPosition=bottom;shadow=0;dashed=0;align=center;html=1;verticalAlign=top;shape=mxgraph.electrical.resistors.resistor_2;rotation=90;strokeWidth=2;" parent="1" vertex="1">
          <mxGeometry x="1365" y="3320" width="73" height="20" as="geometry" />
        </mxCell>
        <mxCell id="KkJVHoqy8BTquRj1_7dG-443" value="" style="verticalLabelPosition=bottom;shadow=0;dashed=0;align=center;html=1;verticalAlign=top;shape=mxgraph.electrical.logic_gates.inverting_contact;strokeWidth=2;" parent="1" vertex="1">
          <mxGeometry x="1434" y="3374.9999999999995" width="10" height="10" as="geometry" />
        </mxCell>
        <mxCell id="KkJVHoqy8BTquRj1_7dG-444" style="edgeStyle=orthogonalEdgeStyle;rounded=0;orthogonalLoop=1;jettySize=auto;html=1;exitX=0.1;exitY=0.5;exitDx=0;exitDy=0;exitPerimeter=0;entryX=1;entryY=0.5;entryDx=0;entryDy=0;entryPerimeter=0;strokeWidth=2;endArrow=none;endFill=0;" parent="1" source="KkJVHoqy8BTquRj1_7dG-443" target="KkJVHoqy8BTquRj1_7dG-442" edge="1">
          <mxGeometry relative="1" as="geometry" />
        </mxCell>
        <mxCell id="KkJVHoqy8BTquRj1_7dG-445" style="edgeStyle=orthogonalEdgeStyle;rounded=0;orthogonalLoop=1;jettySize=auto;html=1;exitX=0.1;exitY=0.5;exitDx=0;exitDy=0;exitPerimeter=0;entryX=0;entryY=0.5;entryDx=0;entryDy=0;entryPerimeter=0;strokeWidth=2;endArrow=none;endFill=0;" parent="1" source="KkJVHoqy8BTquRj1_7dG-443" target="KkJVHoqy8BTquRj1_7dG-441" edge="1">
          <mxGeometry relative="1" as="geometry" />
        </mxCell>
        <mxCell id="KkJVHoqy8BTquRj1_7dG-446" style="edgeStyle=orthogonalEdgeStyle;rounded=0;orthogonalLoop=1;jettySize=auto;html=1;exitX=0;exitY=0.5;exitDx=0;exitDy=0;exitPerimeter=0;entryX=1;entryY=0.5;entryDx=0;entryDy=0;entryPerimeter=0;strokeWidth=2;endArrow=none;endFill=0;" parent="1" source="KkJVHoqy8BTquRj1_7dG-442" target="KkJVHoqy8BTquRj1_7dG-439" edge="1">
          <mxGeometry relative="1" as="geometry" />
        </mxCell>
        <mxCell id="KkJVHoqy8BTquRj1_7dG-447" style="edgeStyle=orthogonalEdgeStyle;rounded=0;orthogonalLoop=1;jettySize=auto;html=1;exitX=0;exitY=0.5;exitDx=0;exitDy=0;exitPerimeter=0;entryX=1;entryY=0.5;entryDx=0;entryDy=0;entryPerimeter=0;strokeWidth=2;endArrow=none;endFill=0;" parent="1" source="KkJVHoqy8BTquRj1_7dG-439" target="KkJVHoqy8BTquRj1_7dG-441" edge="1">
          <mxGeometry relative="1" as="geometry" />
        </mxCell>
        <mxCell id="KkJVHoqy8BTquRj1_7dG-448" value="$$\theta_{JC}=0.5\mathrm{\circ C/W}$$" style="text;html=1;align=center;verticalAlign=middle;whiteSpace=wrap;rounded=0;fontSize=12;" parent="1" vertex="1">
          <mxGeometry x="1493" y="3330" width="25" height="20" as="geometry" />
        </mxCell>
        <mxCell id="bTwoySBDSzGLIWv0t6UB-1" value="" style="verticalLabelPosition=bottom;shadow=0;dashed=0;align=center;html=1;verticalAlign=top;shape=mxgraph.electrical.transistors.npn_transistor_5;strokeWidth=2;" vertex="1" parent="1">
          <mxGeometry x="1978.5" y="2821" width="64" height="100" as="geometry" />
        </mxCell>
        <mxCell id="bTwoySBDSzGLIWv0t6UB-4" value="" style="verticalLabelPosition=bottom;shadow=0;dashed=0;align=center;html=1;verticalAlign=top;shape=mxgraph.electrical.transistors.pnp_transistor_5;strokeWidth=2;" vertex="1" parent="1">
          <mxGeometry x="1978.32" y="2956.75" width="64" height="100" as="geometry" />
        </mxCell>
        <mxCell id="bTwoySBDSzGLIWv0t6UB-5" value="" style="pointerEvents=1;verticalLabelPosition=bottom;shadow=0;dashed=0;align=center;html=1;verticalAlign=top;shape=mxgraph.electrical.inductors.inductor_3;strokeWidth=2;" vertex="1" parent="1">
          <mxGeometry x="2070.5" y="2930" width="100" height="8" as="geometry" />
        </mxCell>
        <mxCell id="bTwoySBDSzGLIWv0t6UB-6" value="" style="pointerEvents=1;verticalLabelPosition=bottom;shadow=0;dashed=0;align=center;html=1;verticalAlign=top;shape=mxgraph.electrical.capacitors.capacitor_1;strokeWidth=2;rotation=90;" vertex="1" parent="1">
          <mxGeometry x="2120.5" y="2983" width="100" height="30" as="geometry" />
        </mxCell>
        <mxCell id="bTwoySBDSzGLIWv0t6UB-7" style="edgeStyle=orthogonalEdgeStyle;rounded=0;orthogonalLoop=1;jettySize=auto;html=1;exitX=1;exitY=1;exitDx=0;exitDy=0;exitPerimeter=0;entryX=0;entryY=1;entryDx=0;entryDy=0;entryPerimeter=0;strokeWidth=2;endArrow=none;endFill=0;" edge="1" parent="1" source="bTwoySBDSzGLIWv0t6UB-1" target="bTwoySBDSzGLIWv0t6UB-5">
          <mxGeometry relative="1" as="geometry">
            <Array as="points">
              <mxPoint x="2042.5" y="2938" />
            </Array>
          </mxGeometry>
        </mxCell>
        <mxCell id="bTwoySBDSzGLIWv0t6UB-8" style="edgeStyle=orthogonalEdgeStyle;rounded=0;orthogonalLoop=1;jettySize=auto;html=1;exitX=1;exitY=0;exitDx=0;exitDy=0;exitPerimeter=0;entryX=0;entryY=1;entryDx=0;entryDy=0;entryPerimeter=0;strokeWidth=2;endArrow=none;endFill=0;" edge="1" parent="1" source="bTwoySBDSzGLIWv0t6UB-4" target="bTwoySBDSzGLIWv0t6UB-5">
          <mxGeometry relative="1" as="geometry">
            <Array as="points">
              <mxPoint x="2042.5" y="2938" />
            </Array>
          </mxGeometry>
        </mxCell>
        <mxCell id="bTwoySBDSzGLIWv0t6UB-9" value="" style="pointerEvents=1;verticalLabelPosition=bottom;shadow=0;dashed=0;align=center;html=1;verticalAlign=top;shape=mxgraph.electrical.resistors.resistor_2;rotation=90;strokeWidth=2;" vertex="1" parent="1">
          <mxGeometry x="2230.5" y="2988" width="100" height="20" as="geometry" />
        </mxCell>
        <mxCell id="bTwoySBDSzGLIWv0t6UB-12" style="edgeStyle=orthogonalEdgeStyle;rounded=0;orthogonalLoop=1;jettySize=auto;html=1;exitX=0;exitY=0.5;exitDx=0;exitDy=0;exitPerimeter=0;entryX=1;entryY=1;entryDx=0;entryDy=0;entryPerimeter=0;strokeWidth=2;endArrow=none;endFill=0;" edge="1" parent="1" source="bTwoySBDSzGLIWv0t6UB-9" target="bTwoySBDSzGLIWv0t6UB-5">
          <mxGeometry relative="1" as="geometry">
            <Array as="points">
              <mxPoint x="2280.5" y="2938" />
            </Array>
          </mxGeometry>
        </mxCell>
        <mxCell id="bTwoySBDSzGLIWv0t6UB-13" style="edgeStyle=orthogonalEdgeStyle;rounded=0;orthogonalLoop=1;jettySize=auto;html=1;exitX=0;exitY=0.5;exitDx=0;exitDy=0;exitPerimeter=0;entryX=1;entryY=1;entryDx=0;entryDy=0;entryPerimeter=0;strokeWidth=2;endArrow=none;endFill=0;" edge="1" parent="1" source="bTwoySBDSzGLIWv0t6UB-6" target="bTwoySBDSzGLIWv0t6UB-5">
          <mxGeometry relative="1" as="geometry" />
        </mxCell>
        <mxCell id="bTwoySBDSzGLIWv0t6UB-14" value="" style="endArrow=none;html=1;rounded=0;strokeWidth=2;" edge="1" parent="1">
          <mxGeometry width="50" height="50" relative="1" as="geometry">
            <mxPoint x="2160.5" y="3048" as="sourcePoint" />
            <mxPoint x="2180.5" y="3048" as="targetPoint" />
          </mxGeometry>
        </mxCell>
        <mxCell id="bTwoySBDSzGLIWv0t6UB-15" value="" style="endArrow=none;html=1;rounded=0;strokeWidth=2;" edge="1" parent="1">
          <mxGeometry width="50" height="50" relative="1" as="geometry">
            <mxPoint x="2165.5" y="3052.7400000000002" as="sourcePoint" />
            <mxPoint x="2175.5" y="3052.7400000000002" as="targetPoint" />
          </mxGeometry>
        </mxCell>
        <mxCell id="bTwoySBDSzGLIWv0t6UB-16" value="" style="endArrow=none;html=1;rounded=0;strokeWidth=2;" edge="1" parent="1">
          <mxGeometry width="50" height="50" relative="1" as="geometry">
            <mxPoint x="2270.5" y="3048.81" as="sourcePoint" />
            <mxPoint x="2290.5" y="3048.81" as="targetPoint" />
          </mxGeometry>
        </mxCell>
        <mxCell id="bTwoySBDSzGLIWv0t6UB-17" value="" style="endArrow=none;html=1;rounded=0;strokeWidth=2;" edge="1" parent="1">
          <mxGeometry width="50" height="50" relative="1" as="geometry">
            <mxPoint x="2275.5" y="3053.55" as="sourcePoint" />
            <mxPoint x="2285.5" y="3053.55" as="targetPoint" />
          </mxGeometry>
        </mxCell>
        <mxCell id="bTwoySBDSzGLIWv0t6UB-20" value="" style="verticalLabelPosition=bottom;shadow=0;dashed=0;align=center;html=1;verticalAlign=top;shape=mxgraph.electrical.logic_gates.inverting_contact;strokeWidth=2;" vertex="1" parent="1">
          <mxGeometry x="2037.5" y="2777.9999999999995" width="10" height="10" as="geometry" />
        </mxCell>
        <mxCell id="bTwoySBDSzGLIWv0t6UB-21" style="edgeStyle=orthogonalEdgeStyle;rounded=0;orthogonalLoop=1;jettySize=auto;html=1;exitX=1;exitY=0;exitDx=0;exitDy=0;exitPerimeter=0;entryX=0.495;entryY=0.957;entryDx=0;entryDy=0;entryPerimeter=0;strokeWidth=2;endArrow=none;endFill=0;" edge="1" parent="1" source="bTwoySBDSzGLIWv0t6UB-1" target="bTwoySBDSzGLIWv0t6UB-20">
          <mxGeometry relative="1" as="geometry" />
        </mxCell>
        <mxCell id="bTwoySBDSzGLIWv0t6UB-22" value="" style="verticalLabelPosition=bottom;shadow=0;dashed=0;align=center;html=1;verticalAlign=top;shape=mxgraph.electrical.logic_gates.inverting_contact;strokeWidth=2;" vertex="1" parent="1">
          <mxGeometry x="2037.5" y="3088" width="10" height="10" as="geometry" />
        </mxCell>
        <mxCell id="bTwoySBDSzGLIWv0t6UB-23" style="edgeStyle=orthogonalEdgeStyle;rounded=0;orthogonalLoop=1;jettySize=auto;html=1;exitX=1;exitY=1;exitDx=0;exitDy=0;exitPerimeter=0;entryX=0.513;entryY=0.06;entryDx=0;entryDy=0;entryPerimeter=0;strokeWidth=2;endArrow=none;endFill=0;" edge="1" parent="1" source="bTwoySBDSzGLIWv0t6UB-4" target="bTwoySBDSzGLIWv0t6UB-22">
          <mxGeometry relative="1" as="geometry" />
        </mxCell>
        <mxCell id="bTwoySBDSzGLIWv0t6UB-24" value="" style="group" vertex="1" connectable="0" parent="1">
          <mxGeometry x="1840" y="2882" width="99" height="110" as="geometry" />
        </mxCell>
        <mxCell id="bTwoySBDSzGLIWv0t6UB-25" value="" style="triangle;whiteSpace=wrap;html=1;strokeWidth=2;spacingRight=35;spacingLeft=9;fontSize=17;" vertex="1" parent="bTwoySBDSzGLIWv0t6UB-24">
          <mxGeometry width="99" height="110" as="geometry" />
        </mxCell>
        <mxCell id="bTwoySBDSzGLIWv0t6UB-26" value="&lt;font style=&quot;font-size: 26px;&quot;&gt;-&lt;/font&gt;" style="text;html=1;align=center;verticalAlign=middle;whiteSpace=wrap;rounded=0;fontSize=26;" vertex="1" parent="bTwoySBDSzGLIWv0t6UB-24">
          <mxGeometry x="4.0499999999999545" y="21" width="14.05" height="9.64" as="geometry" />
        </mxCell>
        <mxCell id="bTwoySBDSzGLIWv0t6UB-27" value="&lt;font style=&quot;font-size: 26px;&quot;&gt;+&lt;/font&gt;" style="text;html=1;align=center;verticalAlign=middle;whiteSpace=wrap;rounded=0;fontSize=26;" vertex="1" parent="bTwoySBDSzGLIWv0t6UB-24">
          <mxGeometry x="4.0499999999999545" y="76" width="14.05" height="13.71" as="geometry" />
        </mxCell>
        <mxCell id="bTwoySBDSzGLIWv0t6UB-28" style="edgeStyle=orthogonalEdgeStyle;rounded=0;orthogonalLoop=1;jettySize=auto;html=1;exitX=1;exitY=0.5;exitDx=0;exitDy=0;entryX=0;entryY=0.5;entryDx=0;entryDy=0;entryPerimeter=0;strokeWidth=2;endArrow=none;endFill=0;" edge="1" parent="1" source="bTwoySBDSzGLIWv0t6UB-25" target="bTwoySBDSzGLIWv0t6UB-1">
          <mxGeometry relative="1" as="geometry" />
        </mxCell>
        <mxCell id="bTwoySBDSzGLIWv0t6UB-29" style="edgeStyle=orthogonalEdgeStyle;rounded=0;orthogonalLoop=1;jettySize=auto;html=1;exitX=1;exitY=0.5;exitDx=0;exitDy=0;entryX=0;entryY=0.5;entryDx=0;entryDy=0;entryPerimeter=0;strokeWidth=2;endArrow=none;endFill=0;" edge="1" parent="1" source="bTwoySBDSzGLIWv0t6UB-25" target="bTwoySBDSzGLIWv0t6UB-4">
          <mxGeometry relative="1" as="geometry" />
        </mxCell>
        <mxCell id="bTwoySBDSzGLIWv0t6UB-31" style="edgeStyle=orthogonalEdgeStyle;rounded=0;orthogonalLoop=1;jettySize=auto;html=1;exitX=0.9;exitY=0.5;exitDx=0;exitDy=0;exitPerimeter=0;entryX=0;entryY=0.25;entryDx=0;entryDy=0;strokeWidth=2;endArrow=none;endFill=0;" edge="1" parent="1" source="bTwoySBDSzGLIWv0t6UB-30" target="bTwoySBDSzGLIWv0t6UB-25">
          <mxGeometry relative="1" as="geometry" />
        </mxCell>
        <mxCell id="bTwoySBDSzGLIWv0t6UB-30" value="" style="verticalLabelPosition=bottom;shadow=0;dashed=0;align=center;html=1;verticalAlign=top;shape=mxgraph.electrical.logic_gates.inverting_contact;strokeWidth=2;" vertex="1" parent="1">
          <mxGeometry x="1755" y="2903.9999999999995" width="10" height="10" as="geometry" />
        </mxCell>
        <mxCell id="bTwoySBDSzGLIWv0t6UB-32" value="" style="verticalLabelPosition=bottom;shadow=0;dashed=0;align=center;html=1;verticalAlign=top;shape=mxgraph.electrical.logic_gates.inverting_contact;strokeWidth=2;" vertex="1" parent="1">
          <mxGeometry x="1755" y="3009.9999999999995" width="10" height="10" as="geometry" />
        </mxCell>
        <mxCell id="bTwoySBDSzGLIWv0t6UB-33" style="edgeStyle=orthogonalEdgeStyle;rounded=0;orthogonalLoop=1;jettySize=auto;html=1;exitX=0;exitY=0.75;exitDx=0;exitDy=0;entryX=0.523;entryY=0.119;entryDx=0;entryDy=0;entryPerimeter=0;strokeWidth=2;endArrow=none;endFill=0;" edge="1" parent="1" source="bTwoySBDSzGLIWv0t6UB-25" target="bTwoySBDSzGLIWv0t6UB-32">
          <mxGeometry relative="1" as="geometry" />
        </mxCell>
        <mxCell id="bTwoySBDSzGLIWv0t6UB-34" value="$$V_{CC}$$" style="text;html=1;align=center;verticalAlign=middle;whiteSpace=wrap;rounded=0;fontSize=16;" vertex="1" parent="1">
          <mxGeometry x="2012.5" y="2748" width="60" height="30" as="geometry" />
        </mxCell>
        <mxCell id="bTwoySBDSzGLIWv0t6UB-35" value="$$-V_{CC}$$" style="text;html=1;align=center;verticalAlign=middle;whiteSpace=wrap;rounded=0;fontSize=16;" vertex="1" parent="1">
          <mxGeometry x="2012.5" y="3100" width="60" height="30" as="geometry" />
        </mxCell>
        <mxCell id="bTwoySBDSzGLIWv0t6UB-36" value="$$L$$" style="text;html=1;align=center;verticalAlign=middle;whiteSpace=wrap;rounded=0;fontSize=16;" vertex="1" parent="1">
          <mxGeometry x="2090.5" y="2900" width="60" height="30" as="geometry" />
        </mxCell>
        <mxCell id="bTwoySBDSzGLIWv0t6UB-37" value="$$C$$" style="text;html=1;align=center;verticalAlign=middle;whiteSpace=wrap;rounded=0;fontSize=16;" vertex="1" parent="1">
          <mxGeometry x="2130" y="2983" width="19.5" height="30" as="geometry" />
        </mxCell>
        <mxCell id="bTwoySBDSzGLIWv0t6UB-38" value="$$R_L$$" style="text;html=1;align=center;verticalAlign=middle;whiteSpace=wrap;rounded=0;fontSize=16;" vertex="1" parent="1">
          <mxGeometry x="2241" y="2982" width="19.5" height="30" as="geometry" />
        </mxCell>
        <mxCell id="bTwoySBDSzGLIWv0t6UB-39" value="" style="endArrow=none;html=1;rounded=0;" edge="1" parent="1">
          <mxGeometry width="50" height="50" relative="1" as="geometry">
            <mxPoint x="1724.96" y="2893" as="sourcePoint" />
            <mxPoint x="1734.96" y="2863" as="targetPoint" />
          </mxGeometry>
        </mxCell>
        <mxCell id="bTwoySBDSzGLIWv0t6UB-40" value="" style="endArrow=none;html=1;rounded=0;" edge="1" parent="1">
          <mxGeometry width="50" height="50" relative="1" as="geometry">
            <mxPoint x="1744.96" y="2893" as="sourcePoint" />
            <mxPoint x="1734.96" y="2863" as="targetPoint" />
          </mxGeometry>
        </mxCell>
        <mxCell id="bTwoySBDSzGLIWv0t6UB-41" value="" style="endArrow=none;html=1;rounded=0;" edge="1" parent="1">
          <mxGeometry width="50" height="50" relative="1" as="geometry">
            <mxPoint x="1744.96" y="2893" as="sourcePoint" />
            <mxPoint x="1754.96" y="2863" as="targetPoint" />
          </mxGeometry>
        </mxCell>
        <mxCell id="bTwoySBDSzGLIWv0t6UB-42" value="" style="endArrow=none;html=1;rounded=0;" edge="1" parent="1">
          <mxGeometry width="50" height="50" relative="1" as="geometry">
            <mxPoint x="1764.96" y="2893" as="sourcePoint" />
            <mxPoint x="1754.96" y="2863" as="targetPoint" />
          </mxGeometry>
        </mxCell>
        <mxCell id="bTwoySBDSzGLIWv0t6UB-43" value="" style="endArrow=none;html=1;rounded=0;" edge="1" parent="1">
          <mxGeometry width="50" height="50" relative="1" as="geometry">
            <mxPoint x="1764.96" y="2893" as="sourcePoint" />
            <mxPoint x="1774.96" y="2863" as="targetPoint" />
          </mxGeometry>
        </mxCell>
        <mxCell id="bTwoySBDSzGLIWv0t6UB-44" value="" style="endArrow=none;html=1;rounded=0;" edge="1" parent="1">
          <mxGeometry width="50" height="50" relative="1" as="geometry">
            <mxPoint x="1784.96" y="2893" as="sourcePoint" />
            <mxPoint x="1774.96" y="2863" as="targetPoint" />
          </mxGeometry>
        </mxCell>
        <mxCell id="bTwoySBDSzGLIWv0t6UB-45" value="" style="curved=1;endArrow=none;html=1;rounded=0;strokeWidth=1;endFill=0;" edge="1" parent="1">
          <mxGeometry width="50" height="50" relative="1" as="geometry">
            <mxPoint x="1720" y="3040" as="sourcePoint" />
            <mxPoint x="1740" y="3040" as="targetPoint" />
            <Array as="points">
              <mxPoint x="1730" y="3020" />
            </Array>
          </mxGeometry>
        </mxCell>
        <mxCell id="bTwoySBDSzGLIWv0t6UB-46" value="" style="curved=1;endArrow=none;html=1;rounded=0;strokeWidth=1;endFill=0;" edge="1" parent="1">
          <mxGeometry width="50" height="50" relative="1" as="geometry">
            <mxPoint x="1760" y="3039.9" as="sourcePoint" />
            <mxPoint x="1780" y="3039.9" as="targetPoint" />
            <Array as="points">
              <mxPoint x="1770" y="3020" />
            </Array>
          </mxGeometry>
        </mxCell>
        <mxCell id="bTwoySBDSzGLIWv0t6UB-47" value="" style="curved=1;endArrow=none;html=1;rounded=0;strokeWidth=1;endFill=0;" edge="1" parent="1">
          <mxGeometry width="50" height="50" relative="1" as="geometry">
            <mxPoint x="1740" y="3039.9" as="sourcePoint" />
            <mxPoint x="1760" y="3039.9" as="targetPoint" />
            <Array as="points">
              <mxPoint x="1750" y="3060" />
            </Array>
          </mxGeometry>
        </mxCell>
        <mxCell id="bTwoySBDSzGLIWv0t6UB-48" value="" style="curved=1;endArrow=none;html=1;rounded=0;strokeWidth=1;endFill=0;" edge="1" parent="1">
          <mxGeometry width="50" height="50" relative="1" as="geometry">
            <mxPoint x="1780" y="3040" as="sourcePoint" />
            <mxPoint x="1800" y="3040" as="targetPoint" />
            <Array as="points">
              <mxPoint x="1790" y="3060" />
            </Array>
          </mxGeometry>
        </mxCell>
        <mxCell id="bTwoySBDSzGLIWv0t6UB-55" value="" style="endArrow=none;html=1;rounded=0;" edge="1" parent="1">
          <mxGeometry width="50" height="50" relative="1" as="geometry">
            <mxPoint x="1785.05" y="2893" as="sourcePoint" />
            <mxPoint x="1795.05" y="2863" as="targetPoint" />
          </mxGeometry>
        </mxCell>
        <mxCell id="bTwoySBDSzGLIWv0t6UB-56" value="Ideal Low Pass" style="text;html=1;align=center;verticalAlign=middle;whiteSpace=wrap;rounded=0;" vertex="1" parent="1">
          <mxGeometry x="2072.5" y="2940" width="97" height="30" as="geometry" />
        </mxCell>
        <mxCell id="bTwoySBDSzGLIWv0t6UB-57" value="" style="curved=1;endArrow=none;html=1;rounded=0;strokeWidth=1;endFill=0;" edge="1" parent="1">
          <mxGeometry width="50" height="50" relative="1" as="geometry">
            <mxPoint x="2190" y="2909" as="sourcePoint" />
            <mxPoint x="2210" y="2909" as="targetPoint" />
            <Array as="points">
              <mxPoint x="2200" y="2860" />
            </Array>
          </mxGeometry>
        </mxCell>
        <mxCell id="bTwoySBDSzGLIWv0t6UB-58" value="" style="curved=1;endArrow=none;html=1;rounded=0;strokeWidth=1;endFill=0;" edge="1" parent="1">
          <mxGeometry width="50" height="50" relative="1" as="geometry">
            <mxPoint x="2230" y="2908.9" as="sourcePoint" />
            <mxPoint x="2250" y="2908.9" as="targetPoint" />
            <Array as="points">
              <mxPoint x="2240" y="2860" />
            </Array>
          </mxGeometry>
        </mxCell>
        <mxCell id="bTwoySBDSzGLIWv0t6UB-59" value="" style="curved=1;endArrow=none;html=1;rounded=0;strokeWidth=1;endFill=0;" edge="1" parent="1">
          <mxGeometry width="50" height="50" relative="1" as="geometry">
            <mxPoint x="2210" y="2908.9" as="sourcePoint" />
            <mxPoint x="2230" y="2908.9" as="targetPoint" />
            <Array as="points">
              <mxPoint x="2220" y="2950" />
            </Array>
          </mxGeometry>
        </mxCell>
        <mxCell id="bTwoySBDSzGLIWv0t6UB-60" value="" style="curved=1;endArrow=none;html=1;rounded=0;strokeWidth=1;endFill=0;" edge="1" parent="1">
          <mxGeometry width="50" height="50" relative="1" as="geometry">
            <mxPoint x="2250" y="2909" as="sourcePoint" />
            <mxPoint x="2270" y="2909" as="targetPoint" />
            <Array as="points">
              <mxPoint x="2260" y="2950" />
            </Array>
          </mxGeometry>
        </mxCell>
        <mxCell id="bTwoySBDSzGLIWv0t6UB-62" value="$$Q_1$$" style="text;html=1;align=center;verticalAlign=middle;whiteSpace=wrap;rounded=0;fontSize=16;" vertex="1" parent="1">
          <mxGeometry x="2020" y="2855" width="60" height="30" as="geometry" />
        </mxCell>
        <mxCell id="bTwoySBDSzGLIWv0t6UB-63" value="$$Q_2$$" style="text;html=1;align=center;verticalAlign=middle;whiteSpace=wrap;rounded=0;fontSize=16;" vertex="1" parent="1">
          <mxGeometry x="2020" y="2991.75" width="60" height="30" as="geometry" />
        </mxCell>
      </root>
    </mxGraphModel>
  </diagram>
</mxfile>
